<svg id="圖層_1" data-name="圖層 1" xmlns="http://www.w3.org/2000/svg" viewBox="0 0 376 54"><path d="M320.94,53.49a38.63,38.63,0,0,1-6.63,0,7.32,7.32,0,0,1-4.87-2.58,46.81,46.81,0,0,1-4.36-6Q301,38.5,297.25,31.85a18.44,18.44,0,0,1-1.4-2.77,1.23,1.23,0,0,1,.56-1.64,22.44,22.44,0,0,0,3.3-2.43,8.63,8.63,0,0,0,2.89-5.52,10.07,10.07,0,0,0-.57-5,5.52,5.52,0,0,0-4.33-3.38,20.31,20.31,0,0,0-6.6.11c-.59.09-.82.37-.82,1,0,9.32,0,18.64.1,28a75.86,75.86,0,0,0,.52,9.28v.08C291,51.3,291,51,289.64,51h-13c-1,0-1,0-.86-1,.15-1.41.22-2.82.33-4.23.17-2.33.1-4.67.18-7,.28-7.48.15-15,.09-22.44a98,98,0,0,0-.57-10.69c-.1-.89-.23-1.77-.4-2.65-.09-.46.05-.66.51-.65h1.72c3.66-.06,7.32-.08,11-.2,3.91-.13,7.81-.17,11.72-.08a23.56,23.56,0,0,1,9.94,2.18,11.23,11.23,0,0,1,6.36,8,15.28,15.28,0,0,1-.2,7.8,13.74,13.74,0,0,1-5.55,7.41c-1.05.73-1.13,1.06-.44,2.12,3.82,5.78,7.84,11.4,12.16,16.82,1,1.28,2.08,2.53,3.12,3.79.41.55.9,1,1.34,1.57.21.26.19.43-.08.59s-.51.39-.8.37c-1,0-1.85.5-2.83.33-.62-.11-1.13.44-1.78.32-.15,0-.33,0-.5,0a24.27,24.27,0,0,0-3.19-.07c-1.2,0-2.39,0-3.58,0,2.18,0,4.37,0,6.56,0C321,53.32,321,53.39,320.94,53.49Z" transform="translate(0)" style="fill:#fff"/><path d="M141.38,14.25a7.57,7.57,0,0,0-5.55-3.44,19.08,19.08,0,0,0-7.89.32,1,1,0,0,1-.28.07c-1.23.22-1.3.3-1.3,1.51V39c0,3.62.26,7.23.38,10.85,0,1.07.07,1.07-1,1.07H112.2c-.77,0-.82,0-.7-.75.35-2.23.2-4.49.46-6.72.3-2.6-.07-5.21.15-7.8a3.31,3.31,0,0,0,.07-.89V19.29a3.24,3.24,0,0,0-.06-.82c0-1.38-.11-2.76-.09-4.14a11.49,11.49,0,0,0,.09-3.7,2.73,2.73,0,0,0-.26-1.37A5.56,5.56,0,0,1,111.73,8a1.69,1.69,0,0,0,.1-1.21,2.53,2.53,0,0,1,0-1.16c0-.18-.13,0-.18,0a1.32,1.32,0,0,1-.19-.87c.16-.45-.08-.93.08-1.39,0,0-.19.11-.25,0s-.3-.47.1-.62c3.19,0,6.38,0,9.57,0-3,0-6,0-9,0-.22,0-.58.22-.64-.24,2.6-.1,5.2,0,7.8,0a11.75,11.75,0,0,1,2.22.06,4.26,4.26,0,0,1,4,2.65c.18.43.29.47.66.21a21.79,21.79,0,0,1,7.59-3.46,25.76,25.76,0,0,1,8.49-.51,25,25,0,0,1,6.53,1.37,12.94,12.94,0,0,1,7.91,7.65,10.61,10.61,0,0,1,.86,3.27,10.32,10.32,0,0,1,.07,2.72q0,10.23,0,20.48a3.29,3.29,0,0,1,0,.77,1.19,1.19,0,0,0,0-.5q0-10.42,0-20.86c0-.22-.21-.56.22-.66a6.11,6.11,0,0,1,.14,2c0,3.55,0,7.11,0,10.66,0,3.9,0,7.8.16,11.7.1,3.37.35,6.73.69,10.09.09.92,0,.92-.91.92-2.71,0-5.43,0-8.14,0a6.2,6.2,0,0,1-5.41-2.42,6.77,6.77,0,0,1-1.06-3.94c0-6.31,0-12.62,0-18.92,0-2.05-.05-4.12-.23-6.16A11.74,11.74,0,0,0,141.38,14.25Z" transform="translate(0)" style="fill:#fff"/><path d="M66.54,39.31c1.47,2.17,3.66,3,6.14,3.29a19.15,19.15,0,0,0,6.58-.32l1.3-.29c.8-.21.91-.34.91-1.18,0-7.25.06-14.51,0-21.77,0-3.35-.2-6.7-.22-10A20.07,20.07,0,0,0,81,5.05a7.81,7.81,0,0,1,.18-2c0-.31.28-.45.58-.49a6.26,6.26,0,0,1,.75,0H95.41c.53,0,.7.28.73.81a15.56,15.56,0,0,1-.26,3.54,39.58,39.58,0,0,0-.06,4.22c-.51,7.14-.39,14.3-.37,21.45,0,2.43.28,4.85.38,7.28a22.84,22.84,0,0,0,.07,3.7c.27,1.27,0,2.59.27,3.82A9,9,0,0,1,96.35,50c.08,0,.14-.17.23,0s0,.28.06.43c0,.32-.1.46-.42.45-3.58-.09-7.16.21-10.73-.21a3.69,3.69,0,0,1-3-2.39c-.12-.58-.44-.54-.84-.27A22.38,22.38,0,0,1,73,51.7a27.41,27.41,0,0,1-7.06.26,18.49,18.49,0,0,1-10.44-3.4,6.76,6.76,0,0,0-.61-.44,14,14,0,0,1-4.32-7.46,43.47,43.47,0,0,1-.68-8c0-6,0-12.07,0-18.1,0-2.6-.24-5.19-.42-7.78A18.36,18.36,0,0,0,49,2.9c-.13-.43.07-.51.45-.51,3.28,0,6.56,0,9.85,0a6,6,0,0,1,2.27.64,5.61,5.61,0,0,1,3,5.3c.07,7.62,0,15.25.07,22.88a18.19,18.19,0,0,0,1,6.28A15,15,0,0,0,66.54,39.31Z" transform="translate(0)" style="fill:#fff"/><path d="M34.73,2.76a3,3,0,0,1,1.63,2.55,68.86,68.86,0,0,1,.13,7c0,.42.25,1-.17,1.23s-.61-.47-1-.61a1.8,1.8,0,0,1-.31-.2c-.3-.27-.72-.35-1-.61a20.12,20.12,0,0,0-3.14-1.33,4.77,4.77,0,0,0-1.06-.3,26.3,26.3,0,0,0-5.52-.68c-2.25,0-4.51-.08-6.62,1a4.06,4.06,0,0,0-.62,7,22.4,22.4,0,0,0,5.62,2.81c3.51,1.36,7.1,2.53,10.26,4.67a12.57,12.57,0,0,1,5.3,6.86,14.36,14.36,0,0,1,.48,5.07,15.23,15.23,0,0,1-1.31,5.53,12.61,12.61,0,0,1-5.31,5.83,23.4,23.4,0,0,1-7,2.81,39.56,39.56,0,0,1-9.87,1A54.13,54.13,0,0,1,9,52a52.08,52.08,0,0,1-5.52-1C.72,50,.3,48.67.1,46.29s0-4.52-.06-6.78c0-.53.19-.52.57-.29a26.15,26.15,0,0,0,11.44,3.41,28.89,28.89,0,0,0,5.58-.06A7.8,7.8,0,0,0,21.84,41a4.62,4.62,0,0,0-.57-7.5A26.84,26.84,0,0,0,16.08,31c-.8-.33-1.61-.61-2.42-.91-.25-.11-.56-.07-.76-.3a33.48,33.48,0,0,1-8.06-4.05A11.33,11.33,0,0,1,.29,18.5a13.41,13.41,0,0,1,2-10.34,15.06,15.06,0,0,1,5.2-4.48c1.17-.31,2.16-1,3.33-1.4a39.79,39.79,0,0,1,3.89-1c.72-.15,1.46-.2,2.17-.41A13.62,13.62,0,0,1,20.17.65a62.39,62.39,0,0,1,6.7,0,19,19,0,0,1,4.05.73A17.13,17.13,0,0,1,34.73,2.76Z" transform="translate(0)" style="fill:#fff"/><path d="M322.44,2.92c-.25-.4,0-.46.31-.48,1.39-.11,2.77-.28,4.16-.33a54.88,54.88,0,0,1,8.79.08A8.52,8.52,0,0,1,342.35,7c2.69,5,5.22,10,7.5,15.17.08.17,0,.47.28.47s.32-.26.41-.47c2.14-4.93,4.43-9.79,7-14.5a10.26,10.26,0,0,1,4.55-4.75A8.76,8.76,0,0,1,365.61,2a66.55,66.55,0,0,1,10,.41c.14,0,.32,0,.39.13s-.08.27-.17.38c-4.78,5-8.32,10.91-12,16.73-2,3.19-3.89,6.44-5.62,9.79-1.53,3-1.66,6.17-1.5,9.43.07,1.41,0,2.83.08,4.24a47.69,47.69,0,0,0,.57,7c.1.62,0,.88-.75.87-4.65,0-9.31,0-14,0-1,0-1.05,0-.92-1.05.49-4,.5-8,.62-12a16.56,16.56,0,0,0-2-8.06A148.4,148.4,0,0,0,330.16,12.4a62.15,62.15,0,0,0-6.54-8.28A5,5,0,0,0,322.44,2.92Z" transform="translate(0)" style="fill:#fff"/><path d="M188.36,2.33h15.53a54.24,54.24,0,0,0,7.21-.49c.42-.05.6,0,.47.43a43.15,43.15,0,0,1-2.39,7.09,5.08,5.08,0,0,1-3.8,2.81c-3.2.61-6.44.4-9.67.44-1.46,0-1.31-.1-1.31,1.34,0,7.91-.05,15.81.06,23.72,0,4.11.21,8.23.55,12.34.08,1,0,1-1,1H180.53c-1.28,0-1.3.28-1.17-1.25.51-5.77.59-11.55.59-17.33V14.48c0-.2,0-.4,0-.6,0-1.26,0-1.26-1.25-1.26a74.16,74.16,0,0,0-7.6.17,16.2,16.2,0,0,0-5,1.11c-.78.33-.84.28-.84-.54q0-3.21,0-6.42a6,6,0,0,1,.42-2.25c.68-1.66,2.19-2,3.76-2.23a29.44,29.44,0,0,1,3.87-.12h15Z" transform="translate(0)" style="fill:#fff"/><path d="M85.49,50.66c3.45.19,6.9.13,10.36.14.71,0,.71,0,.65-.77l-.23.43a15.16,15.16,0,0,0-.07-2.8L96,48.1c0-.85,0-1.54.08-2.25a2.42,2.42,0,0,0-.29-1.72c-.12-.17-.07-.33-.07-.5a7.29,7.29,0,0,0-.14-1.92.51.51,0,0,1,0-.3c.55-1.71,0-3.4-.13-5.09,0-1.09-.14-2.18-.15-3.27,0-4.72-.09-9.44,0-14.16.06-2.82.36-5.62.56-8.43a1.3,1.3,0,0,0,0-.52c-.48-1.08,0-2.2-.15-3.29-.06-.44.27-.72.34-1.11.13-.78-.09-1.52,0-2.28,0-.42-.19-.49-.55-.49-4.51,0-9,0-13.52,0-.48,0-.49.23-.59.62-.45,1.84.14,3.66,0,5.5a52.12,52.12,0,0,0,0,5.59c.55,8.81.16,17.63.28,26.44,0,.8-.25,1-1.06,1.08a1.11,1.11,0,0,0,.78-1.24c0-7.63,0-15.25-.06-22.87,0-2.93,0-5.86-.14-8.79-.08-1.95-.24-3.91-.26-5.86,0-.26-.13-.55.13-.78h.13c4.61,0,9.22,0,13.83,0a8.31,8.31,0,0,1,1.22.06l.07-.06c.25.16.15.4.13.61-.18,2.5-.36,5-.46,7.5-.33,7.84-.31,15.69-.22,23.54.05,4.21.35,8.43.59,12.63a35.47,35.47,0,0,0,.48,3.69c.07.43-.07.53-.44.53l-9.64,0A2.72,2.72,0,0,1,85.49,50.66Z" transform="translate(0)" style="fill:#fff"/><path d="M111.2,2.77a1,1,0,0,1,.15.59,1.77,1.77,0,0,1,.15,1.35l.15.89A3.63,3.63,0,0,1,111.8,8L112,9.18a13.16,13.16,0,0,1,.15,5.08c0,1.39.25,2.77.15,4.17a1.05,1.05,0,0,1,.07.58V35a1,1,0,0,1-.07.58,14.79,14.79,0,0,1-.13,2.3,11,11,0,0,0,.12,2.29c0,2.17-.3,4.34-.36,6.5a31.93,31.93,0,0,1-.34,3.8c0,.23.09.31.3.32h14c.63,0,1,0,.75-.84a6.58,6.58,0,0,1,0-1.48c-.62-11.91-.14-23.83-.31-35.74,0-1.37.13-1.51,1.67-1.61-1.43.21-1.54,1.14-1.53,2.39.06,8.8,0,17.59.06,26.39,0,2.9.18,5.8.29,8.7a8.12,8.12,0,0,0,.2,1.55c.15.63,0,.83-.69.82-3.58,0-7.17,0-10.75,0-1.2,0-2.39,0-3.58,0-.48,0-.65-.1-.6-.56.21-1.77.32-3.55.36-5.34,0-1.09.22-2.17.22-3.26,0-9.72.07-19.43,0-29.15a51.13,51.13,0,0,0-.82-9.39c-.16-.86-.07-1,.77-1h8.67c.29,0,.6-.08.86.12l-10,0C111.26,2.55,111.31,2.7,111.2,2.77Z" transform="translate(0)" style="fill:#fff"/><path d="M141.38,14.25a6.44,6.44,0,0,1,1.31,3.17,37.28,37.28,0,0,1,.5,6.51c.23,6.7.06,13.41.09,20.11a9.84,9.84,0,0,0,.95,4.51,3.36,3.36,0,0,1-1-2.16,9.35,9.35,0,0,1-.22-2.06c0-6.31.06-12.62,0-18.93,0-1.89,0-3.78-.16-5.65a11.38,11.38,0,0,0-1.37-5.08A1.36,1.36,0,0,1,141.38,14.25Z" transform="translate(0)" style="fill:#fff"/><path d="M61.61,3.06c-4-1.15-8-.35-12-.59-.47,0-.47.15-.43.56.19,2,.37,4,.51,6,.57,8.54.07,17.08.31,25.61a20.62,20.62,0,0,0,.51,5,4.47,4.47,0,0,1,0,1A10.7,10.7,0,0,1,50,37.17c-.33-6.9-.09-13.81-.14-20.72,0-2.88-.24-5.75-.38-8.62A23.47,23.47,0,0,0,48.94,3c-.12-.47,0-.74.58-.73,3.29,0,6.57,0,9.86,0A3.7,3.7,0,0,1,61.61,3.06Z" transform="translate(0)" style="fill:#fff"/><path d="M34.73,2.76c-1-.34-1.92-.72-2.9-1a12.2,12.2,0,0,0-3.32-.64.52.52,0,0,1-.22,0c-1-.5-2.09-.23-3.14-.27-2.32-.1-4.65.1-7-.07a10.86,10.86,0,0,0-2.3.35A34,34,0,0,0,11.37,2.2a16.57,16.57,0,0,0-2.9,1.27c-.21.12-.52.76-.94.21a22.25,22.25,0,0,1,4.64-1.95,31.47,31.47,0,0,1,5-1.08A33.72,33.72,0,0,1,20.64.4a45.18,45.18,0,0,1,6.48.16,23.67,23.67,0,0,1,7,1.75A1.16,1.16,0,0,1,34.73,2.76Z" transform="translate(0)" style="fill:#fff"/><path d="M3.48,51a3.77,3.77,0,0,1,1.88.33c1.66.41,3.36.46,5,.79a1.61,1.61,0,0,0,.44.06c2.11-.07,4.21.28,6.32.15a46.18,46.18,0,0,0,5.53-.49,24.35,24.35,0,0,0,8.81-3,3.08,3.08,0,0,1,.56-.2,7.67,7.67,0,0,1-2.74,1.54,29.36,29.36,0,0,1-9.65,2.21,33.84,33.84,0,0,1-4.38.24,61.17,61.17,0,0,1-8.65-.82A16.33,16.33,0,0,1,3.48,51Z" transform="translate(0)" style="fill:#fff"/><path d="M157.67,15.59c-.27.24-.15.56-.15.84q0,10.29,0,20.58v.8h-.14V13.64A4,4,0,0,1,157.67,15.59Z" transform="translate(0)" style="fill:#fff"/><path d="M320.94,53.49v-.16a.22.22,0,0,1,.3,0c.38-.11.9,0,1.14-.18.83-.6,1.78,0,2.68-.46.58-.29,1.44-.11,2.05-.64-.35-.7-1.1-1.1-1.38-1.86a17.49,17.49,0,0,1,1.77,1.88c.21.2.27.44-.13.52A37.57,37.57,0,0,1,320.94,53.49Z" transform="translate(0)" style="fill:#fff"/><path d="M81,2.45c.21-.19.47-.11.71-.11H95.56c.24,0,.5-.09.7.13v0a.83.83,0,0,1-.44,0H81.55A1,1,0,0,1,81,2.48Z" transform="translate(0)" style="fill:#fff"/><path d="M79.83,49.17c.65-.45,1.28-.93,1.94-1.35s.7-.31.74.45c-.24-.35-.48-.37-.86-.14A5.32,5.32,0,0,1,79.83,49.17Z" transform="translate(0)" style="fill:#fff"/><path d="M66.54,39.31a3.61,3.61,0,0,1-.91-1.79A5,5,0,0,1,66.54,39.31Z" transform="translate(0)" style="fill:#fff"/><path d="M322.44,2.92a2,2,0,0,1,1.18,1.2A5.59,5.59,0,0,1,322.44,2.92Z" transform="translate(0)" style="fill:#fff"/><path d="M34,12.16a1.62,1.62,0,0,1,1,.61A1.58,1.58,0,0,1,34,12.16Z" transform="translate(0)" style="fill:#fff"/><path d="M29.77,10.53a1.12,1.12,0,0,1,1.06.3A1.61,1.61,0,0,1,29.77,10.53Z" transform="translate(0)" style="fill:#fff"/><path d="M12.9,29.76a1.49,1.49,0,0,1,.76.3C13.36,30.07,13.05,30.12,12.9,29.76Z" transform="translate(0)" style="fill:#fff"/><path d="M54.87,48.12c.32,0,.47.21.61.44C55.17,48.56,55,48.34,54.87,48.12Z" transform="translate(0)" style="fill:#fff"/><path d="M251.33,49.76a.51.51,0,0,1,.59-.31A.53.53,0,0,1,251.33,49.76Z" transform="translate(0)" style="fill:#fff"/><path d="M264.07,23.33a33,33,0,0,0-1.34-7.51,19.76,19.76,0,0,0-8-10.87c-4.2-2.8-9-3.8-13.9-4.08a34.74,34.74,0,0,0-11.65,1.19,21.24,21.24,0,0,0-11.16,7.16,23.09,23.09,0,0,0-4.55,10.21,38.1,38.1,0,0,0-.63,5.23,41.32,41.32,0,0,0,.22,7.12,26.08,26.08,0,0,0,2.69,9.29,19.2,19.2,0,0,0,8.34,8.41,28.66,28.66,0,0,0,12.49,3,39.51,39.51,0,0,0,7.12-.4,28.61,28.61,0,0,0,7.6-2.27c.16-.17.42-.15.59-.31a20.76,20.76,0,0,0,7.59-6.55,23.82,23.82,0,0,0,3.86-8.85A37.39,37.39,0,0,0,264.07,23.33ZM249.8,28.06a24,24,0,0,1-1.68,8.61A9,9,0,0,1,241,42.38c-3.59.57-6.93.07-9.79-2.4a18.32,18.32,0,0,1-1.35-1.57c-.28-.3-.35-.73-.61-1a22.2,22.2,0,0,1-2-8.46A32.5,32.5,0,0,1,228,18.5c.93-3.55,2.7-6.53,6.41-7.82a12.53,12.53,0,0,1,6.38-.51,9.21,9.21,0,0,1,5.63,3.05,12.39,12.39,0,0,1,2.48,5.1A32.6,32.6,0,0,1,249.8,28.06Z" transform="translate(0)" style="fill:#fff"/><path d="M229.22,37.37a1.83,1.83,0,0,1,.61,1A1.45,1.45,0,0,1,229.22,37.37Z" transform="translate(0)" style="fill:#fff"/><path d="M301.47,2.45H289.32V2.38H301.5Z" transform="translate(0)" style="fill:#fff"/><path d="M285.08,2.77H277.2c-1.18,0-1.18,0-1.34,1.16,0-.36,0-.72-.07-1.08s.14-.23.28-.23h9Z" transform="translate(0)" style="fill:#fff"/><path d="M321.24,53.33h-7.16c.16-.24.36-.14.52-.14h5.94C320.78,53.19,321,53.11,321.24,53.33Z" transform="translate(0)" style="fill:#fff"/><path d="M297.18,10.64h-4.43v-.07h4.43Z" transform="translate(0)" style="fill:#fff"/><path d="M126.12,11.77V42.84H126V11.74Z" transform="translate(0)" style="fill:#fff"/><path d="M112.25,35.58V18.43c.24.22.14.51.14.77q0,7.82,0,15.61C112.39,35.07,112.49,35.36,112.25,35.58Z" transform="translate(0)" style="fill:#fff"/><path d="M111.2,2.77a.28.28,0,0,1,.16-.29c.25.25.57.13.85.13,3,0,6,0,9,.16Z" transform="translate(0)" style="fill:#fff"/><path d="M112.1,14.26A47.81,47.81,0,0,0,112,9.18c.58.4.32,1.06.39,1.56a23.78,23.78,0,0,1,0,3.16A.31.31,0,0,1,112.1,14.26Z" transform="translate(0)" style="fill:#fff"/><path d="M111.8,8a12,12,0,0,0-.15-2.39c.11,0,.28-.22.27-.11-.07.78.26,1.52.15,2.29C112.06,7.92,111.93,8,111.8,8Z" transform="translate(0)" style="fill:#fff"/><path d="M111.5,4.71l-.15-1.35c.11,0,.26-.33.27,0A2,2,0,0,1,111.5,4.71Z" transform="translate(0)" style="fill:#fff"/><path d="M59.33,2.73H49.51V2.66h9.81Z" transform="translate(0)" style="fill:#fff"/><path d="M81.6,7.74v6.91h-.08V7.71Z" transform="translate(0)" style="fill:#fff"/><path d="M342.73,35.19v9h-.07v-9Z" transform="translate(0)" style="fill:#fff"/><path d="M327.11,2.36H335v.08H327.1Z" transform="translate(0)" style="fill:#fff"/><path d="M170,2.64h36.8v.07H169.93Z" transform="translate(0)" style="fill:#fff"/><path d="M81,2.48H96.25v.57c-.12-.57-.55-.44-.89-.44H81.89C81.61,2.61,81.29,2.73,81,2.48Z" transform="translate(0)" style="fill:#fff"/><rect width="376" height="54" style="fill:none"/></svg>