<?xml version="1.0" encoding="UTF-8"?>
<svg width="270px" height="80px" viewBox="0 0 270 80" version="1.1" xmlns="http://www.w3.org/2000/svg" xmlns:xlink="http://www.w3.org/1999/xlink">
    <title>_UI Buttons /SVG /app_store_button</title>
    <g id="_UI-Buttons-/app_store_button" stroke="none" stroke-width="1" fill="none" fill-rule="evenodd">
        <g id="bg">
            <rect id="path-1" fill="#F1F4F8" fill-rule="nonzero" x="0" y="3.16384181" width="270" height="76.8361582" rx="38.4180791"></rect>
            <rect id="path-1" fill="#FFFFFF" x="0" y="0" width="270" height="76.8361582" rx="38.4180791"></rect>
        </g>
        <g id="apple" transform="translate(36.529412, 15.819209)" fill="#101213">
            <path d="M27.5156098,34.8947597 C25.9752212,37.2082483 24.3806784,39.5145336 21.8631058,39.5589546 C19.3888566,39.6069771 18.5945938,38.0522455 15.7689435,38.0522455 C12.9408864,38.0522455 12.0563664,39.5145336 9.71569782,39.6069771 C7.28838239,39.7006212 5.43871267,37.1122031 3.88749324,34.8059179 C0.711645242,30.0924998 -1.71085647,21.4844489 1.54682467,15.6737144 C3.15941896,12.7851551 6.05005439,10.9626975 9.18618924,10.9122738 C11.5725881,10.8666523 13.824203,12.5654517 15.2791481,12.5654517 C16.7401104,12.5654517 19.4755036,10.5244913 22.3516978,10.8258331 C23.5551264,10.8762568 26.9355572,11.3240676 29.105339,14.5860026 C28.9320452,14.7000563 25.0714464,17.0075422 25.1171766,21.8170053 C25.1677206,27.5617089 30.0175378,29.4682059 30.0728956,29.4970195 C30.0295722,29.6290817 29.2954806,32.2199009 27.5156098,34.8947597 Z M16.7100246,3.9333896 C18.2082932,2.38586135 20.740307,1.23692068 22.8306624,1.16248565 C23.0978236,3.30789526 22.1170292,5.45810712 20.6668978,7.00683594 C19.215563,8.55196305 16.8351812,9.75612971 14.5017332,9.59765513 C14.1876384,7.49546586 15.3633881,5.3044348 16.7100246,3.9333896 Z M62.1642918,24.5093027 L66.1701043,24.5093027 L73.1672703,43.059684 L69.2915167,43.059684 L67.7568223,38.6293555 L60.5775739,38.6293555 L59.0428795,43.059684 L55.1671258,43.059684 L62.1642918,24.5093027 Z M66.6123044,35.4167197 L64.9475512,30.7791243 L64.2712452,28.5250975 L64.063151,28.5250975 L63.386845,30.7791243 L61.7220917,35.4167197 L66.6123044,35.4167197 Z M74.8320236,30.3645907 L78.0314712,30.3645907 L78.0314712,31.8931835 L78.2395654,31.8931835 C78.5517066,31.3577442 79.0372597,30.90003 79.6962245,30.5200408 C80.3551893,30.1400516 81.1702248,29.950057 82.1413308,29.950057 C82.9563663,29.950057 83.732384,30.1184613 84.4693842,30.4552699 C85.2063843,30.7920785 85.8566786,31.2584289 86.4202669,31.854321 C86.9838552,32.4502131 87.4303906,33.1626929 87.759873,33.9917602 C88.0893554,34.8208275 88.2540967,35.7276199 88.2540967,36.7121373 C88.2540967,37.6966548 88.0893554,38.6034472 87.759873,39.4325145 C87.4303906,40.2615818 86.9838552,40.9740616 86.4202669,41.5699537 C85.8566786,42.1658458 85.2063843,42.6321962 84.4693842,42.9690048 C83.732384,43.3058134 82.9563663,43.4742177 82.1413308,43.4742177 C81.1702248,43.4742177 80.3551893,43.2842231 79.6962245,42.9042339 C79.0372597,42.5242447 78.5517066,42.0665305 78.2395654,41.5310912 L78.0314712,41.5310912 L78.2395654,43.3446759 L78.2395654,48.6558885 L74.8320236,48.6558885 L74.8320236,30.3645907 Z M81.439013,40.3393069 C81.8898837,40.3393069 82.3190779,40.2529457 82.7265956,40.0802233 C83.1341134,39.907501 83.4939428,39.6656897 83.8060841,39.3547894 C84.1182253,39.0438892 84.3696724,38.6639 84.5604254,38.2148219 C84.7511784,37.7657437 84.8465548,37.2648489 84.8465548,36.7121373 C84.8465548,36.1594258 84.7511784,35.658531 84.5604254,35.2094528 C84.3696724,34.7603747 84.1182253,34.3803855 83.8060841,34.0694853 C83.4939428,33.758585 83.1341134,33.5167737 82.7265956,33.3440514 C82.3190779,33.171329 81.8898837,33.0849678 81.439013,33.0849678 C80.9881424,33.0849678 80.5589482,33.1670109 80.1514304,33.3310972 C79.7439127,33.4951834 79.3840832,33.7326767 79.071942,34.0435769 C78.7598008,34.3544772 78.5083537,34.7344663 78.3176007,35.1835445 C78.1268477,35.6326226 78.0314712,36.1421536 78.0314712,36.7121373 C78.0314712,37.2821211 78.1268477,37.7916521 78.3176007,38.2407302 C78.5083537,38.6898084 78.7598008,39.0697975 79.071942,39.3806978 C79.3840832,39.691598 79.7439127,39.9290913 80.1514304,40.0931775 C80.5589482,40.2572638 80.9881424,40.3393069 81.439013,40.3393069 Z M90.3350382,30.3645907 L93.5344859,30.3645907 L93.5344859,31.8931835 L93.74258,31.8931835 C94.0547213,31.3577442 94.5402743,30.90003 95.1992391,30.5200408 C95.8582039,30.1400516 96.6732394,29.950057 97.6443454,29.950057 C98.4593809,29.950057 99.2353987,30.1184613 99.9723988,30.4552699 C100.709399,30.7920785 101.359693,31.2584289 101.923282,31.854321 C102.48687,32.4502131 102.933405,33.1626929 103.262888,33.9917602 C103.59237,34.8208275 103.757111,35.7276199 103.757111,36.7121373 C103.757111,37.6966548 103.59237,38.6034472 103.262888,39.4325145 C102.933405,40.2615818 102.48687,40.9740616 101.923282,41.5699537 C101.359693,42.1658458 100.709399,42.6321962 99.9723988,42.9690048 C99.2353987,43.3058134 98.4593809,43.4742177 97.6443454,43.4742177 C96.6732394,43.4742177 95.8582039,43.2842231 95.1992391,42.9042339 C94.5402743,42.5242447 94.0547213,42.0665305 93.74258,41.5310912 L93.5344859,41.5310912 L93.74258,43.3446759 L93.74258,48.6558885 L90.3350382,48.6558885 L90.3350382,30.3645907 Z M96.9420277,40.3393069 C97.3928983,40.3393069 97.8220925,40.2529457 98.2296103,40.0802233 C98.637128,39.907501 98.9969575,39.6656897 99.3090987,39.3547894 C99.6212399,39.0438892 99.872687,38.6639 100.06344,38.2148219 C100.254193,37.7657437 100.349569,37.2648489 100.349569,36.7121373 C100.349569,36.1594258 100.254193,35.658531 100.06344,35.2094528 C99.872687,34.7603747 99.6212399,34.3803855 99.3090987,34.0694853 C98.9969575,33.758585 98.637128,33.5167737 98.2296103,33.3440514 C97.8220925,33.171329 97.3928983,33.0849678 96.9420277,33.0849678 C96.491157,33.0849678 96.0619628,33.1670109 95.6544451,33.3310972 C95.2469274,33.4951834 94.8870979,33.7326767 94.5749566,34.0435769 C94.2628154,34.3544772 94.0113683,34.7344663 93.8206153,35.1835445 C93.6298624,35.6326226 93.5344859,36.1421536 93.5344859,36.7121373 C93.5344859,37.2821211 93.6298624,37.7916521 93.8206153,38.2407302 C94.0113683,38.6898084 94.2628154,39.0697975 94.5749566,39.3806978 C94.8870979,39.691598 95.2469274,39.9290913 95.6544451,40.0931775 C96.0619628,40.2572638 96.491157,40.3393069 96.9420277,40.3393069 Z M117.777455,43.4742177 C116.979761,43.4742177 116.216749,43.3619482 115.488419,43.1374091 C114.76009,42.91287 114.092454,42.5760614 113.485513,42.1269833 C112.878572,41.6779052 112.349666,41.1295117 111.898795,40.4818028 C111.447924,39.834094 111.09243,39.0784337 110.832313,38.2148219 L114.135807,36.9194042 C114.378584,37.8521049 114.803443,38.6250375 115.410384,39.2382018 C116.017325,39.8513662 116.81502,40.1579484 117.803467,40.1579484 C118.167632,40.1579484 118.51879,40.1104498 118.856943,40.0154525 C119.195096,39.9204552 119.498567,39.7822773 119.767355,39.6009188 C120.036144,39.4195603 120.248573,39.1907032 120.404644,38.9143474 C120.560714,38.6379916 120.63875,38.3184553 120.63875,37.9557383 C120.63875,37.6102936 120.578056,37.2993934 120.456667,37.0230376 C120.335279,36.7466818 120.13152,36.4875983 119.845391,36.245787 C119.559261,36.0039757 119.186426,35.7708005 118.726885,35.5462614 C118.267343,35.3217224 117.69942,35.0885472 117.023114,34.8467359 L115.878596,34.4322022 C115.375702,34.2594799 114.868472,34.0263047 114.356907,33.7326767 C113.845343,33.4390487 113.381466,33.0849678 112.965278,32.6704342 C112.549089,32.2559005 112.206601,31.7679598 111.937813,31.2066122 C111.669025,30.6452645 111.53463,30.0105098 111.53463,29.3023482 C111.53463,28.5769143 111.677695,27.898979 111.963825,27.2685424 C112.249954,26.6381058 112.657472,26.0853942 113.186378,25.6104077 C113.715284,25.1354213 114.348237,24.7640682 115.085237,24.4963485 C115.822237,24.2286289 116.641608,24.094769 117.543349,24.094769 C118.479773,24.094769 119.290473,24.2199928 119.97545,24.4704402 C120.660426,24.7208876 121.241356,25.040424 121.718238,25.4290493 C122.195121,25.8176746 122.580962,26.2451624 122.875762,26.7115128 C123.170562,27.1778631 123.387327,27.6183052 123.526056,28.0328388 L120.430656,29.3282565 C120.257244,28.8100894 119.940767,28.3437391 119.481226,27.9292054 C119.021685,27.5146717 118.393067,27.3074049 117.595373,27.3074049 C116.832361,27.3074049 116.199408,27.4844453 115.696513,27.8385262 C115.193619,28.192607 114.942172,28.6546393 114.942172,29.2246231 C114.942172,29.7773346 115.184949,30.2480031 115.670502,30.6366284 C116.156055,31.0252537 116.927737,31.4009248 117.985549,31.7636418 L119.156079,32.1522671 C119.90175,32.4113506 120.582391,32.7092967 121.198003,33.0461053 C121.813615,33.3829139 122.342521,33.7844934 122.784721,34.2508437 C123.226921,34.7171941 123.565074,35.2483154 123.79918,35.8442075 C124.033286,36.4400996 124.150339,37.126671 124.150339,37.9039216 C124.150339,38.8711668 123.95525,39.7045522 123.565074,40.4040778 C123.174897,41.1036033 122.676338,41.6779052 122.069397,42.1269833 C121.462456,42.5760614 120.777479,42.91287 120.014467,43.1374091 C119.251455,43.3619482 118.505785,43.4742177 117.777455,43.4742177 Z M128.026092,33.2663263 L125.78908,33.2663263 L125.78908,30.3645907 L128.026092,30.3645907 L128.026092,26.4783376 L131.433634,26.4783376 L131.433634,30.3645907 L134.555046,30.3645907 L134.555046,33.2663263 L131.433634,33.2663263 L131.433634,38.1889135 C131.433634,38.4825415 131.463981,38.7545792 131.524675,39.0050267 C131.585369,39.2554741 131.702422,39.467059 131.875834,39.6397813 C132.118611,39.9161371 132.465434,40.054315 132.916305,40.054315 C133.211105,40.054315 133.445211,40.0240886 133.618623,39.9636358 C133.792034,39.9031829 133.956776,39.8211398 134.112846,39.7175064 L135.075282,42.6969671 C134.676435,42.8869617 134.24724,43.0294576 133.787699,43.1244549 C133.328158,43.2194522 132.820928,43.2669509 132.266011,43.2669509 C131.624387,43.2669509 131.047793,43.1676355 130.536228,42.9690048 C130.024663,42.7703741 129.595469,42.4983364 129.248645,42.1528916 C128.43361,41.375641 128.026092,40.2702179 128.026092,38.8366224 L128.026092,33.2663263 Z M143.086907,29.950057 C144.075354,29.950057 144.981431,30.1184613 145.805137,30.4552699 C146.628843,30.7920785 147.339831,31.2584289 147.938102,31.854321 C148.536373,32.4502131 149.004584,33.1626929 149.342737,33.9917602 C149.68089,34.8208275 149.849967,35.7276199 149.849967,36.7121373 C149.849967,37.6966548 149.68089,38.6034472 149.342737,39.4325145 C149.004584,40.2615818 148.536373,40.9740616 147.938102,41.5699537 C147.339831,42.1658458 146.628843,42.6321962 145.805137,42.9690048 C144.981431,43.3058134 144.075354,43.4742177 143.086907,43.4742177 C142.09846,43.4742177 141.192383,43.3058134 140.368677,42.9690048 C139.544971,42.6321962 138.833982,42.1658458 138.235712,41.5699537 C137.637441,40.9740616 137.169229,40.2615818 136.831076,39.4325145 C136.492923,38.6034472 136.323847,37.6966548 136.323847,36.7121373 C136.323847,35.7276199 136.492923,34.8208275 136.831076,33.9917602 C137.169229,33.1626929 137.637441,32.4502131 138.235712,31.854321 C138.833982,31.2584289 139.544971,30.7920785 140.368677,30.4552699 C141.192383,30.1184613 142.09846,29.950057 143.086907,29.950057 Z M143.086907,40.3393069 C143.520436,40.3393069 143.94096,40.2572638 144.348478,40.0931775 C144.755995,39.9290913 145.115825,39.691598 145.427966,39.3806978 C145.740107,39.0697975 145.987219,38.6898084 146.169301,38.2407302 C146.351384,37.7916521 146.442425,37.2821211 146.442425,36.7121373 C146.442425,36.1421536 146.351384,35.6326226 146.169301,35.1835445 C145.987219,34.7344663 145.740107,34.3544772 145.427966,34.0435769 C145.115825,33.7326767 144.755995,33.4951834 144.348478,33.3310972 C143.94096,33.1670109 143.520436,33.0849678 143.086907,33.0849678 C142.636036,33.0849678 142.211177,33.1670109 141.81233,33.3310972 C141.413483,33.4951834 141.057989,33.7326767 140.745848,34.0435769 C140.433706,34.3544772 140.186595,34.7344663 140.004512,35.1835445 C139.82243,35.6326226 139.731389,36.1421536 139.731389,36.7121373 C139.731389,37.2821211 139.82243,37.7916521 140.004512,38.2407302 C140.186595,38.6898084 140.433706,39.0697975 140.745848,39.3806978 C141.057989,39.691598 141.413483,39.9290913 141.81233,40.0931775 C142.211177,40.2572638 142.636036,40.3393069 143.086907,40.3393069 Z M152.034956,30.3645907 L155.234403,30.3645907 L155.234403,32.1263587 L155.442497,32.1263587 C155.598568,31.8154585 155.806662,31.5304666 156.06678,31.271383 C156.326897,31.0122995 156.617362,30.7877604 156.938174,30.5977658 C157.258986,30.4077713 157.605809,30.2609573 157.978645,30.1573238 C158.35148,30.0536904 158.71998,30.0018737 159.084145,30.0018737 C159.535016,30.0018737 159.920857,30.0450543 160.241669,30.1314155 C160.562481,30.2177767 160.835604,30.3300462 161.06104,30.4682241 L160.150628,33.5513182 C159.942533,33.4476848 159.712763,33.3656416 159.461316,33.3051888 C159.209869,33.244736 158.902063,33.2145096 158.537898,33.2145096 C158.069686,33.2145096 157.644827,33.3051888 157.263321,33.4865473 C156.881815,33.6679058 156.556668,33.9226713 156.28788,34.2508437 C156.019092,34.5790162 155.810997,34.9633235 155.663597,35.4037655 C155.516197,35.8442075 155.442497,36.323512 155.442497,36.8416791 L155.442497,43.059684 L152.034956,43.059684 L152.034956,30.3645907 Z M174.691207,40.0024983 C174.101607,41.0388324 173.308248,41.8765359 172.31113,42.5156086 C171.314012,43.1546813 170.095794,43.4742177 168.656476,43.4742177 C167.68537,43.4742177 166.787964,43.3058134 165.964258,42.9690048 C165.140552,42.6321962 164.425228,42.1615278 163.818287,41.5569995 C163.211346,40.9524713 162.738799,40.2399915 162.400646,39.4195603 C162.062493,38.5991291 161.893416,37.6966548 161.893416,36.7121373 C161.893416,35.7967088 162.058157,34.928779 162.38764,34.1083478 C162.717122,33.2879166 163.176663,32.5711188 163.766264,31.9579544 C164.355864,31.3447901 165.053846,30.8568494 165.860211,30.4941324 C166.666576,30.1314155 167.555311,29.950057 168.526417,29.950057 C169.549547,29.950057 170.459959,30.1184613 171.257653,30.4552699 C172.055347,30.7920785 172.722983,31.2584289 173.260559,31.854321 C173.798136,32.4502131 174.205654,33.1540568 174.483113,33.9658518 C174.760571,34.7776469 174.899301,35.658531 174.899301,36.6085039 C174.899301,36.7294096 174.899301,36.833043 174.899301,36.9194042 C174.88196,37.0230376 174.873289,37.1180349 174.873289,37.2043961 C174.855948,37.2907573 174.847277,37.3857545 174.847277,37.489388 L165.248934,37.489388 C165.318299,38.007555 165.461364,38.4523151 165.678129,38.8236682 C165.894893,39.1950213 166.163682,39.5059215 166.484493,39.7563689 C166.805305,40.0068163 167.156464,40.1881748 167.53797,40.3004444 C167.919476,40.4127139 168.309653,40.4688487 168.7085,40.4688487 C169.488853,40.4688487 170.134812,40.2918082 170.646377,39.9377274 C171.157941,39.5836466 171.561124,39.1388865 171.855924,38.6034472 L174.691207,40.0024983 Z M171.595806,35.0799111 C171.578465,34.855372 171.504765,34.6049246 171.374706,34.3285688 C171.244647,34.052213 171.053894,33.7931295 170.802447,33.5513182 C170.551,33.3095069 170.238859,33.1108762 169.866024,32.955426 C169.493188,32.7999759 169.046653,32.7222509 168.526417,32.7222509 C167.798088,32.7222509 167.156464,32.9295177 166.601546,33.3440514 C166.046629,33.758585 165.656452,34.3372049 165.431017,35.0799111 L171.595806,35.0799111 Z M56.2596201,13.912786 L56.2596201,0 L60.5320533,0 C62.6650184,0 64.3785437,0.641231757 65.6726292,1.92369527 C66.9667148,3.20615878 67.6137575,4.88372469 67.6137575,6.956393 C67.6137575,9.04201548 66.9667148,10.7228199 65.6726292,11.9988064 C64.3785437,13.2747928 62.6650184,13.912786 60.5320533,13.912786 L56.2596201,13.912786 Z M58.0544322,1.70995135 L58.0544322,12.2028346 L60.5320533,12.2028346 C62.1577889,12.2028346 63.4388685,11.7397228 64.3752922,10.8134992 C65.3117159,9.88727552 65.7799278,8.60157346 65.7799278,6.956393 C65.7799278,5.32416671 65.3117159,4.04170319 64.3752922,3.10900246 C63.4388685,2.17630172 62.1577889,1.70995135 60.5320533,1.70995135 L58.0544322,1.70995135 Z M68.8818313,9.15212598 C68.8818313,7.68830399 69.3435402,6.47708845 70.266958,5.51847936 C71.2033817,4.55987027 72.3804143,4.08056573 73.7980557,4.08056573 C75.2156972,4.08056573 76.3862268,4.55987027 77.3096446,5.51847936 C78.2460683,6.47708845 78.7142802,7.68830399 78.7142802,9.15212598 C78.7142802,10.6289022 78.2460683,11.8401177 77.3096446,12.7857726 C76.3862268,13.7443817 75.2156972,14.2236862 73.7980557,14.2236862 C72.3804143,14.2236862 71.2033817,13.7443817 70.266958,12.7857726 C69.3435402,11.8271635 68.8818313,10.615948 68.8818313,9.15212598 Z M70.6766434,9.15212598 C70.6766434,10.175506 70.9757787,11.0045733 71.5740494,11.6393279 C72.1723201,12.2740826 72.9136556,12.59146 73.7980557,12.59146 C74.6824559,12.59146 75.4237913,12.2740826 76.022062,11.6393279 C76.6203327,11.0045733 76.9194681,10.175506 76.9194681,9.15212598 C76.9194681,8.14170018 76.6203327,7.31910995 76.022062,6.68435528 C75.4107855,6.03664644 74.66945,5.71279202 73.7980557,5.71279202 C72.9266615,5.71279202 72.185326,6.03664644 71.5740494,6.68435528 C70.9757787,7.31910995 70.6766434,8.14170018 70.6766434,9.15212598 Z M93.8921477,4.39146597 L90.809753,13.912786 L88.9759233,13.912786 L86.5958463,6.60663022 L84.2352783,13.912786 L82.4209573,13.912786 L79.3385626,4.39146597 L81.2114101,4.39146597 L83.3378722,11.5810342 L83.357381,11.5810342 L85.7179491,4.39146597 L87.5712877,4.39146597 L89.9318558,11.5810342 L89.9513646,11.5810342 L92.0583179,4.39146597 L93.8921477,4.39146597 Z M95.0626773,4.39146597 L96.7794541,4.39146597 L96.7794541,5.71279202 L96.8574894,5.71279202 C97.130613,5.24644165 97.5500528,4.85781634 98.1158088,4.54691609 C98.6815648,4.23601585 99.270081,4.08056573 99.8813576,4.08056573 C101.051887,4.08056573 101.952545,4.41413578 102.58333,5.08127589 C103.214116,5.748416 103.529508,6.69730946 103.529508,7.92795627 L103.529508,13.912786 L101.734696,13.912786 L101.734696,8.04454386 C101.695679,6.49004263 100.908823,5.71279202 99.3741281,5.71279202 C98.6588045,5.71279202 98.0605338,6.00102245 97.579316,6.57748332 C97.0980983,7.1539442 96.8574894,7.84375412 96.8574894,8.64691308 L96.8574894,13.912786 L95.0626773,13.912786 L95.0626773,4.39146597 Z M107.431274,0 L107.431274,13.912786 L105.636462,13.912786 L105.636462,0 L107.431274,0 Z M109.070015,9.15212598 C109.070015,7.68830399 109.531724,6.47708845 110.455142,5.51847936 C111.391566,4.55987027 112.568598,4.08056573 113.98624,4.08056573 C115.403881,4.08056573 116.574411,4.55987027 117.497829,5.51847936 C118.434252,6.47708845 118.902464,7.68830399 118.902464,9.15212598 C118.902464,10.6289022 118.434252,11.8401177 117.497829,12.7857726 C116.574411,13.7443817 115.403881,14.2236862 113.98624,14.2236862 C112.568598,14.2236862 111.391566,13.7443817 110.455142,12.7857726 C109.531724,11.8271635 109.070015,10.615948 109.070015,9.15212598 Z M110.864827,9.15212598 C110.864827,10.175506 111.163963,11.0045733 111.762233,11.6393279 C112.360504,12.2740826 113.101839,12.59146 113.98624,12.59146 C114.87064,12.59146 115.611975,12.2740826 116.210246,11.6393279 C116.808517,11.0045733 117.107652,10.175506 117.107652,9.15212598 C117.107652,8.14170018 116.808517,7.31910995 116.210246,6.68435528 C115.598969,6.03664644 114.857634,5.71279202 113.98624,5.71279202 C113.114845,5.71279202 112.37351,6.03664644 111.762233,6.68435528 C111.163963,7.31910995 110.864827,8.14170018 110.864827,9.15212598 Z M121.848297,10.9980962 C121.848297,11.4644466 122.046637,11.8530719 122.443316,12.1639721 C122.839996,12.4748724 123.304956,12.6303225 123.838197,12.6303225 C124.592539,12.6303225 125.265593,12.3518077 125.857361,11.7947781 C126.449129,11.2377485 126.745013,10.5835625 126.745013,9.83222027 C126.18576,9.39177826 125.405406,9.17155725 124.403953,9.17155725 C123.675624,9.17155725 123.067599,9.34643864 122.579878,9.69620141 C122.092157,10.0459642 121.848297,10.4799291 121.848297,10.9980962 Z M124.169847,4.08056573 C125.496448,4.08056573 126.543421,4.43356705 127.310769,5.13956969 C128.078116,5.84557233 128.461789,6.81389705 128.461789,8.04454386 L128.461789,13.912786 L126.745013,13.912786 L126.745013,12.59146 L126.666977,12.59146 C125.925642,13.6796108 124.937195,14.2236862 123.701636,14.2236862 C122.648159,14.2236862 121.76701,13.912786 121.058189,13.2909855 C120.349369,12.669185 119.994958,11.8919344 119.994958,10.9592337 C119.994958,9.97471622 120.368878,9.19098851 121.116716,8.60805055 C121.864554,8.02511259 122.862756,7.73364361 124.111321,7.73364361 C125.177803,7.73364361 126.055701,7.92795627 126.745013,8.31658157 L126.745013,7.908525 C126.745013,7.28672451 126.497901,6.7588418 126.003677,6.32487687 C125.509454,5.89091195 124.930692,5.67392948 124.267392,5.67392948 C123.265938,5.67392948 122.472579,6.09494023 121.887315,6.93696173 L120.3071,5.9459672 C121.178494,4.70236622 122.466077,4.08056573 124.169847,4.08056573 Z M134.782649,12.59146 C135.66705,12.59146 136.388876,12.2740826 136.948129,11.6393279 C137.533394,11.0045733 137.826026,10.175506 137.826026,9.15212598 C137.826026,8.15465436 137.533394,7.33206413 136.948129,6.68435528 C136.37587,6.03664644 135.654044,5.71279202 134.782649,5.71279202 C133.924261,5.71279202 133.202434,6.03664644 132.61717,6.68435528 C132.031905,7.33206413 131.739272,8.15465436 131.739272,9.15212598 C131.739272,10.1625518 132.031905,10.985142 132.61717,11.6198967 C133.202434,12.2676055 133.924261,12.59146 134.782649,12.59146 Z M134.490017,14.2236862 C133.241452,14.2236862 132.168467,13.7314275 131.271061,12.7469101 C130.38666,11.7494385 129.94446,10.5511771 129.94446,9.15212598 C129.94446,7.75307488 130.38666,6.55481351 131.271061,5.55734189 C132.168467,4.57282445 133.241452,4.08056573 134.490017,4.08056573 C135.192335,4.08056573 135.832875,4.22953876 136.411636,4.52748483 C136.990398,4.8254309 137.43585,5.22053329 137.747991,5.71279202 L137.826026,5.71279202 L137.747991,4.39146597 L137.747991,1.47259982e-12 L139.542803,1.47259982e-12 L139.542803,13.912786 L137.826026,13.912786 L137.826026,12.59146 L137.747991,12.59146 C137.43585,13.0837187 136.990398,13.4788211 136.411636,13.7767671 C135.832875,14.0747132 135.192335,14.2236862 134.490017,14.2236862 Z M145.473487,9.15212598 C145.473487,7.68830399 145.935196,6.47708845 146.858613,5.51847936 C147.795037,4.55987027 148.97207,4.08056573 150.389711,4.08056573 C151.807353,4.08056573 152.977882,4.55987027 153.9013,5.51847936 C154.837724,6.47708845 155.305936,7.68830399 155.305936,9.15212598 C155.305936,10.6289022 154.837724,11.8401177 153.9013,12.7857726 C152.977882,13.7443817 151.807353,14.2236862 150.389711,14.2236862 C148.97207,14.2236862 147.795037,13.7443817 146.858613,12.7857726 C145.935196,11.8271635 145.473487,10.615948 145.473487,9.15212598 Z M147.268299,9.15212598 C147.268299,10.175506 147.567434,11.0045733 148.165705,11.6393279 C148.763976,12.2740826 149.505311,12.59146 150.389711,12.59146 C151.274111,12.59146 152.015447,12.2740826 152.613717,11.6393279 C153.211988,11.0045733 153.511123,10.175506 153.511123,9.15212598 C153.511123,8.14170018 153.211988,7.31910995 152.613717,6.68435528 C152.002441,6.03664644 151.261105,5.71279202 150.389711,5.71279202 C149.518317,5.71279202 148.776981,6.03664644 148.165705,6.68435528 C147.567434,7.31910995 147.268299,8.14170018 147.268299,9.15212598 Z M156.944677,4.39146597 L158.661454,4.39146597 L158.661454,5.71279202 L158.739489,5.71279202 C159.012613,5.24644165 159.432052,4.85781634 159.997808,4.54691609 C160.563564,4.23601585 161.152081,4.08056573 161.763357,4.08056573 C162.933887,4.08056573 163.834544,4.41413578 164.46533,5.08127589 C165.096115,5.748416 165.411508,6.69730946 165.411508,7.92795627 L165.411508,13.912786 L163.616696,13.912786 L163.616696,8.04454386 C163.577678,6.49004263 162.790822,5.71279202 161.256128,5.71279202 C160.540804,5.71279202 159.942533,6.00102245 159.461316,6.57748332 C158.980098,7.1539442 158.739489,7.84375412 158.739489,8.64691308 L158.739489,13.912786 L156.944677,13.912786 L156.944677,4.39146597 Z M175.595116,14.0682361 C174.814763,14.0682361 174.16772,13.8285838 173.653987,13.3492793 C173.140255,12.8699748 172.876886,12.2028346 172.86388,11.347859 L172.86388,6.02369226 L171.186121,6.02369226 L171.186121,4.39146597 L172.86388,4.39146597 L172.86388,1.47677617 L174.658692,1.47677617 L174.658692,4.39146597 L176.999751,4.39146597 L176.999751,6.02369226 L174.658692,6.02369226 L174.658692,10.764921 C174.658692,11.3996757 174.782248,11.8304021 175.02936,12.0571002 C175.276472,12.2837983 175.556098,12.3971473 175.868239,12.3971473 C176.011304,12.3971473 176.151117,12.3809546 176.287679,12.3485691 C176.424241,12.3161837 176.551048,12.2740826 176.668101,12.2222659 L177.233857,13.8156297 C176.765645,13.984034 176.219398,14.0682361 175.595116,14.0682361 Z M178.716528,0 L180.51134,0 L180.51134,4.39146597 L180.433305,5.71279202 L180.51134,5.71279202 C180.784464,5.24644165 181.203904,4.85781634 181.76966,4.54691609 C182.335416,4.23601585 182.923932,4.08056573 183.535208,4.08056573 C184.705738,4.08056573 185.606396,4.41413578 186.237181,5.08127589 C186.867966,5.748416 187.183359,6.69730946 187.183359,7.92795627 L187.183359,13.912786 L185.388547,13.912786 L185.388547,8.27771904 C185.388547,6.56776769 184.627703,5.71279202 183.106014,5.71279202 C182.377685,5.71279202 181.763157,6.01397663 181.26243,6.61634585 C180.761703,7.21871508 180.51134,7.92147918 180.51134,8.72463815 L180.51134,13.912786 L178.716528,13.912786 L178.716528,0 Z M193.582254,14.2236862 C192.177619,14.2236862 191.020095,13.7443817 190.109683,12.7857726 C189.199271,11.8271635 188.744065,10.615948 188.744065,9.15212598 C188.744065,7.70125817 189.186265,6.49328117 190.070666,5.52819499 C190.955066,4.56310881 192.086578,4.08056573 193.465201,4.08056573 C194.882843,4.08056573 196.011103,4.53720046 196.849983,5.45046993 C197.688863,6.3637394 198.108302,7.64296437 198.108302,9.28814484 L198.088793,9.48245749 L190.577895,9.48245749 C190.603907,10.4151582 190.916048,11.1665005 191.514319,11.7364843 C192.112589,12.3064681 192.827913,12.59146 193.66029,12.59146 C194.804808,12.59146 195.702214,12.0214762 196.352508,10.8815086 L197.952232,11.6587592 C197.523037,12.4619182 196.928018,13.0901958 196.167174,13.543592 C195.40633,13.9969881 194.54469,14.2236862 193.582254,14.2236862 Z M190.714457,8.00568133 L196.196437,8.00568133 C196.144414,7.34501831 195.874542,6.79770433 195.386821,6.3637394 C194.8991,5.92977448 194.245555,5.71279202 193.426184,5.71279202 C192.749878,5.71279202 192.167864,5.92005885 191.680144,6.33459251 C191.192423,6.74912617 190.870527,7.30615577 190.714457,8.00568133 Z" id="Combined-Shape"></path>
        </g>
    </g>
</svg>