<?xml version="1.0" encoding="UTF-8"?>
<svg width="270px" height="80px" viewBox="0 0 270 80" version="1.1" xmlns="http://www.w3.org/2000/svg" xmlns:xlink="http://www.w3.org/1999/xlink">
    <title>_UI Buttons /SVG /flutterRun</title>
    <g id="_UI-Buttons-/flutterRun" stroke="none" stroke-width="1" fill="none" fill-rule="evenodd">
        <g id="bg">
            <rect id="path-1" fill="#F1F4F8" fill-rule="nonzero" x="0" y="3.16384181" width="270" height="76.8361582" rx="38.4180791"></rect>
            <rect id="path-1" fill="#FFFFFF" x="0" y="0" width="270" height="76.8361582" rx="38.4180791"></rect>
        </g>
        <g id="UI-Elements/Logos/logo_OutlineF" transform="translate(31.000000, 18.000000)" fill="#4B39EF">
            <path d="M36.6659972,0 C37.9007585,0 39.0437538,0.651222192 39.6228174,1.70985103 C40.1776348,2.72386588 40.1540882,3.91878585 39.5612988,4.91060803 L39.5411016,4.94396277 L34.3454688,13.4149191 C33.7579148,14.3728012 32.6972402,14.9706631 31.5635502,14.9834096 L31.5265566,14.9836176 L25.5935133,14.9835739 L28.0594918,20.4859107 L28.0693227,20.5020421 L28.0844888,20.5280249 C28.6652218,21.5510424 28.6510716,22.7673408 28.0488091,23.7751206 L28.0285159,23.8086354 L22.8328831,32.2795918 C22.2453365,33.2374617 21.1846689,33.8353356 20.051043,33.8480823 L20.0140516,33.8482903 L12.7319471,33.8482474 L7.49697966,39.2296593 L7.48707521,39.2396547 C6.99445245,39.7277286 6.32885726,40 5.63490262,40 C5.46142693,40 5.28783899,39.9828984 5.11611266,39.9487799 C4.26960529,39.7803474 3.56629302,39.2142246 3.22774937,38.4334237 L3.21819936,38.411134 L0.463282939,32.2474227 L0.448791123,32.2238 L0.433738983,32.1983535 C0.431238749,32.1940271 0.428695889,32.1895781 0.426040122,32.1848862 C-0.154704726,31.1619503 -0.14063853,29.9456626 0.461547723,28.9378394 L0.481838411,28.9043231 L5.52106655,20.6883849 L1.80791216,12.4032648 L1.87595437,12.3694845 L1.87492464,12.3645044 C1.71781116,11.6024046 1.84428702,10.8076452 2.24777882,10.1115574 L2.27006215,10.0736876 L2.2906611,10.0396548 L7.48632503,1.56864769 C8.07394683,0.610825186 9.13466723,0.012954658 10.2682172,0 L10.305206,0 L36.6659972,0 Z M9.38470385,33.7838526 L3.86428982,33.7837838 L5.48568431,37.4393362 L5.48966912,37.4490448 C5.51654865,37.5145341 5.56002375,37.5503669 5.62473175,37.5633325 C5.68245239,37.5749389 5.72915156,37.5629906 5.77332037,37.5237611 L5.78104095,37.5164368 L9.38470385,33.7838526 Z M25.1658197,21.2162162 L8.47893515,21.2162162 C8.46050692,21.2162162 8.44208038,21.2168322 8.4236855,21.2180565 L8.4186314,21.2184222 L12.9940427,31.4189189 L20.0132244,31.4189189 C20.3017484,31.4189189 20.5796882,31.2683733 20.7377287,31.0265665 L20.7502779,31.0067617 L25.9534261,22.5306076 C26.1086606,22.2777682 26.1258245,21.9844101 26.0028282,21.7204189 C25.8610285,21.416007 25.5318669,21.2162162 25.1658197,21.2162162 Z M6.7443213,23.3108108 L2.61473109,30.0946556 C2.45040947,30.3646648 2.44088558,30.6808723 2.58803319,30.9591509 L2.60364138,30.9874502 L2.61195768,31.0013099 L2.62862586,31.0278771 L2.66165162,31.0757444 L2.69851974,31.1224951 L2.73379275,31.1617655 L2.73991188,31.1681284 L2.76376388,31.1916779 L2.78449078,31.2109017 C2.91439167,31.3258271 3.07497162,31.3959442 3.25208349,31.4139597 L3.29186989,31.4172707 L3.31490887,31.4184447 L3.34410059,31.4189189 L10.3507763,31.4189189 L6.7443213,23.3108108 Z M5.65842438,15 L7.472094,19.0540541 L7.50742497,19.0423142 C7.82063252,18.9401611 8.14810457,18.8847881 8.47916451,18.8797461 L8.52884908,18.8793677 L24.7038528,18.8793235 L22.9683998,15.0000693 L5.65842438,15 Z M36.6199091,2.36486486 L19.8734905,2.36486486 L24.4502845,12.5675676 L31.4669238,12.5675676 C31.7559763,12.5675676 32.0341632,12.416921 32.1922851,12.1749757 L32.2048405,12.1551596 L37.4083312,3.67916885 C37.5634948,3.42639307 37.5806485,3.13325482 37.457794,2.86949441 C37.3188714,2.57132909 37.0003436,2.37342213 36.643251,2.36513554 L36.6199091,2.36486486 Z M17.3098868,2.36486486 L10.3320407,2.36486486 C10.045088,2.36486486 9.76833518,2.51514504 9.6108999,2.7567147 L9.59839851,2.77650031 L4.40858192,11.2526545 C4.25364185,11.5056626 4.23651832,11.7994615 4.35937809,12.0637939 C4.49776352,12.3616798 4.81457642,12.5590344 5.16952656,12.5672977 L5.19272811,12.5675676 L21.8746406,12.5675676 L17.3098868,2.36486486 Z" id="logo_fill"></path>
        </g>
        <path d="M94.968,39.104 L108.588,39.104 L108.588,42.944 L99.018,42.944 L99.018,48.164 L107.628,48.164 L107.628,52.004 L99.018,52.004 L99.018,60.584 L94.968,60.584 L94.968,39.104 Z M111.228,60.584 L111.228,39.104 L115.158,39.104 L115.158,60.584 L111.228,60.584 Z M128.688,58.664 L128.448,58.664 C127.988,59.404 127.368,59.989 126.588,60.419 C125.808,60.849 124.918,61.064 123.918,61.064 C122.058,61.064 120.673,60.494 119.763,59.354 C118.853,58.214 118.398,56.694 118.398,54.794 L118.398,45.884 L122.328,45.884 L122.328,54.314 C122.328,55.374 122.563,56.159 123.033,56.669 C123.503,57.179 124.188,57.434 125.088,57.434 C125.628,57.434 126.103,57.319 126.513,57.089 C126.923,56.859 127.273,56.549 127.563,56.159 C127.853,55.769 128.073,55.309 128.223,54.779 C128.373,54.249 128.448,53.684 128.448,53.084 L128.448,45.884 L132.378,45.884 L132.378,60.584 L128.688,60.584 L128.688,58.664 Z M141.288,54.944 C141.288,55.284 141.323,55.599 141.393,55.889 C141.463,56.179 141.598,56.424 141.798,56.624 C142.078,56.944 142.478,57.104 142.998,57.104 C143.278,57.104 143.518,57.074 143.718,57.014 C143.918,56.954 144.138,56.874 144.378,56.774 L144.648,60.464 C144.248,60.604 143.873,60.699 143.523,60.749 C143.173,60.799 142.748,60.824 142.248,60.824 C141.508,60.824 140.843,60.709 140.253,60.479 C139.663,60.249 139.168,59.934 138.768,59.534 C137.828,58.634 137.358,57.354 137.358,55.694 L137.358,49.244 L134.778,49.244 L134.778,45.884 L137.358,45.884 L137.358,41.384 L141.288,41.384 L141.288,45.884 L146.928,45.884 L146.928,41.384 L150.858,41.384 L150.858,45.884 L154.458,45.884 L154.458,49.244 L150.858,49.244 L150.858,54.944 C150.858,55.284 150.893,55.599 150.963,55.889 C151.033,56.179 151.168,56.424 151.368,56.624 C151.648,56.944 152.048,57.104 152.568,57.104 C152.908,57.104 153.178,57.069 153.378,56.999 C153.578,56.929 153.768,56.834 153.948,56.714 L155.058,60.164 C154.598,60.384 154.103,60.549 153.573,60.659 C153.043,60.769 152.458,60.824 151.818,60.824 C151.078,60.824 150.413,60.709 149.823,60.479 C149.233,60.249 148.738,59.934 148.338,59.534 C147.398,58.634 146.928,57.354 146.928,55.694 L146.928,49.244 L141.288,49.244 L141.288,54.944 Z M171.258,57.044 C170.578,58.244 169.663,59.214 168.513,59.954 C167.363,60.694 165.958,61.064 164.298,61.064 C163.178,61.064 162.143,60.869 161.193,60.479 C160.243,60.089 159.418,59.544 158.718,58.844 C158.018,58.144 157.473,57.319 157.083,56.369 C156.693,55.419 156.498,54.374 156.498,53.234 C156.498,52.174 156.688,51.169 157.068,50.219 C157.448,49.269 157.978,48.439 158.658,47.729 C159.338,47.019 160.143,46.454 161.073,46.034 C162.003,45.614 163.028,45.404 164.148,45.404 C165.328,45.404 166.378,45.599 167.298,45.989 C168.218,46.379 168.988,46.919 169.608,47.609 C170.228,48.299 170.698,49.114 171.018,50.054 C171.338,50.994 171.498,52.014 171.498,53.114 C171.498,53.254 171.498,53.374 171.498,53.474 C171.478,53.594 171.468,53.704 171.468,53.804 C171.448,53.904 171.438,54.014 171.438,54.134 L160.368,54.134 C160.448,54.734 160.613,55.249 160.863,55.679 C161.113,56.109 161.423,56.469 161.793,56.759 C162.163,57.049 162.568,57.259 163.008,57.389 C163.448,57.519 163.898,57.584 164.358,57.584 C165.258,57.584 166.003,57.379 166.593,56.969 C167.183,56.559 167.648,56.044 167.988,55.424 L171.258,57.044 Z M167.688,51.344 C167.668,51.084 167.583,50.794 167.433,50.474 C167.283,50.154 167.063,49.854 166.773,49.574 C166.483,49.294 166.123,49.064 165.693,48.884 C165.263,48.704 164.748,48.614 164.148,48.614 C163.308,48.614 162.568,48.854 161.928,49.334 C161.288,49.814 160.838,50.484 160.578,51.344 L167.688,51.344 Z M177.708,47.924 L177.948,47.924 C178.348,47.184 178.933,46.589 179.703,46.139 C180.473,45.689 181.328,45.464 182.268,45.464 C182.608,45.464 182.878,45.474 183.078,45.494 C183.278,45.514 183.468,45.554 183.648,45.614 L183.648,49.514 C183.428,49.414 183.183,49.334 182.913,49.274 C182.643,49.214 182.318,49.184 181.938,49.184 C180.698,49.184 179.723,49.559 179.013,50.309 C178.303,51.059 177.948,52.084 177.948,53.384 L177.948,60.584 L174.018,60.584 L174.018,45.884 L177.708,45.884 L177.708,47.924 Z M193.638,38.864 C194.198,38.864 194.718,38.914 195.198,39.014 C195.678,39.114 196.108,39.244 196.488,39.404 L195.378,42.914 C195.178,42.814 194.963,42.734 194.733,42.674 C194.503,42.614 194.218,42.584 193.878,42.584 C193.298,42.584 192.838,42.769 192.498,43.139 C192.158,43.509 191.988,44.024 191.988,44.684 L191.988,45.884 L195.648,45.884 L195.648,49.244 L191.988,49.244 L191.988,60.584 L188.058,60.584 L188.058,49.244 L185.418,49.244 L185.418,45.884 L188.058,45.884 L188.058,44.444 C188.058,43.544 188.193,42.749 188.463,42.059 C188.733,41.369 189.118,40.789 189.618,40.319 C190.118,39.849 190.708,39.489 191.388,39.239 C192.068,38.989 192.818,38.864 193.638,38.864 Z M198.288,60.584 L198.288,39.104 L202.218,39.104 L202.218,60.584 L198.288,60.584 Z M212.538,45.404 C213.678,45.404 214.723,45.599 215.673,45.989 C216.623,46.379 217.443,46.919 218.133,47.609 C218.823,48.299 219.363,49.124 219.753,50.084 C220.143,51.044 220.338,52.094 220.338,53.234 C220.338,54.374 220.143,55.424 219.753,56.384 C219.363,57.344 218.823,58.169 218.133,58.859 C217.443,59.549 216.623,60.089 215.673,60.479 C214.723,60.869 213.678,61.064 212.538,61.064 C211.398,61.064 210.353,60.869 209.403,60.479 C208.453,60.089 207.633,59.549 206.943,58.859 C206.253,58.169 205.713,57.344 205.323,56.384 C204.933,55.424 204.738,54.374 204.738,53.234 C204.738,52.094 204.933,51.044 205.323,50.084 C205.713,49.124 206.253,48.299 206.943,47.609 C207.633,46.919 208.453,46.379 209.403,45.989 C210.353,45.599 211.398,45.404 212.538,45.404 Z M212.538,57.434 C213.038,57.434 213.523,57.339 213.993,57.149 C214.463,56.959 214.878,56.684 215.238,56.324 C215.598,55.964 215.883,55.524 216.093,55.004 C216.303,54.484 216.408,53.894 216.408,53.234 C216.408,52.574 216.303,51.984 216.093,51.464 C215.883,50.944 215.598,50.504 215.238,50.144 C214.878,49.784 214.463,49.509 213.993,49.319 C213.523,49.129 213.038,49.034 212.538,49.034 C212.018,49.034 211.528,49.129 211.068,49.319 C210.608,49.509 210.198,49.784 209.838,50.144 C209.478,50.504 209.193,50.944 208.983,51.464 C208.773,51.984 208.668,52.574 208.668,53.234 C208.668,53.894 208.773,54.484 208.983,55.004 C209.193,55.524 209.478,55.964 209.838,56.324 C210.198,56.684 210.608,56.959 211.068,57.149 C211.528,57.339 212.018,57.434 212.538,57.434 Z M221.298,45.884 L225.708,45.884 L228.138,55.094 L228.348,55.094 L231.258,45.884 L235.308,45.884 L238.248,55.094 L238.458,55.094 L240.858,45.884 L245.208,45.884 L240.498,60.584 L236.268,60.584 L233.328,51.314 L233.118,51.314 L230.178,60.584 L226.008,60.584 L221.298,45.884 Z M98.568,27.584 L97.032,27.584 L93,16.128 L94.632,16.128 L97.768,25.424 L97.832,25.424 L101.096,16.128 L102.728,16.128 L98.568,27.584 Z M105.72,17.04 C105.72,17.328 105.618667,17.5733333 105.416,17.776 C105.213333,17.9786667 104.968,18.08 104.68,18.08 C104.392,18.08 104.146667,17.9786667 103.944,17.776 C103.741333,17.5733333 103.64,17.328 103.64,17.04 C103.64,16.752 103.741333,16.5066667 103.944,16.304 C104.146667,16.1013333 104.392,16 104.68,16 C104.968,16 105.213333,16.1013333 105.416,16.304 C105.618667,16.5066667 105.72,16.752 105.72,17.04 Z M105.416,19.744 L105.416,27.584 L103.944,27.584 L103.944,19.744 L105.416,19.744 Z M110.856,27.84 C109.704,27.84 108.754667,27.4453333 108.008,26.656 C107.261333,25.8666667 106.888,24.8693333 106.888,23.664 C106.888,22.4693333 107.250667,21.4746667 107.976,20.68 C108.701333,19.8853333 109.629333,19.488 110.76,19.488 C111.922667,19.488 112.848,19.864 113.536,20.616 C114.224,21.368 114.568,22.4213333 114.568,23.776 L114.552,23.936 L108.392,23.936 C108.413333,24.704 108.669333,25.3226667 109.16,25.792 C109.650667,26.2613333 110.237333,26.496 110.92,26.496 C111.858667,26.496 112.594667,26.0266667 113.128,25.088 L114.44,25.728 C114.088,26.3893333 113.6,26.9066667 112.976,27.28 C112.352,27.6533333 111.645333,27.84 110.856,27.84 Z M108.504,22.72 L113,22.72 C112.957333,22.176 112.736,21.7253333 112.336,21.368 C111.936,21.0106667 111.4,20.832 110.728,20.832 C110.173333,20.832 109.696,21.0026667 109.296,21.344 C108.896,21.6853333 108.632,22.144 108.504,22.72 Z M127.016,19.744 L124.488,27.584 L122.984,27.584 L121.032,21.568 L119.096,27.584 L117.608,27.584 L115.08,19.744 L116.616,19.744 L118.36,25.664 L118.376,25.664 L120.312,19.744 L121.832,19.744 L123.768,25.664 L123.784,25.664 L125.512,19.744 L127.016,19.744 Z M131.048,23.664 C131.048,22.4586667 131.426667,21.4613333 132.184,20.672 C132.952,19.8826667 133.917333,19.488 135.08,19.488 C136.242667,19.488 137.202667,19.8826667 137.96,20.672 C138.728,21.4613333 139.112,22.4586667 139.112,23.664 C139.112,24.88 138.728,25.8773333 137.96,26.656 C137.202667,27.4453333 136.242667,27.84 135.08,27.84 C133.917333,27.84 132.952,27.4453333 132.184,26.656 C131.426667,25.8666667 131.048,24.8693333 131.048,23.664 Z M132.52,23.664 C132.52,24.5066667 132.765333,25.1893333 133.256,25.712 C133.746667,26.2346667 134.354667,26.496 135.08,26.496 C135.805333,26.496 136.413333,26.2346667 136.904,25.712 C137.394667,25.1893333 137.64,24.5066667 137.64,23.664 C137.64,22.832 137.394667,22.1546667 136.904,21.632 C136.402667,21.0986667 135.794667,20.832 135.08,20.832 C134.365333,20.832 133.757333,21.0986667 133.256,21.632 C132.765333,22.1546667 132.52,22.832 132.52,23.664 Z M140.456,19.744 L141.864,19.744 L141.864,20.832 L141.928,20.832 C142.152,20.448 142.496,20.128 142.96,19.872 C143.424,19.616 143.906667,19.488 144.408,19.488 C145.368,19.488 146.106667,19.7626667 146.624,20.312 C147.141333,20.8613333 147.4,21.6426667 147.4,22.656 L147.4,27.584 L145.928,27.584 L145.928,22.752 C145.896,21.472 145.250667,20.832 143.992,20.832 C143.405333,20.832 142.914667,21.0693333 142.52,21.544 C142.125333,22.0186667 141.928,22.5866667 141.928,23.248 L141.928,27.584 L140.456,27.584 L140.456,19.744 Z" id="Combined-Shape" fill="#101213"></path>
    </g>
</svg>