<?xml version="1.0" encoding="UTF-8"?>
<svg width="200px" height="51px" viewBox="0 0 200 51" version="1.1" xmlns="http://www.w3.org/2000/svg" xmlns:xlink="http://www.w3.org/1999/xlink">
    <title>google_io</title>
    <g id="webDesign" stroke="none" stroke-width="1" fill="none" fill-rule="evenodd">
        <g id="2.0_web_aboutUS" transform="translate(-210.000000, -673.000000)">
            <g id="google_io" transform="translate(210.000000, 673.900375)">
                <g id="google-2015" transform="translate(0.000000, 7.522248)" fill="#FFFFFF">
                    <path d="M92.3651783,12.4732006 C93.2056397,12.8419734 93.895249,13.4710566 94.5633081,14.1001398 C94.5848584,13.5144417 94.5633081,12.907051 94.5848584,12.2996604 C96.0287279,12.3213529 97.4725975,12.2996604 98.9380173,12.3213529 L98.9380173,31.4541579 C98.916467,34.3392635 98.1837571,37.3979092 96.1149291,39.5020839 C93.8521484,41.8231838 90.3825514,42.539037 87.2577591,42.0618015 C83.9174639,41.5628735 81.0081744,39.1116185 79.7151569,36.0095877 C81.0081744,35.3805046 82.3658428,34.8815765 83.7019609,34.2958784 C84.4562212,36.0746653 85.9862919,37.5931419 87.9042679,37.9402222 C89.8222438,38.2873026 92.0419239,37.8100671 93.2918408,36.2048204 C94.6279589,34.5561887 94.6279589,32.3001663 94.5633081,30.2827617 C93.5719946,31.2589252 92.4298292,32.1266261 91.0506105,32.452014 C88.0551199,33.2980224 84.7579252,32.2567813 82.452044,30.2176841 C80.1246125,28.178587 78.7453938,25.0331712 78.8746955,21.9094479 C78.9393464,18.3735667 80.9219733,14.9678407 83.9174639,13.1239762 C86.3957474,11.5621146 89.6929421,11.1282642 92.3651783,12.4732006 Z M49.9757541,13.6445968 C52.109233,15.1630734 53.5962031,17.5492509 54.0487592,20.1523536 C54.6306171,23.1676143 53.8979072,26.4648777 51.9583809,28.8510552 C49.8680026,31.5192355 46.4415062,32.950942 43.1012109,32.7340168 C40.0410695,32.5604766 37.0671292,31.0203075 35.2569047,28.5039749 C33.209627,25.7273319 32.7139702,21.9094479 33.8345854,18.6555695 C34.9552006,15.1630734 38.1230935,12.4948931 41.700442,11.8658099 C44.5450805,11.3234969 47.6267723,11.9308875 49.9757541,13.6445968 Z M16.9607068,0 C20.9259606,0.0867700909 24.8265634,1.69201677 27.6281013,4.53373725 C26.5936873,5.59667086 25.537723,6.61621943 24.5248593,7.67915304 C22.951688,6.24744654 21.0552623,5.14112788 18.9864343,4.75066248 C15.9262928,4.09988679 12.6290982,4.68558491 10.0646134,6.44267925 C7.26307547,8.28654368 5.36664978,11.4102669 4.95719424,14.7509154 C4.50463811,18.0481789 5.43130066,21.5189825 7.56477956,24.0787002 C9.61205729,26.5733403 12.7368496,28.135202 15.9693934,28.2436646 C18.9864343,28.4172048 22.1327769,27.4844263 24.3309067,25.3585591 C26.05493,23.861775 26.8522908,21.5840601 27.1108943,19.3714228 L19.9561974,19.3810639 C18.7637479,19.3810639 17.5712984,19.3786536 16.378849,19.3714228 L16.378849,14.9027631 L31.442503,14.9027631 C32.2183135,19.6968106 31.0976983,25.0982488 27.4772493,28.5256674 C25.0636166,30.9552299 21.7233214,32.3869364 18.3183752,32.6689392 C15.0211806,32.9943271 11.6162344,32.3652439 8.68539474,30.7599972 C5.17269716,28.8727477 2.37115921,25.6839469 0.991940524,21.9311405 C-0.301076992,18.4820294 -0.322627284,14.5773753 0.884189064,11.1065716 C1.98325395,7.93946331 4.09518256,5.14112788 6.81051934,3.18880084 C9.41810467,1.25816632 12.5859976,0.195232704 15.8185414,0 L16.9607068,0 Z M73.7888266,14.4472201 C77.7540804,18.0264864 78.1850862,24.7294759 74.8016904,28.8510552 C72.7544126,31.4541579 69.4356677,32.8858644 66.1600233,32.7340168 C63.035231,32.6472467 59.9535392,31.0853851 58.1002141,28.5039749 C56.0098358,25.6622544 55.5572797,21.7576003 56.7425457,18.4386443 C57.9278118,15.0546108 61.0310538,12.4732006 64.5437514,11.8658099 C67.7978455,11.2367268 71.3536437,12.1478127 73.7888266,14.4472201 Z M122.276983,12.2562753 C125.423326,13.4493641 127.427503,16.4646247 128.440367,19.5666555 C123.763954,21.5189825 119.109091,23.4496171 114.432677,25.4019441 C115.079186,26.6384179 116.070499,27.7664291 117.406618,28.2219721 C119.281493,28.8944403 121.522723,28.6558225 123.095895,27.3976562 C123.720853,26.9204207 124.21651,26.2913375 124.690616,25.6839469 C125.875882,26.4865702 127.061148,27.2675011 128.246414,28.0701244 C126.565492,30.6081496 123.742403,32.3869364 120.703812,32.6689392 C117.341967,33.0810971 113.764618,31.7795458 111.588039,29.133058 C108.01069,24.9680936 108.355495,17.9831013 112.385399,14.2302949 C114.971435,11.8007324 118.958239,10.9764165 122.276983,12.2562753 Z M106.846974,1.12801118 L106.846974,32.1049336 C105.316904,32.1049336 103.765283,32.1266261 102.235212,32.0832411 C102.256762,21.7792928 102.235212,11.453652 102.235212,1.12801118 L106.846974,1.12801118 Z M88.3783743,15.9006192 C87.0638065,16.1175444 85.8354398,16.8550902 84.9949785,17.8746387 C82.969251,20.3042013 82.969251,24.1871628 85.0165287,26.5733403 C86.1802445,27.9833543 88.0551199,28.7642851 89.8653444,28.5690524 C91.5678175,28.3955122 93.1409888,27.3108861 93.9814502,25.814102 C95.4037695,23.2760769 95.1667162,19.8269658 93.2487403,17.6143284 C92.0634742,16.2476995 90.1670485,15.5752313 88.3783743,15.9006192 Z M65.1902602,15.9873892 C64.0265444,16.2910846 62.9490298,16.9635528 62.1732193,17.8963312 C60.1043913,20.3692788 60.1905924,24.4040881 62.4102725,26.768573 C63.7248403,28.178587 65.7721181,28.8727477 67.6685437,28.4822823 C69.3494665,28.1568945 70.8579869,27.0288833 71.676898,25.5104067 C73.077667,22.907304 72.6682115,19.3497303 70.4700817,17.3323257 C69.0693127,16.0307743 67.022035,15.5101537 65.1902602,15.9873892 Z M42.3469507,15.9873892 C41.183235,16.2910846 40.1057204,16.9635528 39.3299099,17.9180238 C37.2395315,20.4343564 37.3688333,24.5342432 39.6747145,26.8770356 C40.9892823,28.2219721 42.9719092,28.8510552 44.803684,28.4822823 C46.5061571,28.178587 47.9931272,27.0288833 48.8120383,25.5104067 C50.2343576,22.9289965 49.824902,19.3714228 47.6483225,17.3540182 C46.2475536,16.0524668 44.2002758,15.5101537 42.3469507,15.9873892 Z M114.691281,18.2434116 C113.958571,19.3063452 113.656867,20.6078966 113.678417,21.8877554 C116.803209,20.5862041 119.928002,19.2846527 123.052794,17.9614088 C122.535587,16.7466275 121.28567,16.0090818 120.014203,15.8138491 C117.966925,15.4450762 115.833446,16.5513948 114.691281,18.2434116 Z" id="Combined-Shape"></path>
                </g>
                <rect id="Rectangle" fill="#3780FF" x="141.284404" y="9.35711074" width="16.5137615" height="31.1926606"></rect>
                <circle id="Oval" fill="#3780FF" cx="184.40367" cy="24.953441" r="15.5963303"></circle>
                <polygon id="Line" fill="#F1F4F8" fill-rule="nonzero" points="169.037127 0 170.825001 0.412586251 159.40324 49.906882 157.615366 49.4942958"></polygon>
            </g>
        </g>
    </g>
</svg>