<?xml version="1.0" encoding="UTF-8"?>
<svg width="120px" height="37px" viewBox="0 0 120 37" version="1.1" xmlns="http://www.w3.org/2000/svg" xmlns:xlink="http://www.w3.org/1999/xlink">
    <title>UI Elements /SVG /googleCloud</title>
    <g id="Symbols" stroke="none" stroke-width="1" fill="none" fill-rule="evenodd">
        <g id="UI-Navs/footer" transform="translate(-349.000000, -135.000000)">
            <g id="UI-Elements-/googleCloud" transform="translate(349.000000, 135.000000)">
                <rect id="bg" fill="#FFFFFF" x="0" y="0" width="120" height="36.5327696" rx="12"></rect>
                <g id="googleCloud" transform="translate(5.916280, 9.606433)">
                    <path d="M18.1615297,2.38192191 C19.4673225,3.46090711 20.3080836,4.85118196 20.8504938,6.43376124 C20.9565403,6.74352868 21.1034325,6.97794728 21.3680414,7.18801071 C23.5422485,8.91367667 24.4243627,11.7442052 23.6368786,14.3915625 C22.84635,17.0500826 20.6064346,18.9315202 17.8043204,19.1803997 C15.8518469,19.3536767 13.8892253,19.2770593 11.9306629,19.2093215 C11.9286333,17.824628 11.9266037,16.4396809 11.9245741,15.0547338 C13.5690562,15.0476302 15.2132845,15.0402729 16.8577665,15.0336767 C17.1949335,15.0324082 17.5315932,15.0316471 17.8598807,14.9334653 C19.0000075,14.5924927 19.7507052,13.547757 19.7047855,12.3612031 C19.6583585,11.1650086 18.8140456,10.1834441 17.5929885,9.93735532 C17.3347221,9.88534686 17.1076608,9.90386695 17.1188236,9.52280986 C17.1688025,7.80678449 16.4521006,6.42970204 15.1947644,5.30378238 C16.1836862,4.32982889 17.172608,3.3558754 18.1615297,2.38192191" id="Fill-4" fill="#4587F2"></path>
                    <path d="M2.6772422,17.8378458 C-0.732229257,15.3429621 -0.917683802,10.1134483 2.30734791,7.37907202 C2.51614284,7.20198957 2.73153396,7.03277181 2.94388068,6.86025595 C2.97813015,6.81991769 3.01212592,6.77932572 3.04612169,6.73898745 C3.04612169,6.73898745 3.0354663,6.74431515 3.0354663,6.74431515 C4.66193565,5.86372318 6.37491662,5.4829198 8.21728449,5.8474864 C9.62582571,6.1973384 10.8288701,6.88664073 11.8195678,7.95877604 C12.1169039,8.28097477 12.10498,8.4811439 11.7896312,8.77924115 C11.0229504,9.50406145 10.2752972,10.2504462 9.55098427,11.017127 C9.24299273,11.3433849 9.10853184,11.3476978 8.82337328,10.9646111 C7.7149589,9.47590077 5.58641768,9.55632361 4.5944515,11.0896851 C3.75216821,12.3919261 4.18675594,13.8697274 5.69829928,14.8429198 C4.69136482,15.8412285 3.68417666,16.8395371 2.6772422,17.8378458" id="Fill-6" fill="#FABC07"></path>
                    <path d="M8.21705616,5.84741029 C6.37494199,5.48284369 4.66196102,5.86364707 3.03549167,6.74423904 C3.25367349,5.48030669 3.91278554,4.43303396 4.69189759,3.45654348 C7.98948744,-0.677494577 14.4418342,-1.18743115 18.1615805,2.38212487 C17.1726587,3.35582466 16.1837369,4.32977815 15.1948151,5.30373164 C14.9449208,5.14669147 14.7008617,4.97950331 14.4443712,4.83438703 C12.3987898,3.67726229 9.68014284,4.12123692 8.21705616,5.84741029" id="Fill-8" fill="#E94436"></path>
                    <path d="M2.6772422,17.8378458 C3.68417666,16.8395371 4.69136482,15.8412285 5.69829928,14.8429198 C6.20341556,15.0103617 6.72248533,15.0499388 7.25246419,15.0476555 C8.80992719,15.041313 10.3671365,15.0512073 11.9245995,15.0547591 C11.9266291,16.4397063 11.9286587,17.8246534 11.9306883,19.2093469 C9.68848956,19.1768733 7.43614284,19.4191566 5.20688279,19.0401291 C4.26717878,18.8802982 3.41855298,18.4528141 2.6772422,17.8378458" id="Fill-10" fill="#35A853"></path>
                </g>
                <path d="M45.0801945,11.4836702 C45.0801945,12.4281945 44.8001099,13.1804144 44.2396871,13.7408372 C43.6100042,14.4083214 42.7819281,14.7421903 41.7557125,14.7421903 C40.7733869,14.7421903 39.9422664,14.4019789 39.2620973,13.7220634 C38.5821818,13.042148 38.2422241,12.204685 38.2422241,11.2096744 C38.2422241,10.2149175 38.5821818,9.37745455 39.2620973,8.69753911 C39.9422664,8.01736998 40.7733869,7.67741226 41.7557125,7.67741226 C42.2529641,7.67741226 42.722055,7.76569979 43.1629852,7.94176744 C43.6036617,8.11808879 43.9656913,8.36696829 44.249074,8.68789852 L43.6257336,9.3112389 C43.4179535,9.05956871 43.148778,8.86269767 42.8182072,8.72087949 C42.4876364,8.57931501 42.1334715,8.50827907 41.7557125,8.50827907 C41.0189683,8.50827907 40.3956279,8.76350106 39.8854376,9.27343763 C39.3818436,9.7897167 39.1299197,10.435129 39.1299197,11.2096744 C39.1299197,11.9842199 39.3818436,12.6298858 39.8854376,13.1459112 C40.3956279,13.6561015 41.0189683,13.9108161 41.7557125,13.9108161 C42.4292854,13.9108161 42.9897082,13.7220634 43.4367273,13.3443044 C43.8837463,12.9665455 44.1420127,12.4469683 44.2112727,11.7858266 L41.7557125,11.7858266 L41.7557125,10.9734799 L45.0330063,10.9734799 C45.0644651,11.150055 45.0801945,11.3197801 45.0801945,11.4836702 M46.5441691,12.2769894 C46.5441691,12.7744947 46.6890317,13.1776237 46.9785032,13.4861226 C47.2682283,13.7943679 47.6272135,13.9486173 48.0554588,13.9486173 C48.4834503,13.9486173 48.8424355,13.7943679 49.1321607,13.4861226 C49.4216321,13.1776237 49.5664947,12.7744947 49.5664947,12.2769894 C49.5664947,11.7858266 49.4216321,11.3859958 49.1321607,11.0772431 C48.836093,10.7626554 48.4771078,10.6051078 48.0554588,10.6051078 C47.6333023,10.6051078 47.2745708,10.7626554 46.9785032,11.0772431 C46.6890317,11.3859958 46.5441691,11.7858266 46.5441691,12.2769894 M45.6752474,12.2769894 C45.6752474,11.5653615 45.8987569,10.976778 46.3457759,10.5107315 C46.7991374,10.0449387 47.3689471,9.81178858 48.0554588,9.81178858 C48.7417167,9.81178858 49.3082283,10.0449387 49.7555011,10.5107315 C50.2088626,10.976778 50.4354165,11.5653615 50.4354165,12.2769894 C50.4354165,12.9947061 50.2088626,13.5835433 49.7555011,14.0432474 C49.3082283,14.5092939 48.7417167,14.7421903 48.0554588,14.7421903 C47.3689471,14.7421903 46.7991374,14.5092939 46.3457759,14.0432474 C45.8987569,13.5772008 45.6752474,12.9886173 45.6752474,12.2769894 M51.8332008,12.2769894 C51.8332008,12.7744947 51.9780634,13.1776237 52.2675349,13.4861226 C52.55726,13.7943679 52.9162452,13.9486173 53.3444905,13.9486173 C53.772482,13.9486173 54.1314672,13.7943679 54.4211924,13.4861226 C54.7106638,13.1776237 54.8555264,12.7744947 54.8555264,12.2769894 C54.8555264,11.7858266 54.7106638,11.3859958 54.4211924,11.0772431 C54.1251247,10.7626554 53.7661395,10.6051078 53.3444905,10.6051078 C52.922334,10.6051078 52.5636025,10.7626554 52.2675349,11.0772431 C51.9780634,11.3859958 51.8332008,11.7858266 51.8332008,12.2769894 M50.9642791,12.2769894 C50.9642791,11.5653615 51.1877886,10.976778 51.6348076,10.5107315 C52.0881691,10.0449387 52.6579789,9.81178858 53.3444905,9.81178858 C54.0307484,9.81178858 54.59726,10.0449387 55.0445328,10.5107315 C55.4978943,10.976778 55.7244482,11.5653615 55.7244482,12.2769894 C55.7244482,12.9947061 55.4978943,13.5835433 55.0445328,14.0432474 C54.59726,14.5092939 54.0307484,14.7421903 53.3444905,14.7421903 C52.6579789,14.7421903 52.0881691,14.5092939 51.6348076,14.0432474 C51.1877886,13.5772008 50.9642791,12.9886173 50.9642791,12.2769894 M58.5956448,13.948592 C59.0236364,13.948592 59.3732347,13.7945962 59.6439323,13.4860973 C59.9275687,13.1775983 60.0691332,12.7744693 60.0691332,12.2769641 C60.0691332,11.7921438 59.9275687,11.3925666 59.6439323,11.0774715 C59.3668922,10.76263 59.0175476,10.6050825 58.5956448,10.6050825 C58.1800846,10.6050825 57.8304863,10.76263 57.5473573,11.0774715 C57.2639746,11.3925666 57.1221564,11.7921438 57.1221564,12.2769641 C57.1221564,12.7681268 57.2639746,13.1679577 57.5473573,13.4764567 C57.8304863,13.7915518 58.1800846,13.948592 58.5956448,13.948592 M58.5672304,16.7821649 C58.3092178,16.7821649 58.0669345,16.7491839 57.8401268,16.6829683 C57.6133192,16.6170063 57.4070613,16.5238985 57.2213531,16.4044059 C57.0356448,16.2846596 56.8768288,16.1428414 56.7443975,15.9794588 C56.6122199,15.815315 56.5115011,15.6331586 56.442241,15.4317209 L57.2639746,15.0915095 C57.358351,15.3622072 57.5219873,15.5793742 57.7551374,15.7432643 C57.9877801,15.9069006 58.2587315,15.9888457 58.5672304,15.9888457 C59.0396195,15.9888457 59.4079915,15.8470275 59.6723467,15.5636448 C59.9369556,15.2805159 60.0691332,14.8900719 60.0691332,14.3925666 L60.0691332,13.948592 L60.0313319,13.948592 C59.8674419,14.1944271 59.6454545,14.3877463 59.36537,14.5295645 C59.0852854,14.6713827 58.7813531,14.7421649 58.4540803,14.7421649 C57.8495137,14.7421649 57.3301903,14.5059704 56.8956025,14.0338351 C56.4673573,13.5490148 56.2534884,12.963222 56.2534884,12.2769641 C56.2534884,11.5907061 56.4673573,11.0082114 56.8956025,10.5294799 C57.3301903,10.0512558 57.8495137,9.81176321 58.4540803,9.81176321 C58.7813531,9.81176321 59.0852854,9.88279915 59.36537,10.0243636 C59.6454545,10.1661818 59.8674419,10.3597548 60.0313319,10.6050825 L60.0691332,10.6050825 L60.0691332,9.96296829 L60.9002537,9.96296829 L60.9002537,14.3925666 C60.9002537,15.1356533 60.6891755,15.718148 60.2672727,16.1400507 C59.8390275,16.5680423 59.2725159,16.7821649 58.5672304,16.7821649 M61.958055,14.5910359 L62.8269767,14.5910359 L62.8269767,7.82866808 L61.958055,7.82866808 L61.958055,14.5910359 Z M64.5269937,11.7197886 L67.1809471,11.7197886 C67.1558309,11.3986047 67.0251755,11.1327273 66.7892347,10.921649 C66.5530402,10.7105708 66.2364228,10.6050317 65.8398901,10.6050317 C65.5123636,10.6050317 65.2307569,10.7060042 64.9945624,10.9074419 C64.7583679,11.1091332 64.6025962,11.3795772 64.5269937,11.7197886 M65.9154926,14.7421142 C65.2353235,14.7421142 64.6749006,14.5092178 64.2342241,14.0431712 C63.7932939,13.5771247 63.5730825,12.9885412 63.5730825,12.2769133 C63.5730825,11.5718816 63.7872051,10.9848203 64.2151966,10.5154757 C64.6434419,10.0463848 65.1911797,9.81171247 65.8589175,9.81171247 C66.5449218,9.81171247 67.0913911,10.0336998 67.4973108,10.4776744 C67.9034841,10.921649 68.1066977,11.5437209 68.1066977,12.343129 L68.0970571,12.4375053 L64.4610317,12.4375053 C64.473463,12.8908668 64.6246681,13.2561945 64.9141395,13.532981 C65.2038647,13.8102748 65.5501649,13.9485412 65.9532939,13.9485412 C66.5071205,13.9485412 66.9417082,13.6715011 67.2565497,13.1176744 L68.0310951,13.4954334 C67.823315,13.8858774 67.5351121,14.1910782 67.16674,14.4112896 C66.7986216,14.6320085 66.3812854,14.7421142 65.9154926,14.7421142 M74.1227315,14.7421395 C73.1216321,14.7421395 72.2841691,14.4052262 71.6105962,13.7316533 C70.9431121,13.0578266 70.6092431,12.2173192 70.6092431,11.2096237 C70.6092431,10.2021818 70.9431121,9.36497252 71.6105962,8.69748837 C72.2778266,8.01731924 73.1152896,7.67736152 74.1227315,7.67736152 C75.1428584,7.67736152 75.9709345,8.04547992 76.6067061,8.7824778 L75.9833658,9.3870444 C75.4982918,8.80125159 74.8785032,8.50848203 74.1227315,8.50848203 C73.3733023,8.50848203 72.7469175,8.76040592 72.2433235,9.264 C71.7458182,9.76150529 71.4971924,10.4102156 71.4971924,11.2096237 C71.4971924,12.0095391 71.7458182,12.6579958 72.2433235,13.1552474 C72.7469175,13.6590951 73.3733023,13.911019 74.1227315,13.911019 C74.9097082,13.911019 75.5929218,13.5804482 76.1721184,12.9190529 L76.8048457,13.5330063 C76.4839154,13.9173615 76.0904271,14.2146977 75.6246342,14.4257759 C75.158334,14.6366004 74.6577844,14.7421395 74.1227315,14.7421395 M77.5796195,14.5910359 L78.4485412,14.5910359 L78.4485412,7.82866808 L77.5796195,7.82866808 L77.5796195,14.5910359 Z M80.0636195,12.2769894 C80.0636195,12.7744947 80.2082283,13.1776237 80.4979535,13.4861226 C80.7876786,13.7943679 81.1466638,13.9486173 81.5746554,13.9486173 C82.0029006,13.9486173 82.3618858,13.7943679 82.6513573,13.4861226 C82.9410825,13.1776237 83.085945,12.7744947 83.085945,12.2769894 C83.085945,11.7858266 82.9410825,11.3859958 82.6513573,11.0772431 C82.3552896,10.7626554 81.9963044,10.6051078 81.5746554,10.6051078 C81.1527526,10.6051078 80.7937674,10.7626554 80.4979535,11.0772431 C80.2082283,11.3859958 80.0636195,11.7858266 80.0636195,12.2769894 M79.194444,12.2769894 C79.194444,11.5653615 79.4179535,10.976778 79.8652262,10.5107315 C80.3185877,10.0449387 80.8883975,9.81178858 81.5746554,9.81178858 C82.2609133,9.81178858 82.8276786,10.0449387 83.2746977,10.5107315 C83.7280592,10.976778 83.9548668,11.5653615 83.9548668,12.2769894 C83.9548668,12.9947061 83.7280592,13.5835433 83.2746977,14.0432474 C82.8276786,14.5092939 82.2609133,14.7421903 81.5746554,14.7421903 C80.8883975,14.7421903 80.3185877,14.5092939 79.8652262,14.0432474 C79.4179535,13.5772008 79.194444,12.9886173 79.194444,12.2769894 M88.7622495,14.5910106 L87.931129,14.5910106 L87.931129,13.9486427 L87.8933277,13.9486427 C87.7611501,14.1751966 87.5581903,14.364203 87.2841945,14.515408 C87.0104524,14.6666131 86.7252939,14.7422156 86.4294799,14.7422156 C85.8627146,14.7422156 85.4268584,14.5801015 85.1211501,14.2556195 C84.8156956,13.9313911 84.663222,13.4701649 84.663222,12.8721945 L84.663222,9.96301903 L85.5323975,9.96301903 L85.5323975,12.8153658 C85.5511712,13.5708837 85.9319746,13.9486427 86.6748076,13.9486427 C87.0213615,13.9486427 87.310833,13.8086004 87.5437294,13.5285159 C87.7766258,13.2484313 87.8933277,12.9130402 87.8933277,12.5225962 L87.8933277,9.96301903 L88.7622495,9.96301903 L88.7622495,14.5910106 Z M91.851019,13.948592 C92.2790106,13.948592 92.6283552,13.7945962 92.8993066,13.4860973 C93.1826892,13.1775983 93.3245074,12.7744693 93.3245074,12.2769641 C93.3245074,11.7921438 93.1826892,11.3925666 92.8993066,11.0774715 C92.6220127,10.76263 92.2726681,10.6050825 91.851019,10.6050825 C91.4352051,10.6050825 91.0858605,10.76263 90.8024778,11.0774715 C90.5190951,11.3925666 90.3775307,11.7921438 90.3775307,12.2769641 C90.3775307,12.7681268 90.5190951,13.1679577 90.8024778,13.4764567 C91.0858605,13.7915518 91.4352051,13.948592 91.851019,13.948592 M91.7092008,14.7421649 C91.1048879,14.7421649 90.5853108,14.502926 90.1509767,14.0241945 C89.7224778,13.5396279 89.5086089,12.9571332 89.5086089,12.2769641 C89.5086089,11.5967949 89.7224778,11.0148076 90.1509767,10.5294799 C90.5853108,10.0512558 91.1048879,9.81176321 91.7092008,9.81176321 C92.0491586,9.81176321 92.3594334,9.88432135 92.639518,10.0291839 C92.9196025,10.1740465 93.1352474,10.3660973 93.2864524,10.6050825 L93.3245074,10.6050825 L93.2864524,9.96296829 L93.2864524,7.82859197 L94.1553742,7.82859197 L94.1553742,14.5909598 L93.3245074,14.5909598 L93.3245074,13.948592 L93.2864524,13.948592 C93.1352474,14.1880846 92.9196025,14.3801353 92.639518,14.5247442 C92.3594334,14.6696068 92.0491586,14.7421649 91.7092008,14.7421649 M41.391019,23.9238901 C41.8250994,23.9238901 42.1528795,23.8010994 42.3741057,23.5552643 C42.5953319,23.3094292 42.705945,23.0268076 42.705945,22.7073996 C42.705945,22.5518816 42.6793066,22.4001691 42.6260296,22.2527696 C42.5724989,22.10537 42.4908076,21.9762368 42.3801945,21.8656237 C42.2695814,21.7550106 42.1323298,21.6669767 41.9684397,21.6015222 C41.8045497,21.5360677 41.6122452,21.5030867 41.391019,21.5030867 L39.9286934,21.5030867 L39.9286934,23.9238901 L41.391019,23.9238901 Z M38.2700042,28.728203 L38.2700042,19.9304017 L41.3664101,19.9304017 C41.7842537,19.9304017 42.1754588,19.9978858 42.5400254,20.1331078 C42.9043383,20.2683298 43.2219704,20.4588584 43.4921607,20.7044397 C43.7626047,20.9500211 43.9754588,21.2432981 44.1312304,21.5830021 C44.2867484,21.9229598 44.3646342,22.2979281 44.3646342,22.7073996 C44.3646342,23.1252431 44.2867484,23.5042706 44.1312304,23.8439746 C43.9754588,24.1839323 43.7626047,24.4769556 43.4921607,24.722537 C43.2219704,24.9683721 42.9043383,25.1586469 42.5400254,25.2938689 C42.1754588,25.4290909 41.7842537,25.4965751 41.3664101,25.4965751 L39.9286934,25.4965751 L39.9286934,28.728203 L38.2700042,28.728203 Z M48.8128541,26.2829937 C48.6243552,26.1931839 48.4297674,26.1213869 48.2293446,26.0681099 C48.0284144,26.014833 47.8092178,25.9881945 47.5717548,25.9881945 C47.1866385,25.9881945 46.8898097,26.0724228 46.6810148,26.2401184 C46.4719662,26.4080677 46.3676956,26.6150867 46.3676956,26.8606681 C46.3676956,27.1062495 46.467907,27.3031205 46.6685835,27.4505201 C46.86926,27.5979197 47.1006342,27.6717463 47.3629598,27.6717463 C47.575814,27.6717463 47.7724313,27.6326765 47.9528118,27.5550444 C48.1329387,27.4771586 48.2864271,27.3749175 48.4135307,27.247814 C48.5403805,27.1209641 48.6388161,26.9733108 48.7083298,26.8053615 C48.7778436,26.6374123 48.8128541,26.4633742 48.8128541,26.2829937 L48.8128541,26.2829937 Z M48.8128541,28.0893362 L48.7146723,28.0893362 C48.5261734,28.3186808 48.2988584,28.5155518 48.0327273,28.6791882 C47.7663425,28.8430782 47.4243552,28.9250233 47.0065116,28.9250233 C46.695222,28.9250233 46.4024524,28.8737759 46.1279493,28.7715349 C45.8534461,28.6690402 45.6139535,28.5277294 45.4092178,28.3476025 C45.2042283,28.1674757 45.0443975,27.950055 44.9299789,27.6961015 C44.8150529,27.4424017 44.7579704,27.1638393 44.7579704,26.8606681 C44.7579704,26.5493784 44.8193658,26.2687865 44.9421564,26.0188922 C45.0652008,25.7692516 45.2372093,25.5541142 45.4581818,25.3737336 C45.679408,25.1936068 45.9394503,25.0563552 46.2385624,24.9622326 C46.5374207,24.8681099 46.8631712,24.8206681 47.2155603,24.8206681 C47.6085412,24.8206681 47.9322622,24.8513658 48.1862156,24.9130148 C48.4399154,24.9744101 48.6489641,25.0380888 48.8128541,25.1035433 L48.8128541,24.9191036 C48.8128541,24.5996956 48.6857505,24.3353404 48.4320507,24.1265455 C48.1780973,23.9177505 47.8624947,23.8132262 47.4857505,23.8132262 C46.9286258,23.8132262 46.457759,24.0468837 46.0726427,24.5136913 L44.90537,23.7150444 C45.5444397,22.9123383 46.4169133,22.5107315 47.5227907,22.5107315 C48.4566596,22.5107315 49.1693023,22.7299281 49.6607188,23.1683214 C50.152389,23.6064609 50.3979704,24.2556786 50.3979704,25.1157209 L50.3979704,28.7284059 L48.8128541,28.7284059 L48.8128541,28.0893362 Z M57.4019619,24.0836956 L56.3453023,24.0836956 L56.3453023,22.7073742 L57.4019619,22.7073742 L57.4019619,20.8642452 L59.0116871,20.8642452 L59.0116871,22.7073742 L60.4861903,22.7073742 L60.4861903,24.0836956 L59.0116871,24.0836956 L59.0116871,26.4895307 C59.0116871,26.6331247 59.0258943,26.7660634 59.0548161,26.8886004 C59.0832304,27.0108837 59.138537,27.1141395 59.220482,27.1986216 C59.3351543,27.3340973 59.4990444,27.4013277 59.7121522,27.4013277 C59.8511797,27.4013277 59.9617928,27.3871205 60.0439915,27.3581987 C60.1256829,27.3297844 60.2035687,27.2907146 60.2773953,27.2414968 L60.7320254,28.6548584 C60.5435264,28.7446681 60.3405666,28.8124059 60.123907,28.8573108 C59.90674,28.9022156 59.6669937,28.9250486 59.4049218,28.9250486 C59.1017505,28.9250486 58.829277,28.8768457 58.5877548,28.7809471 C58.3459789,28.6847949 58.1432727,28.552871 57.9793827,28.3856829 C57.5942664,28.0094461 57.4019619,27.4741395 57.4019619,26.7802706 L57.4019619,24.0836956 Z M53.1872474,23.6412431 L53.2854292,23.6412431 C53.4493192,23.3383256 53.6890655,23.0945201 54.0044144,22.9100803 C54.3197632,22.7256406 54.6698689,22.6335476 55.0549852,22.6335476 C55.1942664,22.6335476 55.3048795,22.6378605 55.3868245,22.6459789 C55.4685159,22.6540973 55.5466554,22.6705877 55.6202283,22.6949429 L55.6202283,24.2924905 C55.5301649,24.2516448 55.4299535,24.2186638 55.3193404,24.1943087 C55.2084736,24.1696998 55.0752812,24.1572685 54.9197632,24.1572685 C54.4118562,24.1572685 54.0125328,24.3110106 53.7217928,24.6179873 C53.4310529,24.9252178 53.2854292,25.3453446 53.2854292,25.8776068 L53.2854292,28.8266131 L51.6759577,28.8266131 L51.6759577,22.8058097 L53.1872474,22.8058097 L53.1872474,23.6412431 Z M63.2384271,23.4937928 L63.3366089,23.4937928 C63.5251078,23.1908753 63.7790613,22.951129 64.0984693,22.7750613 C64.4178774,22.5989937 64.782444,22.5107061 65.1921691,22.5107061 C65.5689133,22.5107061 65.9007526,22.5721015 66.1874334,22.6951459 C66.4741142,22.8179366 66.7098013,22.9919746 66.8939873,23.21726 C67.0784271,23.4427992 67.2174545,23.7129894 67.3118309,24.0280846 C67.4059535,24.3439408 67.4531416,24.6937928 67.4531416,25.0789091 L67.4531416,28.7283805 L65.8434165,28.7283805 L65.8434165,25.2755264 C65.8434165,24.8414461 65.7470106,24.5197548 65.5547061,24.3109598 C65.362148,24.1019112 65.081556,23.9973869 64.7129302,23.9973869 C64.491704,23.9973869 64.2971163,24.0448288 64.129167,24.1389514 C63.9612178,24.233074 63.8178774,24.3601776 63.6991459,24.5197548 C63.5804144,24.6795856 63.490351,24.8680846 63.4287019,25.0849979 C63.3673066,25.3021649 63.3366089,25.5335391 63.3366089,25.7793742 L63.3366089,28.7283805 L61.7268837,28.7283805 L61.7268837,22.7073235 L63.2384271,22.7073235 L63.2384271,23.4937928 Z M73.0194926,24.9436364 C73.0111205,24.8373362 72.9766173,24.718351 72.9149683,24.5874419 C72.8535729,24.4565328 72.7632558,24.3337421 72.6445243,24.2188161 C72.5257928,24.1041438 72.3783932,24.0097674 72.2023256,23.9359408 C72.0260042,23.8623679 71.8151797,23.8255814 71.5695983,23.8255814 C71.2253277,23.8255814 70.9221564,23.9237632 70.6603383,24.1203805 C70.3980127,24.3169979 70.2135729,24.5915011 70.1072727,24.9436364 L73.0194926,24.9436364 Z M74.4818182,27.2784355 C74.2032558,27.7701057 73.8282875,28.1673996 73.3574207,28.4703171 C72.8863002,28.7734884 72.3109091,28.9249471 71.6309937,28.9249471 C71.1720507,28.9249471 70.7481184,28.8450317 70.3591966,28.6854545 C69.9700211,28.5256237 69.632093,28.3023679 69.3454123,28.0156871 C69.0584778,27.7290063 68.8354757,27.3910782 68.6756448,27.0019027 C68.5160677,26.612981 68.4361522,26.1849894 68.4361522,25.7179281 C68.4361522,25.2838478 68.5137844,24.872093 68.669556,24.4831712 C68.825074,24.0937421 69.042241,23.7540381 69.3208034,23.4630444 C69.5993658,23.1725581 69.9289218,22.9406765 70.3099789,22.7689218 C70.6910359,22.5966596 71.1106554,22.5106554 71.5695983,22.5106554 C72.0526427,22.5106554 72.4829175,22.5908245 72.8596617,22.750148 C73.2364059,22.9099789 73.5520085,23.1312051 73.8059619,23.4140803 C74.0596617,23.6964482 74.2522199,24.0303171 74.3833827,24.4154334 C74.5142918,24.8005497 74.58,25.2183932 74.58,25.6687104 L74.58,25.8161099 C74.5716279,25.8653277 74.5678224,25.9104863 74.5678224,25.9513319 C74.5594503,25.9924313 74.5553911,26.0375899 74.5553911,26.0865539 L70.0212685,26.0865539 C70.0539958,26.332389 70.1214799,26.5434672 70.2239746,26.7192812 C70.3262156,26.8956025 70.4533192,27.0430021 70.604778,27.1617336 C70.7564905,27.2804651 70.9221564,27.366723 71.102537,27.4197463 C71.2826638,27.473277 71.4668499,27.4996617 71.6556025,27.4996617 C72.0242283,27.4996617 72.3291755,27.4156871 72.5709514,27.2477378 C72.8124736,27.0800423 73.0030021,26.8689641 73.1422833,26.6150106 L74.4818182,27.2784355 Z M75.612,22.7074249 L77.1235433,22.7074249 L77.1235433,23.5428584 L77.2219789,23.5428584 C77.2955518,23.3954588 77.3937336,23.2604905 77.516778,23.1374461 C77.6395687,23.0146554 77.7765666,22.9075941 77.9282791,22.8162622 C78.0799915,22.7249302 78.2436279,22.6511036 78.4196956,22.5950359 C78.5960169,22.5389683 78.770055,22.5108076 78.9420634,22.5108076 C79.1551712,22.5108076 79.3373277,22.5333869 79.4887865,22.5790529 C79.6404989,22.6247188 79.7693784,22.6835772 79.876186,22.756389 L79.4459112,24.1941057 C79.3477294,24.1451416 79.2388922,24.1063256 79.1201607,24.0774038 C79.0014292,24.0487357 78.8560592,24.0342748 78.6840507,24.0342748 C78.4628245,24.0342748 78.2618943,24.0776575 78.0817674,24.1641691 C77.9016406,24.2506808 77.7481522,24.372203 77.6213023,24.5287357 C77.4941987,24.6852685 77.3957632,24.8684397 77.3262495,25.0785032 C77.256482,25.2883129 77.2219789,25.5168964 77.2219789,25.7637463 L77.2219789,28.7282283 L75.612,28.7282283 L75.612,22.7074249 Z" id="Combined-Shape" fill="#63676B"></path>
            </g>
        </g>
    </g>
</svg>