<?xml version="1.0" encoding="UTF-8"?>
<svg width="200px" height="60px" viewBox="0 0 200 60" version="1.1" xmlns="http://www.w3.org/2000/svg" xmlns:xlink="http://www.w3.org/1999/xlink">
    <title>UI Elements/Logos/SVG /logo_Stripe</title>
    <g id="UI-Elements/Logos/logo_Stripe" stroke="none" stroke-width="1" fill="none" fill-rule="evenodd">
        <g id="Stripe-wordmark---blurple" transform="translate(10.000000, 0.000000)" fill="#635BFF">
            <path d="M144.192256,31.0013351 C144.192256,20.7476636 139.225634,12.6568758 129.732977,12.6568758 C120.200267,12.6568758 114.432577,20.7476636 114.432577,30.9212283 C114.432577,42.9773031 121.241656,49.0654206 131.014686,49.0654206 C135.781041,49.0654206 139.385848,47.9839786 142.109479,46.4619493 L142.109479,38.4512684 C139.385848,39.8130841 136.261682,40.6542056 132.296395,40.6542056 C128.411215,40.6542056 124.966622,39.2923899 124.526035,34.5660881 L144.11215,34.5660881 C144.11215,34.0453939 144.192256,31.9626168 144.192256,31.0013351 Z M124.405874,27.1962617 C124.405874,22.670227 127.169559,20.787717 129.692924,20.787717 C132.136182,20.787717 134.739653,22.670227 134.739653,27.1962617 L124.405874,27.1962617 Z" id="Shape"></path>
            <path d="M98.9719626,12.6568758 C95.046729,12.6568758 92.5233645,14.4993324 91.1214953,15.7810414 L90.6008011,13.2977303 L81.7890521,13.2977303 L81.7890521,60 L91.8024032,57.8771696 L91.8424566,46.5420561 C93.2843792,47.5834446 95.4072096,49.0654206 98.9319092,49.0654206 C106.101469,49.0654206 112.630174,43.2977303 112.630174,30.6008011 C112.59012,18.9853138 105.981308,12.6568758 98.9719626,12.6568758 Z M96.5687583,40.2536716 C94.2056075,40.2536716 92.8037383,39.4125501 91.8424566,38.3711615 L91.8024032,23.5113485 C92.8437917,22.3497997 94.2857143,21.5487316 96.5687583,21.5487316 C100.213618,21.5487316 102.736983,25.6341789 102.736983,30.8811749 C102.736983,36.2483311 100.253672,40.2536716 96.5687583,40.2536716 Z" id="Shape"></path>
            <polygon id="Path" points="68.0106809 10.293725 78.0640854 8.13084112 78.0640854 0 68.0106809 2.12283044"></polygon>
            <rect id="Rectangle" x="68.0106809" y="13.3377837" width="10.0534045" height="35.046729"></rect>
            <path d="M57.2363151,16.3017356 L56.5954606,13.3377837 L47.9439252,13.3377837 L47.9439252,48.3845127 L57.9572764,48.3845127 L57.9572764,24.6328438 C60.3204272,21.5487316 64.3257677,22.1094793 65.5674232,22.5500668 L65.5674232,13.3377837 C64.2857143,12.8571429 59.599466,11.975968 57.2363151,16.3017356 Z" id="Path"></path>
            <path d="M37.2096128,4.64619493 L27.4365821,6.72897196 L27.3965287,38.811749 C27.3965287,44.7396529 31.8424566,49.105474 37.7703605,49.105474 C41.0547397,49.105474 43.4579439,48.5046729 44.7797063,47.7837116 L44.7797063,39.6528705 C43.4979973,40.1735648 37.1695594,42.0160214 37.1695594,36.0881175 L37.1695594,21.8691589 L44.7797063,21.8691589 L44.7797063,13.3377837 L37.1695594,13.3377837 L37.2096128,4.64619493 Z" id="Path"></path>
            <path d="M10.1335113,23.5113485 C10.1335113,21.9492657 11.4152203,21.3484646 13.5380507,21.3484646 C16.5821095,21.3484646 20.4272363,22.2696929 23.4712951,23.9118825 L23.4712951,14.4993324 C20.1468625,13.1775701 16.8624833,12.6568758 13.5380507,12.6568758 C5.40720961,12.6568758 0,16.9025367 0,23.9919893 C0,35.046729 15.2202937,33.2843792 15.2202937,38.0507343 C15.2202937,39.8931909 13.6181575,40.493992 11.3751669,40.493992 C8.05073431,40.493992 3.80507343,39.1321762 0.44058745,37.2897196 L0.44058745,46.8224299 C4.16555407,48.4245661 7.9305741,49.105474 11.3751669,49.105474 C19.706275,49.105474 25.4339119,44.9799733 25.4339119,37.8104139 C25.3938585,25.8744993 10.1335113,27.9973298 10.1335113,23.5113485 Z" id="Path"></path>
        </g>
    </g>
</svg>