<?xml version="1.0" encoding="UTF-8"?>
<svg width="200px" height="60px" viewBox="0 0 200 60" version="1.1" xmlns="http://www.w3.org/2000/svg" xmlns:xlink="http://www.w3.org/1999/xlink">
    <title>UI Elements/Logos/SVG /logo_agnolia</title>
    <g id="UI-Elements/Logos/logo_agnolia" stroke="none" stroke-width="1" fill="none" fill-rule="evenodd">
        <path d="M42.8806584,4.99958848 C46.4609053,4.99958848 49.382716,7.90699588 49.382716,11.5016461 L49.382716,47.8823045 C49.382716,51.4625514 46.4753086,54.3823045 42.8806584,54.3823045 L6.50205761,54.3823045 C2.9218107,54.3823045 -7.17648163e-13,51.4769547 -7.17648163e-13,47.8823045 L-7.17648163e-13,11.4851852 C-7.17648163e-13,7.90699588 2.90534979,4.99958848 6.50205761,4.99958848 L42.8806584,4.99958848 Z M113.877778,18.091358 C115.785185,18.091358 117.540329,18.3300412 119.250206,18.6160494 C120.960082,18.9 122.414815,19.1983539 123.6,19.527572 L123.6,42.7744856 C123.600412,46.7744856 122.579835,49.6942387 120.523868,51.5522634 C118.47037,53.4082305 115.334568,54.3382716 111.104115,54.3382716 C109.558848,54.3382716 106.348971,54.0378601 103.783128,53.4699588 L104.727572,48.8259259 C106.873663,49.2744856 109.709053,49.3958848 111.19465,49.3958848 C113.54856,49.3958848 115.22963,48.9164609 116.233745,47.9576132 C117.239918,46.9987654 117.733745,45.5769547 117.733745,43.6880658 L117.733745,42.7292181 C117.149383,43.0131687 116.383951,43.299177 115.439506,43.5995885 C114.495062,43.8835391 113.400412,44.0337449 112.167901,44.0337449 C110.54856,44.0337449 109.077366,43.7786008 107.744033,43.2683128 C106.408642,42.7600823 105.252263,42.0111111 104.307819,41.0213992 C103.363374,40.0337449 102.612346,38.7909465 102.087654,37.3074074 C101.562963,35.8238683 101.291358,33.1736626 101.291358,31.2271605 C101.291358,29.4 101.577366,27.1078189 102.133333,25.5790123 C102.702881,24.0522634 103.511934,22.7333333 104.60823,21.6407407 C105.688889,20.5481481 107.009465,19.708642 108.554733,19.0934156 C110.1,18.4802469 111.912757,18.091358 113.877778,18.091358 Z M74.1534979,18.1201646 C76.0880658,18.1201646 77.7234568,18.3609053 79.0444444,18.8403292 C80.363786,19.3197531 81.4296296,19.9925926 82.2090535,20.8465021 C83.0053498,21.7148148 83.5444444,22.8691358 83.8740741,24.0975309 C84.2197531,25.3259259 84.3843621,26.6736626 84.3843621,28.155144 L84.3843621,43.2251029 C83.4851852,43.4185185 82.1185185,43.6427984 80.2897119,43.9123457 C78.4600823,44.181893 76.4049383,44.3176955 74.1226337,44.3176955 C72.6082305,44.3176955 71.2131687,44.1674897 69.9683128,43.8835391 C68.7069959,43.5995885 67.6432099,43.1345679 66.7419753,42.490535 C65.8572016,41.8465021 65.1679012,41.0213992 64.6576132,40.0049383 C64.1617284,38.9843621 63.9065844,37.5481481 63.9065844,36.0502058 C63.9065844,34.6119342 64.190535,33.6983539 64.7481481,32.708642 C65.3160494,31.7209877 66.0814815,30.9123457 67.0423868,30.282716 C68.0176955,29.6530864 69.126749,29.2045267 70.4024691,28.9349794 C71.6781893,28.6654321 73.0135802,28.5296296 74.3921811,28.5296296 C75.0382716,28.5296296 75.7131687,28.5748971 76.4333333,28.6489712 C77.1390947,28.7251029 77.9045267,28.8609053 78.7152263,29.054321 L78.7152263,28.0954733 C78.7152263,27.4226337 78.6390947,26.7786008 78.4744856,26.1798354 C78.3162678,25.5897576 78.0288082,25.0422489 77.6329218,24.5769547 C77.227572,24.1119342 76.7049383,23.7518519 76.0444444,23.4987654 C75.3839506,23.2436214 74.5423868,23.0481481 73.5382716,23.0481481 C72.1884774,23.0481481 70.9580247,23.2127572 69.8325103,23.4082305 C68.7069959,23.6016461 67.7769547,23.8279835 67.0711934,24.08107 L66.3674897,19.2744856 C67.1020576,19.0193416 68.1967078,18.7641975 69.6082305,18.5111111 C71.0176955,18.2395062 72.5341564,18.1201646 74.1534979,18.1201646 Z M94.6761317,4.99876543 L94.6764412,34.1690674 C94.6832497,35.1418143 94.8398461,39.2257291 98.4415638,39.2395062 L98.4415638,44.1676858 C89.0701724,44.2116162 88.8329116,36.7983654 88.826905,35.2722047 L88.826749,35.1654321 L88.826749,35.1654321 L88.8102881,5.92880658 L94.6761317,4.99876543 Z M189.505761,17.9720165 C191.439918,17.9720165 193.075309,18.2106996 194.396296,18.6901235 C195.715226,19.1695473 196.78107,19.8423868 197.560905,20.6962963 C198.340741,21.5502058 198.896296,22.71893 199.225514,23.9473251 C199.571193,25.1757202 199.735802,26.5234568 199.735802,28.0069959 L199.735802,43.0748971 C198.836626,43.2683128 197.47037,43.4925926 195.641152,43.7641975 C193.811934,44.0337449 191.756379,44.1674897 189.474486,44.1674897 C187.960082,44.1674897 186.565021,44.017284 185.320576,43.7333333 C184.059259,43.4493827 182.995473,42.9843621 182.094239,42.3403292 C181.209465,41.6962963 180.520165,40.8711934 180.009877,39.8547325 C179.513992,38.836214 179.258848,37.3979424 179.258848,35.9 C179.258848,34.4617284 179.544856,33.5481481 180.100412,32.5584362 C180.668313,31.5707819 181.433745,30.7621399 182.39465,30.1325103 C183.369959,29.5049383 184.479012,29.054321 185.754733,28.7847737 C187.030453,28.5152263 188.365844,28.3814815 189.746502,28.3814815 C190.390535,28.3814815 191.065432,28.426749 191.785597,28.500823 C192.505761,28.5748971 193.25679,28.7106996 194.065432,28.9061728 L194.065432,27.9473251 C194.065432,27.272428 193.991358,26.6283951 193.826749,26.0296296 C193.668984,25.4393751 193.381474,24.8917711 192.985185,24.426749 C192.579835,23.9617284 192.057202,23.6016461 191.396708,23.3485597 C190.735802,23.0934156 189.89465,22.9 188.890535,22.9 C187.540741,22.9 186.310288,23.0646091 185.184774,23.2580247 C184.059259,23.4534979 183.129218,23.6777778 182.423457,23.9329218 L181.719753,19.1242798 C182.454321,18.8691358 183.548971,18.6160494 184.960494,18.3609053 C186.369959,18.1057613 187.884362,17.9720165 189.505761,17.9720165 Z M174.846914,17.9555556 L174.846914,44.1674897 L168.951852,44.1674897 L168.951852,18.8835391 L174.846914,17.9555556 Z M160.746091,4.99876543 L160.7464,34.1690674 C160.753209,35.1418143 160.909805,39.2257291 164.511523,39.2395062 L164.511523,44.1676858 C155.261431,44.2110456 154.910162,36.9896596 154.896823,35.3346151 L154.896296,35.1654321 L154.896296,35.1654321 L154.879835,5.92880658 L160.746091,4.99876543 Z M139.262551,17.9720165 C141.034156,17.9720165 142.667901,18.2847737 144.167901,18.9 C145.669959,19.527572 146.960494,20.4123457 148.009877,21.5666667 C149.073251,22.71893 149.898765,24.0975309 150.499588,25.7148148 C151.129218,27.3320988 151.444033,29.2353909 151.444033,31.2127572 L151.443621,31.2127572 C151.443621,33.1901235 151.159671,34.6860082 150.573663,36.3197531 C149.9893,37.9514403 149.164198,39.3444444 148.100412,40.4987654 C147.034568,41.6510288 145.758848,42.5502058 144.258436,43.1798354 C142.758848,43.8074074 140.447737,44.1674897 139.293416,44.1674897 C138.137037,44.1530864 135.842798,43.8238683 134.357202,43.1798354 C132.871605,42.5358025 131.595885,41.6510288 130.532099,40.4987654 C129.466255,39.3444444 128.641564,37.9514403 128.040741,36.3197531 C127.441564,34.6860082 127.141564,33.1901235 127.141564,31.2127572 C127.141564,29.2353909 127.4107,27.3320988 128.011523,25.7148148 C128.612346,24.0975309 129.451852,22.71893 130.532099,21.5666667 C131.612346,20.4123457 132.902469,19.527572 134.371605,18.9 C135.857202,18.2703704 137.493004,17.9720165 139.262551,17.9720165 Z M75.2790123,32.7086417 C74.6329218,32.7086417 73.972428,32.7539095 73.3139918,32.8588477 C72.6534979,32.9493827 72.0526749,33.1283951 71.5279835,33.3835391 C71.0032922,33.6386831 70.5670782,33.9987654 70.2522634,34.4617284 C69.9230453,34.926749 69.7728395,35.1962963 69.7728395,35.9 C69.7728395,37.2765432 70.2522634,38.0728395 71.1226337,38.5954733 C71.9930041,39.1201646 73.1781893,39.3897119 74.6641975,39.3897119 C76.4641975,39.3897119 77.8,39.2847737 78.7300412,39.1057613 L78.7300412,33.144856 C78.265676,33.0213806 77.7943218,32.925873 77.3185185,32.8588477 C76.6432992,32.7587171 75.9616156,32.7085124 75.2790123,32.7086417 Z M108.9893,25.0995885 C107.863374,26.4946502 107.293827,28.9349794 107.293827,31.2127572 C107.293827,33.6674897 107.832922,36.3938272 108.913169,37.5316872 C109.993416,38.6716049 111.388066,39.2395062 113.100412,39.2395062 C114.030453,39.2395062 114.915226,39.1057613 115.739918,38.8506173 C116.565021,38.5954733 117.223868,38.2950617 117.750617,37.937037 L117.750617,23.3938272 C117.330864,23.3032922 115.575309,22.9432099 113.878189,22.9 C111.74856,22.8382716 110.129218,23.708642 108.9893,25.0995885 Z M190.614815,32.5440328 C189.970782,32.5440328 189.310288,32.5893004 188.649794,32.6942387 C187.991358,32.7847737 187.390535,32.963786 186.865844,33.21893 C186.339095,33.4740741 185.904938,33.8341564 185.590123,34.2971193 C185.258848,34.7621399 185.1107,35.0316872 185.1107,35.7353909 C185.1107,37.1119342 185.590123,37.9082305 186.460494,38.4308642 C187.345267,38.9699588 188.516049,39.2251029 190.001646,39.2251029 C191.802058,39.2251029 193.135391,39.1201646 194.065432,38.9390947 L194.065432,32.9802469 C193.736214,32.8897119 193.271193,32.7847737 192.655967,32.6942387 C191.980193,32.5941327 191.297964,32.5439284 190.614815,32.5440328 Z M139.277366,22.9 C137.34321,22.9 135.826337,23.6325103 134.748148,25.1160494 C133.667901,26.5975309 133.141564,28.6942387 133.141564,31.2271605 C133.141564,33.7888889 133.682716,35.5090535 134.762963,36.9925926 C135.84321,38.490535 137.357613,39.2251029 139.293827,39.2251029 C141.227984,39.2251029 142.744444,38.4761317 143.824691,36.9925926 C144.904527,35.4946502 145.443621,33.7888889 145.443621,31.2271605 C145.443621,28.6942387 144.888066,26.5831276 143.80823,25.1160494 C142.727984,23.6325103 141.21358,22.9 139.277366,22.9 Z M171.892593,8.08518519 C173.873663,8.08518519 175.464609,9.67366255 175.464609,11.6345679 C175.464609,13.5975309 173.857202,15.1860082 171.892593,15.1860082 C169.927572,15.1860082 168.322634,13.5975309 168.322634,11.6345679 C168.322634,9.67366255 169.913169,8.08518519 171.892593,8.08518519 Z" id="Combined-Shape" fill="#5468FF"></path>
        <path d="M29.8374486,16.0238683 L29.8374486,14.3304527 C29.8365398,13.1470455 28.8768232,12.1882498 27.6934156,12.1884773 L22.6954733,12.1884773 C21.5120657,12.1882498 20.552349,13.1470455 20.5514403,14.3304527 L20.5514403,16.0691358 C20.5514403,16.2625514 20.7304527,16.3983539 20.9259259,16.3530864 C22.3397456,15.9448686 23.8041476,15.7384392 25.2757202,15.7399177 C26.7016461,15.7399177 28.1131687,15.9333333 29.4773663,16.3078189 C29.6584362,16.3530864 29.8374486,16.2193416 29.8374486,16.0238683 M16.1399177,18.2399177 L15.2860082,17.3860082 C14.8841893,16.9839049 14.3390351,16.7579816 13.7705761,16.7579816 C13.2021172,16.7579816 12.656963,16.9839049 12.255144,17.3860082 L11.2345679,18.4045267 C10.8315983,18.8050487 10.6050055,19.3497443 10.6050055,19.9179012 C10.6050055,20.4860582 10.8315983,21.0307537 11.2345679,21.4312757 L12.0740741,22.2707819 C12.2098765,22.4045267 12.4053498,22.3736626 12.5246914,22.2399177 C13.019986,21.5596921 13.5668664,20.9185695 14.1604938,20.3222222 C14.7591161,19.7215596 15.4060042,19.1710165 16.0946502,18.6761317 C16.2444444,18.5855967 16.2592593,18.3757202 16.1399177,18.2399177 M25.2609053,23.6164609 L25.2609053,30.9415638 C25.2609053,31.1514403 25.4872428,31.3016461 25.6806584,31.1967078 L32.1930041,27.8263374 C32.3411523,27.7522634 32.3864198,27.5711934 32.3123457,27.4230453 C30.9625514,25.0547325 28.4563786,23.4374486 25.5613169,23.3325103 C25.4111111,23.3325103 25.2609053,23.4518519 25.2609053,23.6164609 M25.2609053,41.2625514 C19.8308642,41.2625514 15.4193416,36.8572016 15.4193416,31.4353909 C15.4193416,26.0135802 19.8308642,21.6102881 25.2609053,21.6102881 C30.6930041,21.6102881 35.1028807,26.0135802 35.1028807,31.4353909 C35.1028807,36.8572016 30.7078189,41.2625514 25.2609053,41.2625514 M25.2609053,17.4765432 C17.5489712,17.4765432 11.2938272,23.7234568 11.2938272,31.4353909 C11.2938272,39.1493827 17.5489712,45.381893 25.2609053,45.381893 C32.9728395,45.381893 39.2279835,39.1349794 39.2279835,31.4209877 C39.2279835,23.7069959 32.9872428,17.4765432 25.2609053,17.4765432" id="Shape" fill="#FFFFFF"></path>
    </g>
</svg>