<?xml version="1.0" encoding="UTF-8"?>
<svg width="200px" height="60px" viewBox="0 0 200 60" version="1.1" xmlns="http://www.w3.org/2000/svg" xmlns:xlink="http://www.w3.org/1999/xlink">
    <title>UI Elements/Logos/SVG /logo_CodeMagic</title>
    <defs>
        <polygon id="path-1" points="0 0 21 0 21 28 0 28"></polygon>
        <polygon id="path-3" points="0 0 19 0 19 21 0 21"></polygon>
    </defs>
    <g id="UI-Elements/Logos/logo_CodeMagic" stroke="none" stroke-width="1" fill="none" fill-rule="evenodd">
        <g id="CodeMagicVector" transform="translate(1.000000, 12.000000)">
            <path d="M96.2320651,10.1983464 C101.014138,6.84171161 106.661813,7.51791209 109.51081,10.9452129 C111.265974,10.0667614 112.886954,8.84594544 114.688843,8.42682299 C120.873849,6.98669874 125.584638,9.4758475 125.914105,16.5357459 C126.069854,19.8765418 125.972212,23.231349 125.941661,26.5788459 C125.927284,28.19198 125.212639,28.9674784 123.883986,28.9936735 C122.445111,29.0216963 121.69692,28.2608184 121.674156,26.5782367 C121.630427,23.3830372 121.681345,20.1860101 121.629828,16.9908106 C121.578311,13.785864 119.956731,11.9936282 117.112527,11.8803189 C113.930468,11.7529983 111.505586,13.625038 111.285143,16.6770779 C111.049723,19.9551272 111.070689,23.2532798 110.997607,26.5429037 C110.957472,28.3662082 110.513589,28.9595589 109.090888,28.9924552 C107.539395,29.0290065 106.903223,28.3180823 106.888247,26.4612723 C106.863088,23.3166355 106.950546,20.1677344 106.82475,17.027362 C106.693562,13.7590597 105.244503,12.1057191 102.623738,11.8900659 C98.9217192,11.5860803 96.4063834,13.8547024 96.3075431,17.6950338 C96.2356593,20.4832946 96.2877751,23.2746014 96.2817848,26.0646899 C96.2769925,28.3168639 95.7983659,28.9857541 94.1899647,28.9997654 C92.4994961,29.014386 92.0106859,28.3491509 92.0082898,25.9861044 C92.0034975,21.1156335 92.0172753,16.2457717 92.0005024,11.3759099 C91.9957101,10.0564052 91.994512,8.70034913 93.5376187,8.2915829 C95.0028512,7.90352911 95.8798342,8.76004971 96.2320651,10.1983464" id="Fill-1" fill="#FFFFFF"></path>
            <g id="Group-5" transform="translate(148.000000, 8.000000)">
                <mask id="mask-2" fill="white">
                    <use xlink:href="#path-1"></use>
                </mask>
                <g id="Clip-4"></g>
                <path d="M10.523109,3.70261085 C6.85799799,3.7043938 4.13404978,6.20945076 4.09113419,9.61944171 C4.04583439,13.170253 6.88780048,16.0169626 10.4837697,16.0235086 C14.1125217,16.0294404 16.7583874,13.3984176 16.7607742,9.77927575 C16.7637519,6.21004493 14.187624,3.70142291 10.523109,3.70261085 M16.6254683,17.6123322 C10.1672672,20.7115677 5.13362553,20.0752024 1.96323592,15.8357382 C-0.829854075,12.1019199 -0.620640548,6.60755041 2.45020872,3.0466381 C5.68258752,-0.700846291 11.0649184,-1.00981916 16.8191845,2.22310657 C17.3568215,0.547522935 18.3146738,-0.182722557 19.4835277,0.213000387 C20.5188664,0.562971578 20.942658,1.34015718 20.9414659,2.38650568 C20.9349093,7.8820635 21.1178966,13.3859398 20.8681517,18.8708024 C20.5504571,25.8571543 16.1009443,28.431136 8.76595383,27.942127 C6.87170714,27.8161611 4.97746044,27.2017805 3.16010419,26.5873998 C1.64375316,26.0740295 1.18360261,24.9747991 1.665807,23.8523957 C2.15337585,22.7163263 3.16248839,22.4513226 4.68122362,23.0484721 C7.10237846,23.999752 9.54260689,24.7519821 12.2027778,24.1221528 C15.5573468,23.327736 17.0570084,21.1940407 16.6254683,17.6123322" id="Fill-3" fill="#FFFFFF" mask="url(#mask-2)"></path>
            </g>
            <path d="M62.7813929,18.4593288 C62.7938629,14.4133439 60.2923033,11.6532593 56.6111901,11.6514422 C53.0492839,11.6496269 50.3796424,14.5017344 50.3742679,18.3158456 C50.3683178,22.2770725 52.9700113,25.1794295 56.5515866,25.2072786 C60.2505808,25.235733 62.7688294,22.5077354 62.7813929,18.4593288 M62.7640611,10.1221661 C62.7640611,7.7150382 62.7575047,5.56823848 62.7688294,3.42143876 C62.7712136,2.81905136 62.744988,2.19850152 62.8719435,1.61790904 C63.1419474,0.384074346 63.9924896,-0.0730135805 65.1964807,0.00932278784 C66.355173,0.0886320838 66.8916047,0.794545359 66.9577646,1.86976146 C67.0280967,3.02489228 66.9893544,4.18728806 66.9893544,5.34665678 C66.9905465,12.3040799 66.9976989,19.261503 66.9827981,26.2189261 C66.9792218,28.0751269 66.1620576,28.8706415 64.591505,28.647849 C63.3535399,28.4716734 63.016184,27.5835304 62.9458519,26.262516 C60.508068,28.6296866 57.6691525,29.359211 54.5465243,28.8427925 C52.1963576,28.4541164 50.0661279,27.511486 48.5408739,25.5444944 C45.1083074,21.1146767 45.1637387,15.1265222 48.6457761,11.103543 C51.982977,7.24765822 57.2125896,6.79722986 62.7640611,10.1221661" id="Fill-6" fill="#FFFFFF"></path>
            <path d="M73.718928,16.7165622 L85.5174654,16.7165622 C85.5058899,13.8986429 82.523052,11.4575626 79.1076538,11.7219482 C76.0523163,11.9582204 73.5824583,14.1391021 73.718928,16.7165622 M73.642773,19.9137134 C73.7396421,22.5802989 76.295403,24.9172998 79.1673593,25.169124 C81.0761075,25.3372063 82.9154024,25.1398143 84.578627,24.0882537 C85.6776955,23.393793 86.7785918,23.1987937 87.6705188,24.3675932 C88.3912495,25.3120837 87.9434582,26.4635366 86.5982568,27.3649598 C82.3238306,30.2307317 74.9203488,29.2048918 71.4086908,25.2606421 C68.0913802,21.5341217 68.1870308,15.1338378 71.7797178,11.2416278 C74.5505403,8.24007415 78.1785631,7.49477007 82.0837901,8.30527331 C86.141327,9.14688073 88.6800291,11.7386966 89.5890149,15.6751703 C90.5107946,19.669067 90.0837176,20.0327467 86.2095618,19.9370415 C82.0563743,19.8341585 77.8983128,19.9137134 73.642773,19.9137134" id="Fill-8" fill="#FFFFFF"></path>
            <path d="M138.102547,19.9241547 C138.096581,19.876768 138.091211,19.8299811 138.085842,19.7831943 C136.763722,19.9427495 135.420124,20.0039323 134.126045,20.2912517 C132.948905,20.5527783 132.300374,21.4129369 132.260401,22.6863796 C132.222813,23.8872426 132.746649,24.8805639 133.839665,25.1162977 C135.256648,25.4222119 136.775654,25.5451774 138.211133,25.3856221 C139.698518,25.2206684 140.828524,24.209952 141.482425,22.8135439 C142.373185,20.9108778 141.763435,19.9259542 139.742071,19.9241547 C139.195563,19.9235549 138.649055,19.9241547 138.102547,19.9241547 M141.861878,26.8959983 C138.851311,29.2095491 135.708293,29.3841001 132.461463,28.525741 C129.449703,27.7291645 127.728441,25.0659118 128.035106,21.9347905 C128.295831,19.2721377 130.634002,17.0779534 133.632637,16.8398202 C135.852676,16.6628699 138.086438,16.5692961 140.311847,16.5908901 C141.623228,16.6040864 141.842786,16.0678368 141.601153,14.9533496 C141.245565,13.3080113 140.082147,12.083155 138.381171,11.8600176 C136.344891,11.5930925 134.333074,11.6602737 132.425069,12.6350001 C130.965129,13.3817906 129.86555,13.116665 129.358419,12.0267708 C128.858448,10.9518725 129.401973,9.89736836 130.896517,9.26814493 C134.102777,7.91792382 137.422992,7.61680832 140.789147,8.50515904 C144.046717,9.364118 145.897446,12.1929242 145.97083,16.3569557 C146.026316,19.5012734 145.985149,22.6479904 145.987536,25.7935077 C145.988132,26.9811744 145.926084,28.2054309 144.538932,28.5857241 C143.256189,28.9378253 142.314716,28.3607873 141.861878,26.8959983" id="Fill-10" fill="#FFFFFF"></path>
            <path d="M25.8423907,19.5854564 C29.1531407,19.9300642 31.8287623,21.2055369 33.7064021,24.1265269 C33.9446507,20.6955901 35.4320454,18.2173212 38.2343308,16.2617175 C34.9109144,15.9352788 32.4204631,14.4199736 30.3299076,11.7933235 C30.3262886,15.3472047 28.5312818,17.6437824 25.8423907,19.5854564 M31.6351477,30 C31.2835049,29.7165616 30.4511429,29.3016999 30.0096291,28.6294422 C29.2424085,27.4587448 28.5970264,26.1729762 28.1175135,24.8563202 C27.4660997,23.0666612 26.1258763,22.1921205 24.4997546,21.5216797 C23.3887322,21.0638177 22.2837415,20.5635611 21.243289,19.9639799 C19.5731365,19.0022275 19.5960566,16.9254962 21.2493206,15.9280112 C21.8072444,15.5912767 22.3766283,15.2006405 22.9936618,15.0455972 C26.3653311,14.1983103 28.093387,11.7630416 29.2387895,8.72031851 C29.4155157,8.25094939 29.5602743,7.69739666 29.9010602,7.37762002 C30.5126653,6.80468689 31.2738543,5.97920289 31.9493945,6.0004002 C32.7184246,6.02402007 33.7124337,6.69264394 34.1654075,7.37640875 C35.0737678,8.74999475 35.6117873,10.3646245 36.4423398,11.7987743 C36.844045,12.4928349 37.4695228,13.1572193 38.1535072,13.565419 C39.5727448,14.412706 41.1650895,14.9753433 42.5517563,15.8668418 C43.2272965,16.3010839 43.9927077,17.2059064 44,17.9060235 C44.0077867,18.6091687 43.1663773,19.3577367 42.6126756,20.0148535 C42.3720144,20.30132 41.9407544,20.4757436 41.5625725,20.5865753 C37.8042771,21.6882301 35.7300069,24.3905849 34.4953365,27.9444661 C34.1189642,29.0273461 33.4856452,29.9376193 31.6351477,30" id="Fill-12" fill="#FFFFFF"></path>
            <path d="M11.1595578,8.00537426 C13.6701106,7.97233341 15.9911071,8.53402785 17.9098301,10.2215142 C19.1215269,11.2872317 19.304988,12.4322474 18.4949553,13.3621971 C17.7233215,14.2470911 16.4707879,14.1954272 15.2426345,13.2282315 C12.9295615,11.4067795 10.1483883,11.1466579 7.59212269,12.6196791 C4.88287118,14.1810094 4.18559701,16.7077333 4.44524631,19.5786828 C4.68356292,22.2093351 6.5321928,24.3131361 9.23778727,24.9793598 C11.4502919,25.5242335 13.5262673,25.27072 15.3560025,23.6979756 C16.7603029,22.489882 18.1298616,22.6821197 18.7722803,24.0133655 C19.3842237,25.2815334 18.6656168,26.1405955 17.7678154,26.8572816 C15.3230892,28.8102962 12.4334241,29.2422302 9.43465752,28.8871912 C3.93387128,28.2359861 -0.025475809,24.0265819 0,18.6637516 C0.0299891825,12.2706476 4.46535999,8.29313002 10.2459092,8.00717648 C10.5500524,7.99215792 10.8548051,8.00537426 11.1595578,8.00537426" id="Fill-14" fill="#FFFFFF"></path>
            <g id="Group-18" transform="translate(179.000000, 8.000000)">
                <mask id="mask-4" fill="white">
                    <use xlink:href="#path-3"></use>
                </mask>
                <g id="Clip-17"></g>
                <path d="M11.1125943,20.9832649 C6.10660951,20.9988947 2.27549873,18.5185587 0.670688991,14.2407906 C-0.883647383,10.0988819 0.318591667,5.4447952 3.70760443,2.4775294 C7.36479494,-0.723582903 14.5204585,-0.866054943 17.8772413,2.30319653 C18.4446106,2.83881926 18.8204243,3.86077061 18.7802888,4.6320433 C18.7547481,5.1219788 17.8553492,5.81329883 17.2399391,5.95456858 C16.6835158,6.08261307 15.854658,5.73815535 15.363911,5.33959432 C13.0165955,3.43455678 10.4825894,3.23738029 7.8658799,4.53105046 C5.11720995,5.89024576 4.29990631,8.34172669 4.49815109,11.2055951 C4.69335531,14.0297877 6.07924443,16.0736904 8.84859022,16.9315283 C11.0067826,17.6000047 13.1491641,17.4599373 15.0185029,15.9732987 C15.2550588,15.7851394 15.4569523,15.5338596 15.7208732,15.4028094 C16.6938537,14.9182842 17.7106184,14.7758121 18.4932596,15.6757305 C19.2740764,16.5738454 19.1068454,17.5404911 18.3065689,18.3784912 C16.6871645,20.073127 14.5800536,20.7007254 12.3269956,20.9760511 C11.9280736,21.0253452 11.5175974,20.9832649 11.1125943,20.9832649" id="Fill-16" fill="#FFFFFF" mask="url(#mask-4)"></path>
            </g>
            <path d="M175.993347,18.0619692 C175.993904,20.5410529 176.011159,23.0207214 175.987781,25.4992203 C175.972196,27.1794297 175.356578,27.9590047 174.104191,27.9981882 C172.727122,28.0408806 172.042483,27.3320697 172.028011,25.5565334 C171.986822,20.5012846 171.995727,15.445451 172.024671,10.3902022 C172.033021,8.98544658 172.903012,8.00410606 173.979509,8 C175.115563,7.99591847 175.973866,9.01702726 175.986668,10.4785112 C176.009489,13.0061355 175.993347,15.5343448 175.993347,18.0619692" id="Fill-19" fill="#FFFFFF"></path>
        </g>
    </g>
</svg>