<?xml version="1.0" encoding="UTF-8"?>
<svg width="200px" height="60px" viewBox="0 0 200 60" version="1.1" xmlns="http://www.w3.org/2000/svg" xmlns:xlink="http://www.w3.org/1999/xlink">
    <title>UI Elements/Logos/SVG /logo_Firebase 2</title>
    <defs>
        <linearGradient x1="22.1294236%" y1="17.5976314%" x2="77.3725322%" y2="93.5566532%" id="linearGradient-1">
            <stop stop-color="#FFFFFF" stop-opacity="0.1" offset="0%"></stop>
            <stop stop-color="#FFFFFF" stop-opacity="0" offset="100%"></stop>
        </linearGradient>
    </defs>
    <g id="UI-Elements/Logos/logo_Firebase" stroke="none" stroke-width="1" fill="none" fill-rule="evenodd">
        <g id="logo-built_black" transform="translate(0.000000, 1.000000)" fill-rule="nonzero">
            <g id="Group">
                <g transform="translate(64.931087, 16.232772)" fill="#FFFFFF">
                    <polygon id="Path" points="3.76722818 28.4839204 0.153139357 28.4839204 0.153139357 0.428790199 16.5390505 0.428790199 16.5390505 3.88973966 3.76722818 3.88973966 3.76722818 13.1087289 15.3139357 13.1087289 15.3139357 16.4777948 3.79785605 16.4777948 3.79785605 28.4839204"></polygon>
                    <path d="M22.7565084,4.47166922 C22.2664625,4.96171516 21.6539051,5.20673813 20.949464,5.20673813 C20.245023,5.20673813 19.6324655,4.96171516 19.1424196,4.47166922 C18.6523737,3.98162328 18.4073507,3.36906585 18.4073507,2.66462481 C18.4073507,1.96018377 18.6523737,1.34762634 19.1424196,0.857580398 C19.6324655,0.367534456 20.245023,0.122511485 20.949464,0.122511485 C21.6539051,0.122511485 22.2664625,0.367534456 22.7565084,0.857580398 C23.2465544,1.34762634 23.4915773,1.96018377 23.4915773,2.66462481 C23.4915773,3.36906585 23.2465544,3.95099541 22.7565084,4.47166922 Z M22.7565084,28.4839204 L19.1424196,28.4839204 L19.1424196,9.28024502 L22.7565084,9.28024502 L22.7565084,28.4839204 Z" id="Shape"></path>
                    <path d="M30.2909648,28.4839204 L26.676876,28.4839204 L26.676876,9.28024502 L30.1378254,9.28024502 L30.1378254,12.4042879 L30.2909648,12.4042879 C30.6584992,11.3629403 31.3935681,10.5053599 32.5574273,9.83154671 C33.6906585,9.15773354 34.7932619,8.82082695 35.8652374,8.82082695 C36.9372129,8.82082695 37.8254211,8.97396631 38.56049,9.28024502 L37.1822358,12.6493109 C36.7228178,12.4655436 36.0796325,12.37366 35.2526799,12.37366 C33.9356815,12.37366 32.8024502,12.8943338 31.7917305,13.9356815 C30.7810107,14.9770291 30.2909648,16.3246554 30.2909648,17.9785605 L30.2909648,28.4839204 Z" id="Path"></path>
                    <path d="M47.2588055,29.1271057 C44.3491577,29.1271057 41.9908116,28.1470138 40.1837672,26.2174579 C38.3767228,24.287902 37.4578867,21.8376723 37.4578867,18.8973966 C37.4578867,16.1102603 38.3460949,13.6906585 40.0918836,11.669219 C41.8683002,9.64777948 44.1041348,8.63705972 46.8606432,8.63705972 C49.7090352,8.63705972 51.9754977,9.55589587 53.6906585,11.424196 C55.4058193,13.2924962 56.2633997,15.7733538 56.2633997,18.8667688 L56.2327718,19.5405819 L41.0719755,19.5405819 C41.1638591,21.4701378 41.8376723,23.0015314 43.0015314,24.1347626 C44.1960184,25.2679939 45.5742726,25.8192956 47.1669219,25.8192956 C49.7396631,25.8192956 51.5160796,24.7166922 52.4349158,22.5114855 L55.6508423,23.8591118 C55.0382848,25.3598775 53.9969372,26.5849923 52.5574273,27.5957121 C51.1179173,28.6064319 49.3415008,29.1271057 47.2588055,29.1271057 Z M52.4349158,16.5696784 C52.3430322,15.467075 51.8529862,14.4257274 50.9341501,13.4456355 C50.0153139,12.4655436 48.6370597,11.9448698 46.7993874,11.9448698 C45.4517611,11.9448698 44.3185299,12.37366 43.338438,13.2006126 C42.3583461,14.0275651 41.6845329,15.1607963 41.3169985,16.5696784 L52.4349158,16.5696784 Z" id="Shape"></path>
                    <path d="M68.9433384,29.1271057 C67.4732006,29.1271057 66.1562021,28.820827 64.992343,28.1776417 C63.8284839,27.5650842 62.9709035,26.7687596 62.388974,25.8192956 L62.2358346,25.8192956 L62.2358346,28.4839204 L58.7748851,28.4839204 L58.7748851,0.428790199 L62.388974,0.428790199 L62.388974,9.28024502 L62.2358346,11.9448698 L62.388974,11.9448698 C62.9709035,10.9954058 63.8284839,10.229709 64.992343,9.58652374 C66.1562021,8.97396631 67.4732006,8.63705972 68.9433384,8.63705972 C71.424196,8.63705972 73.568147,9.61715161 75.3751914,11.5773354 C77.1822358,13.5375191 78.0704441,15.957121 78.0704441,18.8667688 C78.0704441,21.7764165 77.1822358,24.1960184 75.3751914,26.1562021 C73.568147,28.1470138 71.424196,29.1271057 68.9433384,29.1271057 Z M68.330781,25.8192956 C70.0153139,25.8192956 71.4548239,25.1761103 72.6493109,23.9203675 C73.8437979,22.6646248 74.4563553,20.9800919 74.4563553,18.8973966 C74.4563553,16.8147014 73.8437979,15.1301685 72.6493109,13.8744257 C71.4548239,12.618683 70.0153139,11.9754977 68.330781,11.9754977 C66.6462481,11.9754977 65.1761103,12.5880551 64.0122511,13.8437979 C62.848392,15.0995406 62.2358346,16.7840735 62.2358346,18.8973966 C62.2358346,21.0107198 62.8177642,22.6952527 64.0122511,23.9509954 C65.2067381,25.2067381 66.6462481,25.8192956 68.330781,25.8192956 Z" id="Shape"></path>
                    <path d="M87.0444104,29.1271057 C84.992343,29.1271057 83.3078101,28.5451761 81.9295559,27.3506891 C80.5513017,26.18683 79.8774885,24.6248086 79.8774885,22.6952527 C79.8774885,20.6125574 80.6738132,18.9586524 82.2970904,17.7641654 C83.9203675,16.5696784 85.9111792,15.9877489 88.3001531,15.9877489 C90.4134763,15.9877489 92.1592649,16.3859112 93.5068913,17.151608 L93.5068913,16.6003063 C93.5068913,15.1914242 93.0168453,14.058193 92.0673813,13.2006126 C91.0872894,12.3430322 89.9234303,11.914242 88.5145482,11.914242 C87.4732006,11.914242 86.5237366,12.1592649 85.6661562,12.6493109 C84.8085758,13.1393568 84.2266462,13.81317 83.9203675,14.7013783 L80.6125574,13.2924962 C81.0719755,12.1286371 81.9295559,11.0872894 83.2465544,10.1071975 C84.5635528,9.12710567 86.2787136,8.63705972 88.4226646,8.63705972 C90.8728943,8.63705972 92.9249617,9.34150077 94.5482389,10.7810107 C96.1715161,12.2205207 96.9678407,14.2419602 96.9678407,16.8453292 L96.9678407,28.4839204 L93.5068913,28.4839204 L93.5068913,25.8192956 L93.3537519,25.8192956 C91.914242,28.0245023 89.8009188,29.1271057 87.0444104,29.1271057 Z M87.62634,25.8192956 C89.1271057,25.8192956 90.474732,25.2679939 91.669219,24.1653905 C92.8943338,23.0627871 93.5068913,21.7457887 93.5068913,20.2143951 C92.4961715,19.3874426 90.9647779,18.9586524 88.9127106,18.9586524 C87.1669219,18.9586524 85.8499234,19.3261868 84.9617152,20.0918836 C84.0735069,20.8575804 83.6140888,21.7457887 83.6140888,22.7565084 C83.6140888,23.7059724 84.0122511,24.4410413 84.8392037,24.992343 C85.6661562,25.5436447 86.5849923,25.8192956 87.62634,25.8192956 Z" id="Shape"></path>
                    <path d="M106.983155,29.1271057 C104.839204,29.1271057 103.062787,28.6064319 101.684533,27.5650842 C100.275651,26.5237366 99.2649311,25.2067381 98.6217458,23.6447167 L101.837672,22.2970904 C102.848392,24.7166922 104.594181,25.9111792 107.04441,25.9111792 C108.177642,25.9111792 109.096478,25.6661562 109.800919,25.1761103 C110.50536,24.6860643 110.872894,24.0122511 110.872894,23.2159265 C110.872894,21.9601838 109.984686,21.1026034 108.238897,20.6738132 L104.349158,19.7243492 C103.124043,19.4180704 101.960184,18.805513 100.85758,17.9479326 C99.754977,17.0597243 99.2036753,15.8958652 99.2036753,14.3950995 C99.2036753,12.7105666 99.9693721,11.3323124 101.470138,10.2603369 C102.970904,9.18836141 104.74732,8.6676876 106.830015,8.6676876 C108.514548,8.6676876 110.045942,9.06584992 111.36294,9.83154671 C112.710567,10.5972435 113.660031,11.6998469 114.211332,13.1393568 L111.087289,14.4257274 C110.382848,12.7411945 108.912711,11.8836141 106.707504,11.8836141 C105.635528,11.8836141 104.74732,12.0980092 104.012251,12.5574273 C103.277182,13.0168453 102.909648,13.5987749 102.909648,14.3644717 C102.909648,15.467075 103.767228,16.202144 105.451761,16.6003063 L109.249617,17.4885145 C111.056662,17.9173047 112.37366,18.6217458 113.261868,19.6324655 C114.119449,20.6431853 114.548239,21.8070444 114.548239,23.093415 C114.548239,24.8085758 113.843798,26.2480858 112.434916,27.4119449 C111.026034,28.575804 109.218989,29.1271057 106.983155,29.1271057 Z" id="Path"></path>
                    <path d="M125.819296,29.1271057 C122.909648,29.1271057 120.551302,28.1470138 118.744257,26.2174579 C116.937213,24.287902 116.018377,21.8376723 116.018377,18.8973966 C116.018377,16.1102603 116.906585,13.6906585 118.652374,11.669219 C120.42879,9.64777948 122.664625,8.63705972 125.421133,8.63705972 C128.269525,8.63705972 130.535988,9.55589587 132.251149,11.424196 C133.966309,13.2924962 134.82389,15.7733538 134.82389,18.8667688 L134.793262,19.5405819 L119.632466,19.5405819 C119.724349,21.4701378 120.398162,23.0015314 121.562021,24.1347626 C122.756508,25.2679939 124.134763,25.8192956 125.727412,25.8192956 C128.300153,25.8192956 130.07657,24.7166922 130.995406,22.5114855 L134.211332,23.8591118 C133.598775,25.3598775 132.557427,26.5849923 131.117917,27.5957121 C129.678407,28.6064319 127.901991,29.1271057 125.819296,29.1271057 Z M130.995406,16.5696784 C130.903522,15.467075 130.413476,14.4257274 129.49464,13.4456355 C128.575804,12.4655436 127.19755,11.9448698 125.359877,11.9448698 C124.012251,11.9448698 122.87902,12.37366 121.898928,13.2006126 C120.918836,14.0275651 120.245023,15.1607963 119.877489,16.5696784 L130.995406,16.5696784 Z" id="Shape"></path>
                </g>
                <g>
                    <path d="M9.89280245,45.941807 L16.5390505,3.49157734 C16.6309342,2.81776417 17.2741194,2.35834609 17.9479326,2.48085758 C18.3154671,2.54211332 18.6523737,2.78713629 18.8361409,3.12404288 L25.6967841,15.9264931 L28.4226646,10.719755 C28.7289433,10.1071975 29.4640123,9.89280245 30.0765697,10.1990812 C30.2909648,10.3215926 30.474732,10.5053599 30.5972435,10.719755 L49.0964778,45.941807 L9.89280245,45.941807 Z" id="Path" fill="#FFA000"></path>
                    <polygon id="Path" fill="#F57C00" points="32.8330781 29.4027565 25.6967841 15.8958652 9.89280245 45.941807"></polygon>
                    <path d="M49.0964778,45.941807 L44.0122511,14.4869832 C43.8897397,13.81317 43.2771822,13.3843798 42.6033691,13.4762634 C42.3583461,13.5068913 42.1133231,13.6294028 41.9295559,13.81317 L9.89280245,45.941807 L27.62634,55.8958652 C28.7289433,56.5084227 30.1071975,56.5084227 31.2098009,55.8958652 L49.0964778,45.941807 Z" id="Path" fill="#FFCA28"></path>
                    <path d="M44.042879,14.517611 C43.9203675,13.8437979 43.3078101,13.4150077 42.6339969,13.5068913 C42.388974,13.5375191 42.143951,13.6600306 41.9601838,13.8437979 L35.5895865,20.2143951 L30.5972435,10.6891271 C30.2909648,10.0765697 29.5558959,9.86217458 28.9433384,10.1684533 C28.7289433,10.2909648 28.5451761,10.474732 28.4226646,10.6891271 L25.6967841,15.8958652 L18.8361409,3.09341501 C18.5298622,2.51148545 17.7641654,2.26646248 17.1822358,2.60336907 C16.8453292,2.78713629 16.6003063,3.12404288 16.5390505,3.49157734 L9.89280245,45.941807 L9.86217458,45.941807 L9.89280245,45.9724349 L10.0765697,46.0643185 L35.5895865,20.5206738 L41.9601838,14.1500766 C42.4502297,13.6600306 43.2159265,13.6600306 43.7059724,14.1500766 C43.8897397,14.3338438 44.0122511,14.5482389 44.042879,14.8238897 L49.0658499,45.9724349 L49.1271057,45.941807 L44.042879,14.517611 Z M9.95405819,45.8805513 L16.5390505,3.79785605 C16.6309342,3.12404288 17.2741194,2.66462481 17.9479326,2.78713629 C18.3154671,2.84839204 18.6523737,3.09341501 18.8361409,3.43032159 L25.6967841,16.2327718 L28.4226646,11.0260337 C28.7289433,10.4134763 29.4640123,10.1990812 30.0765697,10.5053599 C30.2909648,10.6278714 30.474732,10.8116386 30.5972435,11.0260337 L35.4977029,20.3369066 L9.95405819,45.8805513 Z" id="Shape" fill-opacity="0.2" fill="#FFFFFF"></path>
                    <path d="M31.2098009,55.5895865 C30.1071975,56.202144 28.7289433,56.202144 27.62634,55.5895865 L9.92343032,45.6661562 L9.89280245,45.941807 L27.62634,55.8958652 C28.7289433,56.5084227 30.1071975,56.5084227 31.2098009,55.8958652 L49.0964778,45.941807 L49.0658499,45.6661562 L31.2098009,55.5895865 Z" id="Path" fill="#A52714" opacity="0.2"></path>
                    <path d="M44.042879,14.517611 C43.9203675,13.8437979 43.3078101,13.4150077 42.6339969,13.5068913 C42.388974,13.5375191 42.143951,13.6600306 41.9601838,13.8437979 L35.5895865,20.2143951 L30.5972435,10.6891271 C30.2909648,10.0765697 29.5558959,9.86217458 28.9433384,10.1684533 C28.7289433,10.2909648 28.5451761,10.474732 28.4226646,10.6891271 L25.6967841,15.8958652 L18.8361409,3.09341501 C18.5298622,2.51148545 17.7641654,2.26646248 17.1822358,2.60336907 C16.8453292,2.78713629 16.6003063,3.12404288 16.5390505,3.49157734 L9.89280245,45.941807 L27.62634,55.8958652 C28.7289433,56.5084227 30.1071975,56.5084227 31.2098009,55.8958652 L49.0964778,45.941807 L44.042879,14.517611 Z" id="Path" fill="url(#linearGradient-1)"></path>
                </g>
            </g>
        </g>
    </g>
</svg>