<?xml version="1.0" encoding="UTF-8"?>
<svg width="200px" height="60px" viewBox="0 0 200 60" version="1.1" xmlns="http://www.w3.org/2000/svg" xmlns:xlink="http://www.w3.org/1999/xlink">
    <title>UI Elements/Logos/SVG /logo_googleMaps</title>
    <g id="UI-Elements/Logos/logo_googleMaps" stroke="none" stroke-width="1" fill="none" fill-rule="evenodd">
        <g id="Google_Maps-Logo.wine" transform="translate(0.000000, 12.000000)">
            <path d="M99.9489241,14.5560336 C101.767992,14.5560336 103.208774,15.36195 103.958769,16.2566816 L104.0739,16.2566816 L104.0739,15.0165572 L104.089563,15.0169515 L104.089563,15.0169515 L104.20907,15.017643 C104.237867,15.0177479 104.270799,15.0178479 104.307406,15.0179431 L104.723695,15.0186776 C104.77822,15.0187464 104.835043,15.0188111 104.893705,15.018872 L106.419647,15.0197249 C106.478354,15.0197401 106.535229,15.0197534 106.589811,15.0197651 L107.241645,15.0198467 L107.241645,15.0198467 L107.241645,28.6941091 C107.241645,34.3190763 103.925875,36.6282734 100.001555,36.6282734 C96.307498,36.6282734 94.0871162,34.1480247 93.2515947,32.1282996 L96.1660514,30.9144909 C96.6857853,32.1546153 97.9555147,33.6250014 100.004845,33.6250014 C102.514699,33.6250014 104.0739,32.0690894 104.0739,29.1546327 L104.0739,28.0592444 L103.958769,28.0592444 C103.208774,28.9835811 101.764703,29.7894975 99.9489241,29.7894975 C96.1397358,29.7894975 92.6496246,26.4704378 92.6496246,22.2007259 C92.6496246,17.9014088 96.1397358,14.5560336 99.9489241,14.5560336 Z M180.77818,15.073091 C182.540758,15.073091 184.053523,15.7670195 185.330351,17.1548766 C186.60718,18.5427336 187.245594,20.2636764 187.245594,22.3177048 C187.245594,24.3717332 186.60718,26.0926759 185.330351,27.480533 C184.053523,28.86839 182.540758,29.5623185 180.77818,29.5623185 C179.737287,29.5623185 178.807423,29.3402614 177.988587,28.8961472 C177.169752,28.4520329 176.545216,27.8968901 176.142737,27.2307187 L176.031709,27.2307187 L176.142737,29.1182043 L176.142737,35.1137467 L173.58908,35.1137467 L173.58908,15.5172053 L176.031709,15.5172053 L176.031709,17.4046908 L176.142737,17.4046908 C176.545216,16.7385195 177.169752,16.1833766 177.988587,15.7392624 C178.807423,15.2951481 179.737287,15.073091 180.77818,15.073091 Z M122.139584,14.5560336 C126.093509,14.5560336 128.024418,17.7007521 128.659283,19.4046896 L129.004676,20.2698161 L118.820525,24.4803179 C119.600125,26.0099142 120.810645,26.7895149 122.514582,26.7895149 C124.21523,26.7895149 125.399434,25.950704 126.26456,24.684264 L128.85994,26.4145171 C128.024418,27.6546415 126.004693,29.7894975 122.514582,29.7894975 C118.188949,29.7894975 115.063968,26.4408328 115.063968,22.1744103 C115.063968,17.6415419 118.218555,14.5560336 122.139584,14.5560336 Z M66.5017506,14.5593231 C70.6398844,14.5593231 74.0082858,17.7599623 74.0082858,22.1744103 C74.0082858,26.5592531 70.6365949,29.7894975 66.5017506,29.7894975 C62.3669063,29.7894975 58.9952154,26.5592531 58.9952154,22.1744103 C58.9952154,17.7599623 62.3669063,14.5593231 66.5017506,14.5593231 Z M83.3305999,14.5593231 C87.4654442,14.5593231 90.8371351,17.7599623 90.8371351,22.1744103 C90.8371351,26.5592531 87.4654442,29.7894975 83.3305999,29.7894975 C79.1957556,29.7894975 75.8240647,26.5592531 75.8240647,22.1744103 C75.8240647,17.7599623 79.1957556,14.5593231 83.3305999,14.5593231 Z M46.1400272,6.13174058 C49.7485588,6.13174058 52.3143333,7.54620602 54.2485326,9.39487946 L51.9689406,11.6744714 C50.5840802,10.3751369 48.7090911,9.36527437 46.1400272,9.36527437 C41.3801865,9.36527437 37.656524,13.2040678 37.656524,17.9639085 C37.656524,22.7237492 41.3801865,26.5592531 46.1400272,26.5592531 C49.2255355,26.5592531 50.9853937,25.3191288 52.1136766,24.1941353 C53.0380133,23.2730881 53.6432729,21.9441484 53.8735347,20.1283695 L46.1400272,20.1283695 L46.1400272,16.8981252 L57.0149638,16.8981252 C57.1333842,17.4737798 57.1893049,18.1678547 57.1893049,18.9178503 C57.1893049,21.3421783 56.5248351,24.3421608 54.3932686,26.4770168 C52.3110438,28.6381884 49.656454,29.7894975 46.1367377,29.7894975 C39.6170389,29.7894975 34.1368076,24.4803179 34.1368076,17.960619 C34.1368076,11.4409202 39.6203283,6.13174058 46.1400272,6.13174058 Z M194.531843,15.073091 C195.739279,15.073091 196.807929,15.3506624 197.751672,15.8919267 C198.695414,16.4331909 199.375464,17.2242694 199.777943,18.2374051 L197.557372,19.1533907 C197.057743,17.9459551 196.01685,17.3491766 194.448572,17.3491766 C193.68525,17.3491766 193.046836,17.5018408 192.533329,17.821048 C192.019822,18.1402551 191.756129,18.5566122 191.756129,19.0978764 C191.756129,19.8750764 192.352908,20.4024621 193.560343,20.6800335 L196.252786,21.3184477 C197.529614,21.6098977 198.473357,22.1234048 199.084014,22.8450905 C199.694671,23.5667761 200,24.3856118 200,25.2877189 C200,26.5090331 199.500371,27.5221687 198.501114,28.3410044 C197.501857,29.1459614 196.21115,29.5623185 194.642872,29.5623185 C193.130108,29.5623185 191.867158,29.1875971 190.881779,28.4520329 C189.896401,27.7164687 189.160836,26.7866045 188.702844,25.6763188 L190.978929,24.732576 C191.700615,26.4396402 192.935808,27.286233 194.670629,27.286233 C195.461707,27.286233 196.114,27.1058116 196.627507,26.7588473 C197.141014,26.4118831 197.390829,25.9400117 197.390829,25.3709903 C197.390829,24.4827618 196.766293,23.8859832 195.5311,23.5667761 L192.783143,22.9006047 C191.908793,22.6785476 191.089958,22.2621905 190.312758,21.6376548 C189.535558,21.0131192 189.146958,20.1804049 189.146958,19.1256336 C189.146958,17.918198 189.674344,16.946698 190.742994,16.1972552 C191.811643,15.4478124 193.074593,15.073091 194.531843,15.073091 Z M164.776188,15.073091 C166.51101,15.073091 167.954381,15.5865981 169.106302,16.5997338 C170.258224,17.6128694 170.827245,19.0562407 170.827245,20.9020906 L170.827245,29.1182043 L168.384617,29.1182043 L168.384617,27.2307187 L168.273588,27.2307187 C167.260452,28.7851186 165.761567,29.5623185 163.804688,29.5623185 C162.361317,29.5623185 161.153881,29.1459614 160.182381,28.3132472 C159.210881,27.480533 158.725132,26.3841259 158.725132,25.0101474 C158.725132,23.5251404 159.294153,22.3732191 160.446074,21.5266263 C161.597996,20.6800335 163.01361,20.2636764 164.692917,20.2636764 C166.191802,20.2636764 167.426995,20.5412478 168.384617,21.0963906 L168.384617,20.7077906 C168.384617,19.7085335 168.037652,18.9035765 167.357602,18.3067979 C166.677552,17.7100194 165.83096,17.4046908 164.831703,17.4046908 C164.096138,17.4046908 163.416088,17.5851123 162.81931,17.9320765 C162.222531,18.2790408 161.806174,18.7647907 161.584117,19.3754478 L159.252517,18.3761908 C159.571724,17.5573551 160.182381,16.8079123 161.112246,16.1139838 C162.04211,15.4200553 163.263424,15.073091 164.776188,15.073091 Z M113.106742,6.94094639 L113.106742,29.3289738 L109.761367,29.3289738 L109.761367,6.94094639 L113.106742,6.94094639 Z M139.461676,9.24409143 L146.373204,21.3462048 L146.484232,21.3462048 L153.39576,9.24409143 L155.949417,9.24409143 L155.949417,29.1182043 L153.39576,29.1182043 L153.39576,17.3214194 L153.506789,13.9905625 L153.39576,13.9905625 L147.178161,24.8991189 L145.679275,24.8991189 L139.461676,13.9905625 L139.350647,13.9905625 L139.461676,17.3214194 L139.461676,29.1182043 L136.908019,29.1182043 L136.908019,9.24409143 L139.461676,9.24409143 Z M165.137031,22.3732191 C163.901838,22.3732191 162.958095,22.6369119 162.33356,23.1781761 C161.709024,23.7194404 161.389817,24.3439761 161.389817,25.0656617 C161.389817,25.7318331 161.681267,26.2592188 162.250288,26.6478188 C162.81931,27.0364187 163.485481,27.2307187 164.221045,27.2307187 C165.275817,27.2307187 166.233438,26.8421187 167.093909,26.0510402 C167.954381,25.2599617 168.384617,24.3300975 168.384617,23.2614476 C167.662931,22.664669 166.580402,22.3732191 165.137031,22.3732191 Z M180.361823,17.4046908 C179.154387,17.4046908 178.141252,17.8488051 177.294659,18.7370336 C176.448066,19.6252621 176.031709,20.8188192 176.031709,22.3177048 C176.031709,23.8165904 176.448066,25.0101474 177.294659,25.898376 C178.141252,26.7866045 179.168266,27.2307187 180.361823,27.2307187 C181.541501,27.2307187 182.568516,26.7866045 183.415108,25.8844974 C184.261701,24.9823903 184.691937,23.8027118 184.691937,22.3177048 C184.691937,20.8326977 184.261701,19.6530193 183.415108,18.7509122 C182.568516,17.8488051 181.541501,17.4046908 180.361823,17.4046908 Z M83.3305999,17.5593056 C81.0641658,17.5593056 79.1102298,19.4342946 79.1102298,22.1744103 C79.1102298,24.8849208 81.0641658,26.7895149 83.3305999,26.7895149 C85.5970341,26.7895149 87.5509701,24.8849208 87.5509701,22.1744103 C87.5509701,19.4310052 85.5970341,17.5593056 83.3305999,17.5593056 Z M66.5050401,17.5593056 C64.2386059,17.5593056 62.2846699,19.4342946 62.2846699,22.1744103 C62.2846699,24.8849208 64.2386059,26.7895149 66.5050401,26.7895149 C68.7681848,26.7895149 70.7254102,24.8849208 70.7254102,22.1744103 C70.7254102,19.4310052 68.7714742,17.5593056 66.5050401,17.5593056 Z M100.231817,17.5560161 C97.9259096,17.5560161 95.9917103,19.5198205 95.9917103,22.2007259 C95.9917103,24.8553157 97.9259096,26.7895149 100.231817,26.7895149 C102.511409,26.7895149 104.300872,24.8553157 104.300872,22.2007259 C104.300872,19.5198205 102.511409,17.5560161 100.231817,17.5560161 Z M122.258005,17.5000954 C120.554067,17.5000954 118.188949,19.0000954 118.274475,21.9441484 L125.083646,19.1152176 C124.708648,18.1645652 123.583655,17.5000954 122.258005,17.5000954 Z" id="Combined-Shape" fill="#FFFFFF"></path>
            <g id="g842" fill-rule="nonzero">
                <path d="M7.04930103,27.1939205 C8.18416283,28.6116754 9.33547191,30.3879808 9.94073154,31.4636324 C10.6775694,32.8616506 10.9801992,33.8057241 11.5295381,35.4899248 C11.8519046,36.4175509 12.1545344,36.700444 12.7959781,36.700444 C13.4966319,36.700444 13.815709,36.2267626 14.0624181,35.4899248 C14.5722835,33.9011182 14.9703075,32.6938884 15.5920144,31.5392899 C16.8189809,29.3287765 18.3716035,27.3616827 19.8814631,25.4735358 C20.2959344,24.9439336 22.9439452,21.8255307 24.1347278,19.3518609 C24.1347278,19.3518609 25.5886667,16.6479293 25.5886667,12.8683461 C25.5886667,9.33547191 24.151175,6.87824939 24.151175,6.87824939 L19.9933045,7.99337447 L17.4604246,14.6446515 L16.8354282,15.5525409 L16.70385,15.7235926 L16.5327984,15.9308282 L16.2499053,16.269642 L15.835434,16.6841133 L13.5854471,18.5163395 L7.97363774,21.7663205 L7.04930103,27.1939205 Z" id="path835" fill="#34A853"></path>
                <path d="M1.24670326,18.8979162 C2.6249847,22.0360558 5.25325886,24.7761714 7.04930103,27.1939205 L16.5558246,15.9308282 C16.5558246,15.9308282 15.2137271,17.6873969 12.7959781,17.6873969 C10.0920465,17.6873969 7.90126975,15.5328042 7.90126975,12.8124253 C7.90126975,10.9407257 9.01639483,9.65783846 9.01639483,9.65783846 L2.56906398,11.3782232 L1.24670326,18.8979162 Z" id="path833" fill="#FBBC04"></path>
                <path d="M16.667666,0.585522904 C19.8222529,1.6052538 22.5261845,3.74010978 24.151175,6.89798612 L16.5525351,15.9505649 C16.5525351,15.9505649 17.6676602,14.647941 17.6676602,12.7959781 C17.6676602,10.016389 15.3255686,7.92100647 12.7926886,7.92100647 C10.3913868,7.92100647 9.01310537,9.66112791 9.01310537,9.66112791 L9.01310537,3.95063487 L16.667666,0.585522904 Z" id="path831" fill="#4285F4"></path>
                <path d="M2.98353525,4.57234178 C4.87168214,2.32235489 8.18087338,-9.34919204e-16 12.7532152,-9.34919204e-16 C14.9637286,-9.34919204e-16 16.6446398,0.585522904 16.6446398,0.585522904 L9.01310537,9.65783846 L3.6085316,9.65783846 L2.98353525,4.57234178 Z" id="path829" fill="#1A73E8"></path>
                <path d="M1.24670326,18.8979162 C1.24670326,18.8979162 8.78852158e-16,16.4209569 8.78852158e-16,12.8518988 C8.78852158e-16,9.47033955 1.32236072,6.51969885 3.00327197,4.5920785 L9.0328421,9.67428573 L1.24670326,18.8979162 Z" id="path827" fill="#EA4335"></path>
            </g>
        </g>
    </g>
</svg>