<?xml version="1.0" encoding="UTF-8"?>
<svg width="200px" height="60px" viewBox="0 0 200 60" version="1.1" xmlns="http://www.w3.org/2000/svg" xmlns:xlink="http://www.w3.org/1999/xlink">
    <title>UI Elements/Logos/SVG /logo_BrainTree</title>
    <g id="UI-Elements/Logos/logo_BrainTree" stroke="none" stroke-width="1" fill="none" fill-rule="evenodd">
        <g id="braintree_logo" transform="translate(-0.473684, 17.000000)" fill="#FFFFFF">
            <path d="M54.7955492,8.25613774 C59.1904849,8.25613774 62.5998201,10.5974723 62.5998201,15.033208 L62.5998201,22.8374788 L65.1462214,22.8374788 L65.1462214,26.3289474 L58.9030181,26.3289474 L58.9030181,24.4806797 C57.9582176,26.0004139 55.4118162,26.9036143 52.9059482,26.9036143 C49.2912796,26.9036143 46.169678,25.05588 46.169678,21.4001447 C46.169678,17.0873424 50.4006135,15.4441416 54.2611489,15.4441416 C56.1510166,15.4441416 57.7118174,15.8140084 58.9030181,16.1425419 L58.9030181,15.1566748 C58.9030181,12.6921401 56.931017,11.6649396 54.7955492,11.6649396 C52.7827482,11.6649396 51.0576806,12.4870733 49.6608798,13.7596073 L47.2784785,11.172406 C48.9219461,9.65240515 51.263014,8.25613774 54.7955492,8.25613774 Z M121.626705,2.505308 L121.626705,8.83091138 L130.129109,8.83091138 L130.129109,12.3223799 L121.626705,12.3223799 L121.626705,19.6746505 C121.626705,22.3858519 123.516306,23.4946525 125.693107,23.4946525 C127.746975,23.4946525 129.472309,22.3447853 130.745376,21.0714512 L133.168844,23.5767859 C131.566977,25.3021202 129.102442,26.903721 125.693107,26.903721 C121.298171,26.903721 118.012303,24.4805197 118.012303,19.7981172 L118.012303,12.3223799 L113.453101,12.3223799 L113.453101,8.83091138 L118.012303,8.83091138 L118.012303,2.505308 L121.626705,2.505308 Z M168.16617,8.2560044 C173.670173,8.2560044 177.530975,12.48694 177.530975,18.2370764 L177.530975,18.8533434 L162.456833,18.8533434 C163.072834,21.7696116 165.496302,23.5357459 168.65897,23.5357459 C171.287771,23.5357459 173.546706,22.4677453 174.77924,21.1125446 L177.202708,23.6592126 C175.395507,25.5482803 172.191505,26.9037477 168.617903,26.9037477 C162.7443,26.9037477 158.636831,22.9605456 158.636831,17.5797427 C158.636831,12.1992065 162.6211,8.2560044 168.16617,8.2560044 Z M190.634662,8.2560044 C196.139198,8.2560044 200,12.48694 200,18.2370764 L200,18.8533434 L184.925325,18.8533434 C185.541859,21.7696116 187.965327,23.5357459 191.127995,23.5357459 C193.756797,23.5357459 196.015731,22.4677453 197.247999,21.1125446 L199.671466,23.6592126 C197.863999,25.5482803 194.66053,26.9037477 191.086929,26.9037477 C185.213059,26.9037477 181.10559,22.9605456 181.10559,17.5797427 C181.10559,12.1992065 185.089592,8.2560044 190.634662,8.2560044 Z M11.0080059,2.50528134 C16.0602752,2.50528134 19.1408102,4.84661592 19.1408102,8.91328475 C19.1408102,11.5831528 17.5800094,13.2260871 15.6085417,14.0063541 C18.4426765,14.7871546 20.4552109,16.799689 20.4552109,19.5514238 C20.4552109,23.9052927 17.0872091,26.3290274 11.5829395,26.3290274 L0,26.3290274 L0,22.8375588 L2.75200147,22.8375588 L2.75200147,5.99701653 L0,5.99701653 L0,2.50528134 L11.0080059,2.50528134 Z M37.7895668,8.25605774 C41.1578353,8.25605774 43.2525031,10.1867254 43.8687701,12.9384602 L40.4183682,13.9243274 C40.0077013,12.52806 38.9807675,11.7061929 37.6253001,11.7061929 C34.4628984,11.7061929 31.4639634,14.0475275 31.4639634,18.3189964 L31.4639634,22.8376655 L37.5434334,22.8376655 L37.5434334,26.329134 L23.9887595,26.329134 L23.9887595,22.8376655 L27.8495615,22.8376655 L27.8495615,12.3224599 L24.8100932,12.3224599 L24.8100932,8.83072471 L31.4231634,8.83072471 L31.4231634,11.7883263 C32.5322307,9.73445853 34.7911652,8.25605774 37.7895668,8.25605774 Z M80.3447629,8.83093804 L80.3447629,22.8376122 L87.0812998,22.8376122 L87.0812998,26.3290807 L69.4188904,26.3290807 L69.4188904,22.8376122 L76.7306276,22.8376122 L76.7306276,12.3224066 L71.1442246,12.3224066 L71.1442246,8.83093804 L80.3447629,8.83093804 Z M103.675975,8.2560044 C107.578377,8.2560044 110.371446,10.7205391 110.371446,14.7045412 L110.371446,22.8376122 L113.04158,22.8376122 L113.04158,26.3290807 L103.963975,26.3290807 L103.963975,22.8376122 L106.757044,22.8376122 L106.757044,15.6901417 C106.757044,12.6509401 104.908509,11.788273 103.224508,11.788273 C100.47224,11.788273 97.7205055,13.8424074 97.7205055,17.0048091 L97.7205055,22.8376122 L100.513307,22.8376122 L100.513307,26.3290807 L91.4362354,26.3290807 L91.4362354,22.8376122 L94.1058369,22.8376122 L94.1058369,12.3224066 L91.5999689,12.3224066 L91.5999689,8.83093804 L97.6794388,8.83093804 L97.6794388,11.0898726 C98.7474393,9.36507166 100.965307,8.2560044 103.675975,8.2560044 Z M150.25696,8.25605774 C153.624962,8.25605774 155.71963,10.1867254 156.335897,12.9384602 L152.885495,13.9243274 C152.474561,12.52806 151.447894,11.7061929 150.09216,11.7061929 C146.930025,11.7061929 143.93109,14.0475275 143.93109,18.3189964 L143.93109,22.8376655 L150.01056,22.8376655 L150.01056,26.329134 L136.455619,26.329134 L136.455619,22.8376655 L140.316422,22.8376655 L140.316422,12.3224599 L137.27722,12.3224599 L137.27722,8.83072471 L143.89029,8.83072471 L143.89029,11.7883263 C144.999357,9.73445853 147.258292,8.25605774 150.25696,8.25605774 Z M54.4256824,18.5249432 C52.1254145,18.5249432 49.9075466,19.2638769 49.9075466,21.3590781 C49.9075466,22.9196122 51.303814,23.6590793 53.2344817,23.6590793 C55.9043498,23.6590793 58.9030181,22.2212119 58.9030181,19.7572105 L58.9030181,19.2638769 C57.7528841,18.8532101 56.0275499,18.5249432 54.4256824,18.5249432 Z M10.9258725,15.8548885 L6.53093682,15.8548885 L6.53093682,22.8375588 L11.2133393,22.8375588 C14.8280079,22.8375588 16.6352089,21.6460915 16.6352089,19.3458237 C16.6352089,17.0874224 14.7048078,15.8548885 10.9258725,15.8548885 Z M168.16617,11.5829395 C165.372835,11.5829395 163.2371,13.3082738 162.6211,15.7728084 L173.382439,15.7728084 C172.848572,13.2672071 170.630438,11.5829395 168.16617,11.5829395 Z M190.634662,11.5829395 C187.842127,11.5829395 185.706126,13.3082738 185.089592,15.7728084 L195.851464,15.7728084 C195.317598,13.2672071 193.099463,11.5829395 190.634662,11.5829395 Z M10.597339,5.99701653 L6.53093682,5.99701653 L6.53093682,12.4868867 L10.6384057,12.4868867 C13.7189407,12.4868867 15.3208082,11.336486 15.3208082,9.24181826 C15.3208082,7.10581712 13.677874,5.99701653 10.597339,5.99701653 Z M80.3447629,0 L80.3447629,5.33973618 L76.2783607,5.33973618 L76.2783607,0 L80.3447629,0 Z" id="Combined-Shape"></path>
        </g>
    </g>
</svg>