<?xml version="1.0" encoding="UTF-8"?>
<svg width="200px" height="60px" viewBox="0 0 200 60" version="1.1" xmlns="http://www.w3.org/2000/svg" xmlns:xlink="http://www.w3.org/1999/xlink">
    <title>UI Elements/Logos/SVG /logo_github</title>
    <defs>
        <polygon id="path-1" points="0 0 29.4795146 0 29.4795146 40.5650877 0 40.5650877"></polygon>
        <polygon id="path-3" points="2.36727242e-14 0 24.9374901 0 24.9374901 39.055147 2.36727242e-14 39.055147"></polygon>
    </defs>
    <g id="UI-Elements/Logos/logo_github" stroke="none" stroke-width="1" fill="none" fill-rule="evenodd">
        <g id="Group-17" transform="translate(50.000000, 10.000000)">
            <g id="Group-3">
                <mask id="mask-2" fill="white">
                    <use xlink:href="#path-1"></use>
                </mask>
                <g id="Clip-2"></g>
                <path d="M28.8906473,17.3622992 L16.2858047,17.3622992 C15.9605534,17.3622992 15.6965209,17.6263316 15.6965209,17.9515829 L15.6965209,24.1142836 C15.6965209,24.4395349 15.9605534,24.7039838 16.2858047,24.7039838 L21.2028885,24.7039838 L21.2028885,32.3609249 C21.2028885,32.3609249 20.0988664,32.7374002 17.0462515,32.7374002 C13.4451654,32.7374002 8.41438935,31.4214025 8.41438935,20.3586927 C8.41438935,9.2939006 13.6525599,7.83797403 18.5708931,7.83797403 C22.8278958,7.83797403 24.6619635,8.58759297 25.8292868,8.94865943 C26.1957672,9.06110227 26.5347615,8.69587127 26.5347615,8.37061993 L27.9411299,2.41614679 C27.9411299,2.26372427 27.8894895,2.08048409 27.7162442,1.95596405 C27.241902,1.61780262 24.3508716,-0.000124936491 17.0462515,-0.000124936491 C8.63136239,-0.000124936491 -8.32909937e-05,3.58013843 -8.32909937e-05,20.79014 C-8.32909937e-05,38.000558 9.88239312,40.5650877 18.2102431,40.5650877 C25.105488,40.5650877 29.2883617,37.6186688 29.2883617,37.6186688 C29.4607741,37.5237171 29.4795146,37.2825897 29.4795146,37.1722291 L29.4795146,17.9515829 C29.4795146,17.6263316 29.2158986,17.3622992 28.8906473,17.3622992" id="Fill-1" fill="#FEFEFE" mask="url(#mask-2)"></path>
            </g>
            <path d="M93.8506259,2.06216007 C93.8506259,1.73441001 93.590758,1.46954465 93.2655067,1.46954465 L86.1682811,1.46954465 C85.8442792,1.46954465 85.5806632,1.73441001 85.5806632,2.06216007 C85.5806632,2.06382589 85.582329,15.777688 85.582329,15.777688 L74.5196192,15.777688 L74.5196192,2.06216007 C74.5196192,1.73441001 74.2585019,1.46954465 73.9340835,1.46954465 L66.8372744,1.46954465 C66.5141053,1.46954465 66.2509058,1.73441001 66.2509058,2.06216007 L66.2509058,39.2007813 C66.2509058,39.5281149 66.5141053,39.7946461 66.8372744,39.7946461 L73.9340835,39.7946461 C74.2585019,39.7946461 74.5196192,39.5281149 74.5196192,39.2007813 L74.5196192,23.3151065 L85.582329,23.3151065 C85.582329,23.3151065 85.5631721,39.1995319 85.5631721,39.2007813 C85.5631721,39.5281149 85.8263716,39.7946461 86.1512065,39.7946461 L93.2650902,39.7946461 C93.5903416,39.7946461 93.8502095,39.5281149 93.8506259,39.2007813 L93.8506259,2.06216007 Z" id="Fill-4" fill="#FEFEFE"></path>
            <path d="M42.2835059,6.93547447 C42.2835059,4.38010678 40.2345474,2.31490659 37.7066658,2.31490659 C35.1812828,2.31490659 33.131075,4.38010678 33.131075,6.93547447 C33.131075,9.48834343 35.1812828,11.559374 37.7066658,11.559374 C40.2345474,11.559374 42.2835059,9.48834343 42.2835059,6.93547447" id="Fill-6" fill="#FEFEFE"></path>
            <path d="M41.7759722,31.3663888 L41.7759722,14.22302 C41.7759722,13.8977686 41.5131891,13.6316539 41.1887707,13.6316539 L34.1140337,13.6316539 C33.7891988,13.6316539 33.4989297,13.9664837 33.4989297,14.291735 L33.4989297,38.8529997 C33.4989297,39.5742997 33.9487011,39.7891905 34.5309051,39.7891905 L40.9051649,39.7891905 C41.6043928,39.7891905 41.7759722,39.4456151 41.7759722,38.841339 L41.7759722,31.3663888 Z" id="Fill-8" fill="#FEFEFE"></path>
            <path d="M120.823623,13.6874172 L113.780537,13.6874172 C113.457784,13.6874172 113.194584,13.953532 113.194584,14.281282 L113.194584,32.491192 C113.194584,32.491192 111.405494,33.8005264 108.865951,33.8005264 C106.326409,33.8005264 105.652585,32.6481955 105.652585,30.1615429 L105.652585,14.281282 C105.652585,13.953532 105.390218,13.6874172 105.067049,13.6874172 L97.9190162,13.6874172 C97.5962636,13.6874172 97.3322311,13.953532 97.3322311,14.281282 L97.3322311,31.3638484 C97.3322311,38.7496772 101.448472,40.5566754 107.11101,40.5566754 C111.756565,40.5566754 115.502161,37.9904798 115.502161,37.9904798 C115.502161,37.9904798 115.680821,39.3427091 115.761196,39.5030443 C115.841989,39.662963 116.052298,39.8245475 116.279266,39.8245475 L120.826538,39.8045577 C121.149291,39.8045577 121.413323,39.5380265 121.413323,39.2115258 L121.411241,14.281282 C121.411241,13.953532 121.148041,13.6874172 120.823623,13.6874172" id="Fill-10" fill="#FEFEFE"></path>
            <g id="Group-14" transform="translate(125.062510, 1.469753)">
                <mask id="mask-4" fill="white">
                    <use xlink:href="#path-3"></use>
                </mask>
                <g id="Clip-13"></g>
                <path d="M12.2325318,32.30816 C9.78960695,32.2336146 8.13253263,31.1254279 8.13253263,31.1254279 L8.13253263,19.3643231 C8.13253263,19.3643231 9.76753484,18.3623325 11.7727655,18.1832568 C14.3089763,17.9562889 16.752734,18.7221496 16.752734,24.7724074 C16.752734,31.152081 15.6499613,32.4110244 12.2325318,32.30816 M15.0102864,11.3833801 C11.0102365,11.3833801 8.28953615,13.1678897 8.28953615,13.1678897 L8.28953615,0.59261542 C8.28953615,0.264448905 8.02758598,0 7.70400047,0 L0.586368596,0 C0.262783085,0 2.36727242e-14,0.264448905 2.36727242e-14,0.59261542 L2.36727242e-14,37.7308202 C2.36727242e-14,38.0585702 0.262783085,38.3251014 0.587617961,38.3251014 L5.52552453,38.3251014 C5.74791148,38.3251014 5.91615929,38.2101598 6.04067932,38.0094285 C6.16311708,37.8099466 6.3405269,36.2973822 6.3405269,36.2973822 C6.3405269,36.2973822 9.25071422,39.055147 14.7604135,39.055147 C21.2283756,39.055147 24.93774,35.7743147 24.93774,24.3268005 C24.93774,12.8792864 19.0136681,11.3833801 15.0102864,11.3833801" id="Fill-12" fill="#FEFEFE" mask="url(#mask-4)"></path>
            </g>
            <path d="M62.1738949,13.628239 L56.8499346,13.628239 C56.8499346,13.628239 56.842022,6.59639683 56.842022,6.59473101 C56.842022,6.32861629 56.7050083,6.19576715 56.3972481,6.19576715 L49.1421861,6.19576715 C48.860246,6.19576715 48.7086564,6.31987073 48.7086564,6.59098292 L48.7086564,13.858955 C48.7086564,13.858955 45.0730046,14.7364257 44.8268797,14.8076394 C44.5824206,14.8784368 44.4020956,15.1041554 44.4020956,15.3736018 L44.4020956,19.9408634 C44.4020956,20.2694464 44.6644622,20.5343117 44.9888807,20.5343117 L48.7086564,20.5343117 L48.7086564,31.5220596 C48.7086564,39.6833276 54.4332464,40.484587 58.2962827,40.484587 C60.0612189,40.484587 62.1726456,39.9177918 62.5212184,39.7891072 C62.7319446,39.7116466 62.8547988,39.4934242 62.8547988,39.2568778 L62.8606292,34.2323486 C62.8606292,33.905015 62.5836866,33.6393167 62.2721783,33.6393167 C61.9619194,33.6393167 61.1681562,33.765919 60.3510715,33.765919 C57.7361508,33.765919 56.8499346,32.5498705 56.8499346,30.9760872 C56.8499346,29.4031367 56.8499346,20.5343117 56.8499346,20.5343117 L62.1738949,20.5343117 C62.4983134,20.5343117 62.7615129,20.2694464 62.7615129,19.9408634 L62.7615129,14.2200215 C62.7615129,13.8922714 62.4983134,13.628239 62.1738949,13.628239" id="Fill-15" fill="#FEFEFE"></path>
        </g>
        <g id="logo-github" transform="translate(7.497703, 11.997326)" fill="#FFFFFF">
            <path d="M18,0.45 C8.025,0.45 0,8.475 0,18.45 C0,26.4 5.175,33.15 12.3,35.55 C13.2,35.7 13.5,35.175 13.5,34.65 C13.5,34.2 13.5,33.075 13.5,31.575 C8.475,32.7 7.425,29.175 7.425,29.175 C6.6,27.075 5.4,26.55 5.4,26.55 C3.75,25.425 5.55,25.425 5.55,25.425 C7.35,25.575 8.325,27.3 8.325,27.3 C9.9,30.075 12.525,29.25 13.575,28.8 C13.725,27.6 14.175,26.85 14.7,26.4 C10.725,25.95 6.525,24.375 6.525,17.475 C6.525,15.525 7.2,13.875 8.4,12.675 C8.25,12.225 7.575,10.425 8.55,7.875 C8.55,7.875 10.05,7.425 13.5,9.75 C14.925,9.375 16.5,9.15 18,9.15 C19.5,9.15 21.075,9.375 22.5,9.75 C25.95,7.425 27.45,7.875 27.45,7.875 C28.425,10.35 27.825,12.15 27.6,12.675 C28.725,13.95 29.475,15.525 29.475,17.475 C29.475,24.375 25.275,25.875 21.225,26.325 C21.9,26.85 22.425,27.975 22.425,29.625 C22.425,32.025 22.425,33.975 22.425,34.575 C22.425,35.025 22.725,35.625 23.7,35.475 C30.825,33.15 36,26.4 36,18.45 C36,8.475 27.975,0.45 18,0.45 Z" id="Path"></path>
        </g>
    </g>
</svg>