<?xml version="1.0" encoding="UTF-8"?>
<svg width="150px" height="50px" viewBox="0 0 150 50" version="1.1" xmlns="http://www.w3.org/2000/svg" xmlns:xlink="http://www.w3.org/1999/xlink">
    <title>SVG /macStore_button_alt</title>
    <g id="marketingMaterials" stroke="none" stroke-width="1" fill="none" fill-rule="evenodd">
        <g id="graphicsFull_2" transform="translate(-5125.000000, -246.000000)">
            <g id="macStore_button_alt" transform="translate(5125.000000, 246.000000)">
                <rect id="path-1" fill="#DBE2E7" x="0" y="1" width="150" height="48.5714286" rx="24.285714"></rect>
                <rect id="path-1" fill="#FFFFFF" x="0" y="0" width="150" height="48.5714286" rx="24.285714"></rect>
                <path d="M57.896,29.16 L59.864,29.16 L59.864,30.184 L59.992,30.184 C60.2373333,29.8 60.5706667,29.4906667 60.992,29.256 C61.4133333,29.0213333 61.88,28.904 62.392,28.904 C62.9893333,28.904 63.4906667,29.0426667 63.896,29.32 C64.3013333,29.5973333 64.5893333,29.9386667 64.76,30.344 C65.0053333,29.9493333 65.352,29.6106667 65.8,29.328 C66.248,29.0453333 66.792,28.904 67.432,28.904 C67.912,28.904 68.328,28.9813333 68.68,29.136 C69.032,29.2906667 69.3226667,29.5066667 69.552,29.784 C69.7813333,30.0613333 69.9546667,30.3946667 70.072,30.784 C70.1893333,31.1733333 70.248,31.5973333 70.248,32.056 L70.248,37 L68.152,37 L68.152,32.44 C68.152,31.3733333 67.7146667,30.84 66.84,30.84 C66.5626667,30.84 66.3173333,30.9013333 66.104,31.024 C65.8906667,31.1466667 65.712,31.312 65.568,31.52 C65.424,31.728 65.312,31.976 65.232,32.264 C65.152,32.552 65.112,32.8613333 65.112,33.192 L65.112,37 L63.016,37 L63.016,32.44 C63.016,31.3733333 62.5573333,30.84 61.64,30.84 C61.3733333,30.84 61.1386667,30.9013333 60.936,31.024 C60.7333333,31.1466667 60.5626667,31.312 60.424,31.52 C60.2853333,31.728 60.1786667,31.976 60.104,32.264 C60.0293333,32.552 59.992,32.8613333 59.992,33.192 L59.992,37 L57.896,37 L57.896,29.16 Z M76.808,36.168 L76.68,36.168 C76.4346667,36.4666667 76.1386667,36.7226667 75.792,36.936 C75.4453333,37.1493333 75,37.256 74.456,37.256 C74.0506667,37.256 73.6693333,37.1893333 73.312,37.056 C72.9546667,36.9226667 72.6426667,36.7386667 72.376,36.504 C72.1093333,36.2693333 71.9013333,35.9866667 71.752,35.656 C71.6026667,35.3253333 71.528,34.9626667 71.528,34.568 C71.528,34.1626667 71.608,33.7973333 71.768,33.472 C71.928,33.1466667 72.152,32.8666667 72.44,32.632 C72.728,32.3973333 73.0666667,32.2186667 73.456,32.096 C73.8453333,31.9733333 74.2693333,31.912 74.728,31.912 C75.24,31.912 75.6613333,31.952 75.992,32.032 C76.3226667,32.112 76.5946667,32.1946667 76.808,32.28 L76.808,32.04 C76.808,31.624 76.6426667,31.28 76.312,31.008 C75.9813333,30.736 75.5706667,30.6 75.08,30.6 C74.3546667,30.6 73.7413333,30.904 73.24,31.512 L71.72,30.472 C72.552,29.4266667 73.688,28.904 75.128,28.904 C76.344,28.904 77.272,29.1893333 77.912,29.76 C78.552,30.3306667 78.872,31.176 78.872,32.296 L78.872,37 L76.808,37 L76.808,36.168 Z M76.808,33.816 C76.5626667,33.6986667 76.3093333,33.6053333 76.048,33.536 C75.7866667,33.4666667 75.5013333,33.432 75.192,33.432 C74.6906667,33.432 74.304,33.5413333 74.032,33.76 C73.76,33.9786667 73.624,34.248 73.624,34.568 C73.624,34.888 73.7546667,35.144 74.016,35.336 C74.2773333,35.528 74.5786667,35.624 74.92,35.624 C75.1973333,35.624 75.4533333,35.5733333 75.688,35.472 C75.9226667,35.3706667 76.1226667,35.2373333 76.288,35.072 C76.4533333,34.9066667 76.5813333,34.7146667 76.672,34.496 C76.7626667,34.2773333 76.808,34.0506667 76.808,33.816 Z M87.976,35 C87.6346667,35.6613333 87.1573333,36.2026667 86.544,36.624 C85.9306667,37.0453333 85.1653333,37.256 84.248,37.256 C83.64,37.256 83.0826667,37.152 82.576,36.944 C82.0693333,36.736 81.632,36.4453333 81.264,36.072 C80.896,35.6986667 80.608,35.2586667 80.4,34.752 C80.192,34.2453333 80.088,33.688 80.088,33.08 C80.088,32.472 80.192,31.912 80.4,31.4 C80.608,30.888 80.896,30.448 81.264,30.08 C81.632,29.712 82.0693333,29.424 82.576,29.216 C83.0826667,29.008 83.64,28.904 84.248,28.904 C85.1546667,28.904 85.9173333,29.112 86.536,29.528 C87.1546667,29.944 87.608,30.4826667 87.896,31.144 L85.976,31.944 C85.7946667,31.5813333 85.5626667,31.3066667 85.28,31.12 C84.9973333,30.9333333 84.6426667,30.84 84.216,30.84 C83.9386667,30.84 83.6773333,30.8933333 83.432,31 C83.1866667,31.1066667 82.9706667,31.256 82.784,31.448 C82.5973333,31.64 82.4506667,31.8746667 82.344,32.152 C82.2373333,32.4293333 82.184,32.7386667 82.184,33.08 C82.184,33.4213333 82.2373333,33.7306667 82.344,34.008 C82.4506667,34.2853333 82.5973333,34.52 82.784,34.712 C82.9706667,34.904 83.1866667,35.0533333 83.432,35.16 C83.6773333,35.2666667 83.9386667,35.32 84.216,35.32 C84.6533333,35.32 85.024,35.2213333 85.328,35.024 C85.632,34.8266667 85.8746667,34.5413333 86.056,34.168 L87.976,35 Z M94.936,37.256 C94.0826667,37.256 93.2906667,37.1013333 92.56,36.792 C91.8293333,36.4826667 91.1973333,36.0586667 90.664,35.52 C90.1306667,34.9813333 89.712,34.3466667 89.408,33.616 C89.104,32.8853333 88.952,32.104 88.952,31.272 C88.952,30.44 89.104,29.6586667 89.408,28.928 C89.712,28.1973333 90.1306667,27.5626667 90.664,27.024 C91.1973333,26.4853333 91.8293333,26.0613333 92.56,25.752 C93.2906667,25.4426667 94.0826667,25.288 94.936,25.288 C95.7893333,25.288 96.5813333,25.4426667 97.312,25.752 C98.0426667,26.0613333 98.6746667,26.4853333 99.208,27.024 C99.7413333,27.5626667 100.16,28.1973333 100.464,28.928 C100.768,29.6586667 100.92,30.44 100.92,31.272 C100.92,32.104 100.768,32.8853333 100.464,33.616 C100.16,34.3466667 99.7413333,34.9813333 99.208,35.52 C98.6746667,36.0586667 98.0426667,36.4826667 97.312,36.792 C96.5813333,37.1013333 95.7893333,37.256 94.936,37.256 Z M94.936,35.208 C95.4693333,35.208 95.968,35.112 96.432,34.92 C96.896,34.728 97.3013333,34.4613333 97.648,34.12 C97.9946667,33.7786667 98.2666667,33.3653333 98.464,32.88 C98.6613333,32.3946667 98.76,31.8586667 98.76,31.272 C98.76,30.6853333 98.6613333,30.1493333 98.464,29.664 C98.2666667,29.1786667 97.9946667,28.7653333 97.648,28.424 C97.3013333,28.0826667 96.896,27.816 96.432,27.624 C95.968,27.432 95.4693333,27.336 94.936,27.336 C94.4026667,27.336 93.904,27.432 93.44,27.624 C92.976,27.816 92.5706667,28.0826667 92.224,28.424 C91.8773333,28.7653333 91.6053333,29.1786667 91.408,29.664 C91.2106667,30.1493333 91.112,30.6853333 91.112,31.272 C91.112,31.8586667 91.2106667,32.3946667 91.408,32.88 C91.6053333,33.3653333 91.8773333,33.7786667 92.224,34.12 C92.5706667,34.4613333 92.976,34.728 93.44,34.92 C93.904,35.112 94.4026667,35.208 94.936,35.208 Z M106.168,37.256 C105.677333,37.256 105.208,37.1866667 104.76,37.048 C104.312,36.9093333 103.901333,36.7013333 103.528,36.424 C103.154667,36.1466667 102.829333,35.808 102.552,35.408 C102.274667,35.008 102.056,34.5413333 101.896,34.008 L103.928,33.208 C104.077333,33.784 104.338667,34.2613333 104.712,34.64 C105.085333,35.0186667 105.576,35.208 106.184,35.208 C106.408,35.208 106.624,35.1786667 106.832,35.12 C107.04,35.0613333 107.226667,34.976 107.392,34.864 C107.557333,34.752 107.688,34.6106667 107.784,34.44 C107.88,34.2693333 107.928,34.072 107.928,33.848 C107.928,33.6346667 107.890667,33.4426667 107.816,33.272 C107.741333,33.1013333 107.616,32.9413333 107.44,32.792 C107.264,32.6426667 107.034667,32.4986667 106.752,32.36 C106.469333,32.2213333 106.12,32.0773333 105.704,31.928 L105,31.672 C104.690667,31.5653333 104.378667,31.4213333 104.064,31.24 C103.749333,31.0586667 103.464,30.84 103.208,30.584 C102.952,30.328 102.741333,30.0266667 102.576,29.68 C102.410667,29.3333333 102.328,28.9413333 102.328,28.504 C102.328,28.056 102.416,27.6373333 102.592,27.248 C102.768,26.8586667 103.018667,26.5173333 103.344,26.224 C103.669333,25.9306667 104.058667,25.7013333 104.512,25.536 C104.965333,25.3706667 105.469333,25.288 106.024,25.288 C106.6,25.288 107.098667,25.3653333 107.52,25.52 C107.941333,25.6746667 108.298667,25.872 108.592,26.112 C108.885333,26.352 109.122667,26.616 109.304,26.904 C109.485333,27.192 109.618667,27.464 109.704,27.72 L107.8,28.52 C107.693333,28.2 107.498667,27.912 107.216,27.656 C106.933333,27.4 106.546667,27.272 106.056,27.272 C105.586667,27.272 105.197333,27.3813333 104.888,27.6 C104.578667,27.8186667 104.424,28.104 104.424,28.456 C104.424,28.7973333 104.573333,29.088 104.872,29.328 C105.170667,29.568 105.645333,29.8 106.296,30.024 L107.016,30.264 C107.474667,30.424 107.893333,30.608 108.272,30.816 C108.650667,31.024 108.976,31.272 109.248,31.56 C109.52,31.848 109.728,32.176 109.872,32.544 C110.016,32.912 110.088,33.336 110.088,33.816 C110.088,34.4133333 109.968,34.928 109.728,35.36 C109.488,35.792 109.181333,36.1466667 108.808,36.424 C108.434667,36.7013333 108.013333,36.9093333 107.544,37.048 C107.074667,37.1866667 106.616,37.256 106.168,37.256 Z M57.864,19 L57.864,10.408 L60.492,10.408 C61.804,10.408 62.858,10.804 63.654,11.596 C64.45,12.388 64.848,13.424 64.848,14.704 C64.848,15.992 64.45,17.03 63.654,17.818 C62.858,18.606 61.804,19 60.492,19 L57.864,19 Z M58.968,11.464 L58.968,17.944 L60.492,17.944 C61.492,17.944 62.28,17.658 62.856,17.086 C63.432,16.514 63.72,15.72 63.72,14.704 C63.72,13.696 63.432,12.904 62.856,12.328 C62.28,11.752 61.492,11.464 60.492,11.464 L58.968,11.464 Z M65.628,16.06 C65.628,15.156 65.912,14.408 66.48,13.816 C67.056,13.224 67.78,12.928 68.652,12.928 C69.524,12.928 70.244,13.224 70.812,13.816 C71.388,14.408 71.676,15.156 71.676,16.06 C71.676,16.972 71.388,17.72 70.812,18.304 C70.244,18.896 69.524,19.192 68.652,19.192 C67.78,19.192 67.056,18.896 66.48,18.304 C65.912,17.712 65.628,16.964 65.628,16.06 Z M66.732,16.06 C66.732,16.692 66.916,17.204 67.284,17.596 C67.652,17.988 68.108,18.184 68.652,18.184 C69.196,18.184 69.652,17.988 70.02,17.596 C70.388,17.204 70.572,16.692 70.572,16.06 C70.572,15.436 70.388,14.928 70.02,14.536 C69.644,14.136 69.188,13.936 68.652,13.936 C68.116,13.936 67.66,14.136 67.284,14.536 C66.916,14.928 66.732,15.436 66.732,16.06 Z M81.012,13.12 L79.116,19 L77.988,19 L76.524,14.488 L75.072,19 L73.956,19 L72.06,13.12 L73.212,13.12 L74.52,17.56 L74.532,17.56 L75.984,13.12 L77.124,13.12 L78.576,17.56 L78.588,17.56 L79.884,13.12 L81.012,13.12 Z M81.732,13.12 L82.788,13.12 L82.788,13.936 L82.836,13.936 C83.004,13.648 83.262,13.408 83.61,13.216 C83.958,13.024 84.32,12.928 84.696,12.928 C85.416,12.928 85.97,13.134 86.358,13.546 C86.746,13.958 86.94,14.544 86.94,15.304 L86.94,19 L85.836,19 L85.836,15.376 C85.812,14.416 85.328,13.936 84.384,13.936 C83.944,13.936 83.576,14.114 83.28,14.47 C82.984,14.826 82.836,15.252 82.836,15.748 L82.836,19 L81.732,19 L81.732,13.12 Z M89.34,10.408 L89.34,19 L88.236,19 L88.236,10.408 L89.34,10.408 Z M90.348,16.06 C90.348,15.156 90.632,14.408 91.2,13.816 C91.776,13.224 92.5,12.928 93.372,12.928 C94.244,12.928 94.964,13.224 95.532,13.816 C96.108,14.408 96.396,15.156 96.396,16.06 C96.396,16.972 96.108,17.72 95.532,18.304 C94.964,18.896 94.244,19.192 93.372,19.192 C92.5,19.192 91.776,18.896 91.2,18.304 C90.632,17.712 90.348,16.964 90.348,16.06 Z M91.452,16.06 C91.452,16.692 91.636,17.204 92.004,17.596 C92.372,17.988 92.828,18.184 93.372,18.184 C93.916,18.184 94.372,17.988 94.74,17.596 C95.108,17.204 95.292,16.692 95.292,16.06 C95.292,15.436 95.108,14.928 94.74,14.536 C94.364,14.136 93.908,13.936 93.372,13.936 C92.836,13.936 92.38,14.136 92.004,14.536 C91.636,14.928 91.452,15.436 91.452,16.06 Z M98.208,17.2 C98.208,17.488 98.33,17.728 98.574,17.92 C98.818,18.112 99.104,18.208 99.432,18.208 C99.896,18.208 100.31,18.036 100.674,17.692 C101.038,17.348 101.22,16.944 101.22,16.48 C100.876,16.208 100.396,16.072 99.78,16.072 C99.332,16.072 98.958,16.18 98.658,16.396 C98.358,16.612 98.208,16.88 98.208,17.2 Z M99.636,12.928 C100.452,12.928 101.096,13.146 101.568,13.582 C102.04,14.018 102.276,14.616 102.276,15.376 L102.276,19 L101.22,19 L101.22,18.184 L101.172,18.184 C100.716,18.856 100.108,19.192 99.348,19.192 C98.7,19.192 98.158,19 97.722,18.616 C97.286,18.232 97.068,17.752 97.068,17.176 C97.068,16.568 97.298,16.084 97.758,15.724 C98.218,15.364 98.832,15.184 99.6,15.184 C100.256,15.184 100.796,15.304 101.22,15.544 L101.22,15.292 C101.22,14.908 101.068,14.582 100.764,14.314 C100.46,14.046 100.104,13.912 99.696,13.912 C99.08,13.912 98.592,14.172 98.232,14.692 L97.26,14.08 C97.796,13.312 98.588,12.928 99.636,12.928 Z M106.164,18.184 C106.708,18.184 107.152,17.988 107.496,17.596 C107.856,17.204 108.036,16.692 108.036,16.06 C108.036,15.444 107.856,14.936 107.496,14.536 C107.144,14.136 106.7,13.936 106.164,13.936 C105.636,13.936 105.192,14.136 104.832,14.536 C104.472,14.936 104.292,15.444 104.292,16.06 C104.292,16.684 104.472,17.192 104.832,17.584 C105.192,17.984 105.636,18.184 106.164,18.184 Z M105.984,19.192 C105.216,19.192 104.556,18.888 104.004,18.28 C103.46,17.664 103.188,16.924 103.188,16.06 C103.188,15.196 103.46,14.456 104.004,13.84 C104.556,13.232 105.216,12.928 105.984,12.928 C106.416,12.928 106.81,13.02 107.166,13.204 C107.522,13.388 107.796,13.632 107.988,13.936 L108.036,13.936 L107.988,13.12 L107.988,10.408 L109.092,10.408 L109.092,19 L108.036,19 L108.036,18.184 L107.988,18.184 C107.796,18.488 107.522,18.732 107.166,18.916 C106.81,19.1 106.416,19.192 105.984,19.192 Z M115.788,10.312 C116.188,10.312 116.516,10.38 116.772,10.516 L116.472,11.488 C116.28,11.392 116.064,11.344 115.824,11.344 C115.552,11.344 115.33,11.438 115.158,11.626 C114.986,11.814 114.9,12.064 114.9,12.376 L114.9,13.12 L116.436,13.12 L116.436,14.128 L114.9,14.128 L114.9,19 L113.796,19 L113.796,14.128 L112.692,14.128 L112.692,13.12 L113.796,13.12 L113.796,12.268 C113.796,11.684 113.982,11.212 114.354,10.852 C114.726,10.492 115.204,10.312 115.788,10.312 Z M117.156,16.06 C117.156,15.156 117.44,14.408 118.008,13.816 C118.584,13.224 119.308,12.928 120.18,12.928 C121.052,12.928 121.772,13.224 122.34,13.816 C122.916,14.408 123.204,15.156 123.204,16.06 C123.204,16.972 122.916,17.72 122.34,18.304 C121.772,18.896 121.052,19.192 120.18,19.192 C119.308,19.192 118.584,18.896 118.008,18.304 C117.44,17.712 117.156,16.964 117.156,16.06 Z M118.26,16.06 C118.26,16.692 118.444,17.204 118.812,17.596 C119.18,17.988 119.636,18.184 120.18,18.184 C120.724,18.184 121.18,17.988 121.548,17.596 C121.916,17.204 122.1,16.692 122.1,16.06 C122.1,15.436 121.916,14.928 121.548,14.536 C121.172,14.136 120.716,13.936 120.18,13.936 C119.644,13.936 119.188,14.136 118.812,14.536 C118.444,14.928 118.26,15.436 118.26,16.06 Z M125.316,19 L124.212,19 L124.212,13.12 L125.268,13.12 L125.268,14.08 L125.316,14.08 C125.428,13.768 125.658,13.502 126.006,13.282 C126.354,13.062 126.696,12.952 127.032,12.952 C127.352,12.952 127.624,13 127.848,13.096 L127.512,14.164 C127.376,14.108 127.16,14.08 126.864,14.08 C126.448,14.08 126.086,14.248 125.778,14.584 C125.47,14.92 125.316,15.312 125.316,15.76 L125.316,19 Z M40.3246432,33.3236161 C39.3547689,34.7860714 38.3507975,36.2439732 36.7656592,36.2720536 C35.2077986,36.3024107 34.7077072,35.3195982 32.9285941,35.3195982 C31.1479655,35.3195982 30.5910455,36.2439732 29.1172912,36.3024107 C27.5889815,36.3616071 26.4243746,34.7253571 25.4476809,33.2674554 C23.4480729,30.2879018 21.9227941,24.8463839 23.9739266,21.1731696 C24.9892638,19.3471875 26.8092935,18.1951339 28.7838969,18.1632589 C30.2864444,18.1344196 31.7041278,19.2083036 32.6202044,19.2083036 C33.5400695,19.2083036 35.2623541,17.918125 37.0732912,18.1086161 C37.8310055,18.1404911 39.9594249,18.4235714 41.3255838,20.4855804 C41.2164729,20.5576786 38.7857255,22.0163393 38.8145186,25.0566071 C38.8463426,28.6880804 41.8999312,29.8932589 41.9347861,29.9114732 C41.9075084,29.9949554 41.4453026,31.6327232 40.3246432,33.3236161 Z M33.5211266,13.7516071 C34.4644809,12.7733482 36.0587118,12.0470536 37.3748615,12 C37.5430741,13.3562054 36.9255369,14.7154464 36.0124912,15.6944643 C35.0986878,16.6712054 33.5999289,17.4324107 32.1307209,17.3322321 C31.9329575,16.0033482 32.6732444,14.6183036 33.5211266,13.7516071 Z" id="download" fill="#101213"></path>
            </g>
        </g>
    </g>
</svg>