<?xml version="1.0" encoding="UTF-8"?>
<svg width="200px" height="60px" viewBox="0 0 200 60" version="1.1" xmlns="http://www.w3.org/2000/svg" xmlns:xlink="http://www.w3.org/1999/xlink">
    <title>UI Elements/Logos/SVG /openAi</title>
    <g id="UI-Elements/Logos/openAi" stroke="none" stroke-width="1" fill="none" fill-rule="evenodd">
        <path d="M30.5239514,8.66402759 C30.7760952,8.90504115 31.2751158,9.04523636 31.6290347,8.9997493 C38.5818507,8.10477428 44.5466501,12.4472616 45.7575863,19.333121 C45.8697257,19.9706188 45.8909643,20.6239014 45.9813555,21.5439961 C45.84322,22.3756626 45.6327037,23.4554713 45.5017044,24.5447847 C45.4610964,24.8835615 45.5285499,25.3318128 45.7283621,25.5889505 C51.3122271,32.7738703 48.0384348,42.8962703 39.2990334,45.3800678 C38.8158144,45.5173776 38.5595927,45.7415882 38.3703149,46.2171656 C35.0428315,54.5742261 24.510898,56.7874774 18.0334854,50.5243496 C17.7626516,50.2624595 17.2400138,50.0806809 16.8691041,50.1282047 C7.80127007,51.2915195 0.816681264,43.4699505 2.99167692,34.5824904 C3.06915508,34.2661177 2.96415178,33.7969899 2.76433966,33.5369668 C-2.82853057,26.257848 0.427591346,16.3253735 9.27029689,13.6908577 C9.58445727,13.5971679 9.94126462,13.275873 10.0663171,12.9732483 C13.5674467,4.49856641 23.8963398,2.32418277 30.5239514,8.66402759 Z M97.2939562,24.2339621 C101.641399,24.6467402 104.544961,27.5149714 104.929803,31.9565798 C105.133353,34.3062923 105.162238,36.7379834 104.795236,39.0578238 C103.725324,45.8213093 96.5686178,47.2208853 92.6070368,45.1259343 C91.5984614,44.5924796 90.7947953,43.6727243 89.8523142,42.8935037 C89.8523142,45.714211 89.8586008,48.595681 89.8494257,51.4773206 C89.845178,52.7677615 90.0662287,52.7053017 88.6254066,52.7103935 C87.4122616,52.7148064 86.1991166,52.7112421 84.9322806,52.7112421 L84.9322806,24.7193837 L89.5356052,24.7193837 L89.5356052,27.820142 C89.7738165,27.6252945 89.893432,27.567587 89.9535795,27.4723697 C91.6745803,24.7490861 94.2892985,23.9486495 97.2939562,24.2339621 Z M31.7861999,27.7161498 L31.7861999,28.96959 L31.7861999,28.96959 C31.7829716,33.0427193 31.7625826,37.1158485 31.789598,41.1886383 C31.7957147,42.1209534 31.4491019,42.7133036 30.6405085,43.1698716 C27.6596379,44.8528931 24.7027244,46.5781768 21.738335,48.2902217 C21.4800745,48.4392428 21.2325181,48.6067642 20.9314407,48.7960108 C21.1103541,48.9570825 21.2053328,49.0612954 21.3178121,49.1410675 C24.2658903,51.2290596 27.4362086,51.6314844 30.707962,50.1041034 C33.9999346,48.5672176 35.8998488,45.8877238 36.0473291,42.2470612 C36.2017758,38.434634 36.0950734,34.6115139 36.0830099,30.7931462 C36.0821603,30.5439857 35.9876913,30.1746579 35.8108168,30.0656926 C34.54551,29.2861325 33.2474109,28.5596973 31.7861999,27.7161498 Z M29.6193598,35.2361124 L29.4263503,35.3340839 L29.4263503,35.3340839 L29.0940035,35.5003999 C28.9423603,35.5766289 28.8091523,35.6454112 28.6792574,35.7200066 C25.1235872,37.7623419 21.5604411,39.7922871 18.0219316,41.8641552 C17.1633852,42.3668891 16.4103518,42.390651 15.5733837,41.8534623 C14.7177257,41.3042229 13.815173,40.8276271 12.9330093,40.3194619 C10.6326213,38.9942267 8.33223338,37.6689916 6.00262121,36.3271231 C5.89659846,36.4824241 5.84749497,36.5240074 5.83865974,36.5727193 C5.8089258,36.7390526 5.78445901,36.907253 5.77375479,37.0757927 C5.54539808,40.6779271 6.87425059,43.5795947 9.88315599,45.5677868 C12.9178874,47.5731215 16.176558,47.7296106 19.3808579,46.0038177 C22.666204,44.2344047 25.8645571,42.3037503 29.0914548,40.4272391 C29.3089374,40.3006221 29.5901356,40.038732 29.5960824,39.8326824 C29.639409,38.348582 29.6193598,36.8627843 29.6193598,35.2361124 Z M72.2032804,17.2251179 C76.9819503,18.6151891 80.0277258,22.5301319 80.3507214,27.7626722 C80.4253111,28.9735108 80.3615955,30.1928357 80.3615955,31.4082569 C80.434656,31.4141974 80.5075467,31.4201379 80.5806072,31.4260784 C80.5352606,31.8681629 80.4998735,32.3125356 80.4673738,32.7575722 L80.3714639,34.0930502 C80.2869701,35.2049016 80.17632,36.3107519 79.9290091,37.3852236 C78.7805991,42.3752227 74.8178287,45.5863041 69.618466,45.9956877 C67.6315588,46.1521768 65.6584142,46.1014282 63.7240086,45.5615239 C59.2978984,44.3260748 56.5582976,41.4296688 55.6477593,36.9692206 C54.9305765,33.4561933 54.9681262,29.8532103 55.5410569,26.3362792 C56.4748727,20.605418 60.558108,17.1069873 66.3993841,16.7028653 C68.3589361,16.5672527 70.3031963,16.672484 72.2032804,17.2251179 Z M121.076372,24.5372997 C124.622528,25.3540302 127.06309,28.1317963 127.392712,31.7573532 C127.537304,33.3494005 127.417009,34.9655492 127.417009,36.7035625 L113.546378,36.7035625 C112.855701,41.3844872 116.421226,43.3825236 120.027699,42.3892762 C121.551946,41.9693695 122.764071,41.0730366 123.830755,39.83606 C124.829646,40.4094007 125.801521,40.9671264 126.842379,41.5645685 C125.817492,43.3575736 124.417788,44.6256105 122.541661,45.2894162 C119.663415,46.3079531 116.752207,46.3101595 113.901656,45.1933502 C110.956806,44.0397099 109.192139,41.7933617 108.850623,38.7039751 C108.595081,36.3912633 108.588285,34.0021739 108.855381,31.6914988 C109.369523,27.2461564 112.744581,24.4230728 117.54381,24.2095552 C118.716347,24.1574487 119.93221,24.2737123 121.076372,24.5372997 Z M164.957763,17.1937861 C166.141005,17.2740674 167.336309,17.2601497 168.521759,17.1973504 C169.20513,17.1611984 169.498732,17.3893126 169.726579,18.0322418 C172.029345,24.5297638 174.367113,31.0148956 176.696046,37.5030826 C177.526387,39.8166431 178.360807,42.128676 179.189959,44.4424062 C179.302608,44.7565725 179.396567,45.0775279 179.530965,45.4940401 C177.920235,45.4940401 176.399556,45.515935 174.881255,45.466035 C174.694356,45.459755 174.436775,45.098065 174.35386,44.8533174 C173.819159,43.2748483 173.306546,41.6882322 172.826045,40.0926206 C172.66905,39.5710469 172.406711,39.3952088 171.861646,39.3987731 C168.436975,39.4216864 165.011794,39.4260993 161.587123,39.395718 C160.987857,39.3902867 160.740301,39.60652 160.577359,40.14914 C160.106203,41.7179346 159.569972,43.2673802 159.098647,44.8363446 C158.955584,45.3124313 158.763588,45.5267975 158.227357,45.5116918 C156.816609,45.4721452 155.403992,45.4982833 153.895716,45.4982833 C154.012613,45.1236939 154.0923,44.8307436 154.194585,44.5457705 C157.353859,35.7440231 160.523158,26.9460096 163.660854,18.1366244 C163.903822,17.4544881 164.180093,17.1410008 164.957763,17.1937861 Z M143.631643,24.2395291 C147.593224,24.6117423 149.884947,27.2656072 149.97228,31.590952 C150.063011,36.0836485 149.992669,40.5797396 149.98995,45.0743031 C149.98995,45.1820803 149.957158,45.2898574 149.931841,45.4454979 L145.020983,45.4454979 L145.020813,33.6426224 L145.020813,33.6426224 C145.020813,33.3882003 145.022512,33.1337783 145.018774,32.8793562 C144.976297,30.0119737 143.431831,28.3766458 140.756795,28.365274 C138.011757,28.3535628 136.306728,30.0467679 136.281072,32.9048154 C136.24675,36.7206372 136.269178,40.5371379 136.267479,44.3532991 L136.267479,45.4300527 L136.267479,45.4300527 L131.389243,45.4300527 L131.389243,24.7200287 L136.014656,24.7200287 L136.014656,27.7948187 C136.184224,27.7452581 136.261702,27.7454278 136.276314,27.7152163 C137.794445,24.5854345 140.553755,23.9503129 143.631643,24.2395291 Z M199.989296,17.2673632 L199.989296,21.1206948 L194.025176,21.1206948 L194.025176,41.579861 L200,41.579861 L200,45.4426974 L182.754991,45.4426974 L182.754991,41.6586147 C183.044005,41.6419814 183.339985,41.6114304 183.635965,41.610412 C185.136085,41.6051504 186.636375,41.5939484 188.136156,41.6151644 C188.629569,41.6221232 188.841955,41.4883777 188.840765,40.9500009 C188.826493,34.5602561 188.826153,28.1705113 188.841445,21.7809362 C188.842804,21.2352611 188.615297,21.1116992 188.133267,21.1169608 C186.661692,21.1334244 185.189776,21.1245986 183.718031,21.1198462 C183.414745,21.1188278 183.111289,21.0926897 182.763487,21.0760564 L182.763487,17.2673632 L199.989296,17.2673632 Z M95.0148068,28.0321321 C92.3859862,28.0132924 90.3418199,29.7526635 89.9413461,32.4545613 C89.8142547,33.3113476 89.9214668,34.202928 89.9214668,35.0785541 L89.8830676,35.0787238 L89.8830676,35.0787238 C89.8830676,35.8703345 89.8273376,36.6665279 89.893262,37.4525377 C90.1153321,40.0980858 92.0896661,42.0260246 94.6311539,42.132444 C97.4988655,42.2526113 99.6126942,40.6765184 99.948433,37.8923025 C100.163197,36.1115178 100.180188,34.2679338 99.9846234,32.4854518 C99.674201,29.65507 97.7494802,28.0518206 95.0148068,28.0321321 Z M29.4333103,20.348433 C28.5319469,20.9903438 27.5218423,21.479839 26.4560078,22.0961208 C26.8824775,22.3534283 27.1439663,22.5170459 27.4107223,22.6714983 C30.9594263,24.7262238 34.4996348,26.7957156 38.0648198,28.8214176 C38.9045065,29.2985226 39.2601245,29.913277 39.2431336,30.8741064 C39.2023556,33.1919101 39.2300507,35.5109018 39.2302206,37.8293844 L39.2302206,42.0863289 L39.2302206,42.0863289 C39.6685839,41.9050596 39.9575979,41.8112001 40.2224848,41.6720232 C43.4566886,39.973896 45.2403855,37.2743743 45.3374031,33.6530607 C45.4323819,30.1057484 43.8620897,27.3042203 40.7993234,25.4591087 C37.8928727,23.7081961 34.89739,22.1042678 32.0052116,20.33163 C31.0476086,19.744711 30.3390912,19.7032974 29.4333103,20.348433 Z M60.6242023,26.763654 C60.2417388,29.7882045 60.2906724,32.9286791 60.6206343,35.9657895 C61.0080251,39.5327902 63.3145297,41.498748 66.7818476,41.9230677 C71.118756,42.453637 74.3918687,40.1933711 75.0903616,36.0520112 C75.3469231,34.5307404 75.3052955,32.9592301 75.3997645,31.4106331 C75.3661227,31.4089358 75.3324809,31.4072386 75.298839,31.4055413 C75.298839,30.3316731 75.3435249,29.2555985 75.2908533,28.1844459 C75.0767689,23.8226096 72.8117219,21.2232274 68.7272972,20.8092612 C64.9354545,20.4249973 61.2261873,22.0017691 60.6242023,26.763654 Z M9.25670423,17.0263496 C8.71979413,17.2637989 8.35347192,17.3982233 8.01280585,17.5803413 C1.72806918,20.9429897 1.46369192,29.86151 7.57869025,33.5968807 C10.7627711,35.5421318 14.0335051,37.3461692 17.2722964,39.2012947 C17.4722784,39.315861 17.8022402,39.4407807 17.9599151,39.3550682 C19.2911463,38.6321972 20.5962117,37.861463 22.0154554,37.0438839 C21.6640851,36.8169577 21.442015,36.65962 21.2075416,36.5238377 C17.6345408,34.455534 14.0700354,32.3724639 10.4788544,30.3362388 C9.61351158,29.8457253 9.23036845,29.2185808 9.24413102,28.2239755 C9.28151084,25.538711 9.25687414,22.8525979 9.25670423,20.166994 L9.25670423,17.0263496 L9.25670423,17.0263496 Z M23.7498789,23.6807001 C22.2878183,24.4775725 20.8689144,25.3533682 19.41399,26.1641582 C18.9780054,26.4072085 18.8475159,26.7052506 18.8556715,27.1803189 C18.8837063,28.7888299 18.8408894,30.3993776 18.9037555,32.0060215 C18.9168384,32.343101 19.1846138,32.7967836 19.4726083,32.9748281 C20.8643269,33.8358576 22.3155134,34.6006513 23.7177663,35.4455566 C24.1539208,35.7084651 24.47012,35.6631477 24.8675355,35.4099138 C25.5337458,34.9855941 26.2329182,34.6132112 26.9127212,34.2095983 C27.7852001,33.6914192 28.9845825,33.3560369 29.4299121,32.5875091 C29.8917227,31.7902974 29.6205492,30.5696146 29.6699925,29.5342746 L29.6120537,29.5322379 C29.6120537,28.7136404 29.6621767,27.8902906 29.5872471,27.0786519 C29.5575132,26.7553204 29.3271176,26.3337164 29.0579829,26.1687409 C27.6383994,25.2987159 26.1882324,24.4760449 24.720225,23.6896957 C24.4621343,23.5515372 24.0032121,23.5425417 23.7498789,23.6807001 Z M166.820128,21.3178337 L166.596529,21.331412 L166.596529,21.331412 C165.097938,26.0159009 163.599177,30.7003899 162.079178,35.4517517 L171.301798,35.4517517 C169.787576,30.676628 168.303767,25.9972309 166.820128,21.3178337 Z M113.553174,31.3199645 C113.472298,31.7627845 113.482832,32.2215589 113.424384,32.6696405 C113.353532,33.2142972 113.547737,33.4322277 114.119818,33.4191587 C115.44969,33.3886077 116.780582,33.4094842 118.111133,33.4086356 C119.526469,33.4086356 120.942655,33.4318883 122.356631,33.3852131 C122.584478,33.3775754 122.98801,33.067822 122.996506,32.8831581 C123.110344,30.4409439 122.190631,28.0085739 119.187672,27.5319781 C116.208671,27.0589465 114.065278,28.5148721 113.553174,31.3199645 Z M17.7796424,9.02334147 C14.4886893,10.5624337 12.5913238,13.2473588 12.4411249,16.8849663 C12.2837898,20.6970541 12.3950797,24.5205136 12.403745,28.3388813 C12.4042548,28.5712388 12.4616838,28.9218965 12.6161304,29.0167744 C13.9062438,29.8085549 15.2254115,30.5533207 16.6964773,31.4051849 L16.6964773,30.3150228 L16.6964773,30.3150228 C16.6993657,26.2137188 16.7187353,22.112245 16.693249,18.0109409 C16.6873022,17.0572401 16.9975547,16.394962 17.8654461,15.9526512 C18.7214439,15.5164505 19.5358142,14.99912 20.3688744,14.518281 C22.7419831,13.1490863 25.1152617,11.7804009 27.5926941,10.3512923 C27.3808185,10.1623851 27.2851601,10.0585117 27.172341,9.97890933 C24.2215443,7.89702738 21.0502066,7.49409344 17.7796424,9.02334147 Z M29.3493756,13.0119462 C25.9433946,14.7940888 22.6600873,16.8104558 19.3319243,18.7399221 C19.1375493,18.8527911 18.8950902,19.0988965 18.8905026,19.2881431 C18.8541423,20.7736013 18.8702836,22.2604174 18.8702836,23.8931994 C19.2727962,23.6864709 19.545499,23.5600236 19.8049489,23.4110026 C23.4114217,21.3410016 27.0207829,19.2760924 30.6168912,17.1886094 C31.3573514,16.7586888 32.0361349,16.7359452 32.7645316,17.1879305 C33.4851126,17.6351634 34.2313496,18.0413222 34.9667126,18.4647932 C37.4636844,19.9028974 39.9608261,21.3408318 42.4977264,22.8015098 C42.5969528,22.6552044 42.6429979,22.6143 42.6542119,22.5650789 C42.6796981,22.4556044 42.6927811,22.342396 42.702126,22.2298664 C43.0030335,18.6309568 41.7309304,15.6999264 38.7605942,13.655724 C35.7972242,11.6161043 32.5438208,11.3404662 29.3493756,13.0119462 Z" id="Combined-Shape" fill="#FFFFFF"></path>
    </g>
</svg>