<?xml version="1.0" encoding="UTF-8"?>
<svg width="52px" height="37px" viewBox="0 0 52 37" version="1.1" xmlns="http://www.w3.org/2000/svg" xmlns:xlink="http://www.w3.org/1999/xlink">
    <title>SVG /quote_marks</title>
    <g id="webDesign" stroke="none" stroke-width="1" fill="none" fill-rule="evenodd">
        <g id="1.0_webHome_July_20" transform="translate(-533.000000, -5182.000000)" fill="#8B97A2" fill-rule="nonzero">
            <g id="quote_marks" transform="translate(533.550000, 5182.272000)">
                <path d="M24.024,4.774 L14.784,16.016 C15.8106667,16.4266667 17.094,17.402 18.634,18.942 C20.174,20.482 20.944,22.6893333 20.944,25.564 C20.944,28.5413333 19.8916667,31.031 17.787,33.033 C15.6823333,35.035 13.2953333,36.036 10.626,36.036 C7.64866667,36.036 5.13333333,35.035 3.08,33.033 C1.02666667,31.031 0,28.5413333 0,25.564 C0,23.8186667 0.641666667,22.022 1.925,20.174 C3.20833333,18.326 4.72266667,16.324 6.468,14.168 L18.326,0 L24.024,4.774 Z M51.128,4.774 L41.888,16.016 C42.9146667,16.4266667 44.198,17.402 45.738,18.942 C47.278,20.482 48.048,22.6893333 48.048,25.564 C48.048,28.5413333 46.9956667,31.031 44.891,33.033 C42.7863333,35.035 40.3993333,36.036 37.73,36.036 C34.7526667,36.036 32.2373333,35.035 30.184,33.033 C28.1306667,31.031 27.104,28.5413333 27.104,25.564 C27.104,23.8186667 27.7456667,22.022 29.029,20.174 C30.3123333,18.326 31.8266667,16.324 33.572,14.168 L45.43,0 L51.128,4.774 Z" id="Shape"></path>
            </g>
        </g>
    </g>
</svg>