<?xml version="1.0" encoding="UTF-8"?>
<svg width="200px" height="60px" viewBox="0 0 200 60" version="1.1" xmlns="http://www.w3.org/2000/svg" xmlns:xlink="http://www.w3.org/1999/xlink">
    <title>UI Elements/Logos/SVG /revenueCat</title>
    <g id="UI-Elements/Logos/revenueCat" stroke="none" stroke-width="1" fill="none" fill-rule="evenodd">
        <path d="M194.812019,12.1108151 L194.812019,17.5331557 L199.670663,17.5331557 C199.890221,17.973505 200,18.8899743 200,19.8039767 C200,20.7179791 199.890221,21.6356819 199.670663,22.0747977 L199.670663,22.0747977 L194.812019,22.0747977 L194.812019,34.9349714 C194.812019,40.0810144 192.544898,42.2950957 190.642885,43.2461022 C185.784241,45.676041 177.227649,44.4660055 168.963391,43.6025755 C168.576378,43.5503231 168.189501,43.4990079 167.803621,43.4489117 L167.033446,43.3504282 C160.24648,42.4963228 153.949958,42.0813223 152.894958,43.6593152 C152.460776,44.0971976 152.369499,45.5119893 152.894958,46.0880205 C154.447898,47.7939116 158.496152,46.6023781 161.363973,46.0670515 C162.730659,45.8129564 164.031972,46.782465 164.253996,48.1565522 C164.361308,48.8163361 164.200957,49.4915384 163.809947,50.0336491 C163.418936,50.5758832 162.829337,50.9406207 162.16943,51.0478094 C160.873051,51.2508388 159.563104,51.3534636 158.251924,51.3549438 C155.461812,51.3549438 151.946418,50.8566213 149.954362,48.6696763 C148.963884,47.580521 147.945037,45.6489047 148.729524,42.6256661 C150.213391,36.9035919 159.144958,38.3171502 169.486382,39.3927373 C176.684922,40.1414545 184.529801,41.4625025 188.386866,38.7328301 C189.197257,38.1641997 189.443951,36.3522301 189.443951,34.9349714 L189.443951,34.9349714 L189.515492,22.0698638 L186.701944,22.0698638 C186.701944,20.4897869 186.957273,18.7012532 187.432159,17.5294553 L187.432159,17.5294553 L189.514259,17.5294553 L189.514259,13.5749457 C190.830373,12.6239392 192.76569,12.1478192 194.812019,12.1108151 L194.812019,12.1108151 Z M158.805753,9 C160.880452,9 162.990922,9.37004144 164.337873,10.1643971 C165.1754,11.3657983 165.539274,13.5132722 165.35672,15.1143181 C163.610124,14.2780245 162.009078,13.8413756 159.934379,13.8413756 C154.801904,13.8413756 151.271709,16.4625025 151.271709,22.7951451 C151.271709,29.1277876 154.766134,31.6403691 159.679051,31.6403691 C161.777186,31.6201401 163.851885,31.2016232 165.793369,30.4068976 C165.866144,31.7538484 165.21117,34.0826426 164.337873,35.2482731 C162.772597,36.0130255 160.514111,36.5582199 157.968226,36.5582199 C150.178853,36.5582199 145.592806,31.535524 145.592806,23.163953 C145.59404,14.1324748 150.943606,9 158.805753,9 Z M32.1023288,16.8633807 C37.4161239,16.8633807 39.8546971,20.139481 39.8546971,24.9438524 C39.8509966,26.1057825 39.667086,27.2600651 39.3095027,28.3655023 L28.2464969,28.3655023 C28.4648214,30.9138544 30.2841918,32.1510262 33.8883955,32.1510262 C36.2184231,32.1510262 38.256118,31.6416025 39.5623643,31.059404 C39.6709098,32.4421255 39.0887113,34.2257253 38.2524176,35.1717979 C37.0510164,35.8637754 35.0133215,36.4459739 32.5019736,36.4459739 C26.1323268,36.4459739 22.7476811,32.7702289 22.7476811,26.8730018 C22.7476811,20.7944543 26.3876554,16.8633807 32.1023288,16.8633807 Z M70.9381784,16.8633807 C76.2519736,16.8633807 78.6905467,20.139481 78.6905467,24.9438524 C78.6875863,26.1055358 78.5045392,27.2598184 78.1478192,28.3655023 L67.0823466,28.3655023 C67.300671,30.9138544 69.1200414,32.1510262 72.7242451,32.1510262 C75.0542727,32.1510262 77.0919676,31.6416025 78.3982139,31.059404 C78.5067594,32.4421255 77.9245609,34.2257253 77.0882672,35.1717979 C75.886866,35.8637754 73.8491711,36.4459739 71.3378232,36.4459739 C64.9681764,36.4459739 61.5835307,32.7702289 61.5835307,26.8730018 C61.5835307,20.7944543 65.223505,16.8633807 70.9381784,16.8633807 Z M134.561871,16.8633807 C139.875666,16.8633807 142.314239,20.139481 142.314239,24.9438524 C142.310539,26.1057825 142.125518,27.2600651 141.767811,28.3655023 L130.706039,28.3655023 C130.924364,30.9138544 132.743734,32.1510262 136.347938,32.1510262 C138.677965,32.1510262 140.71566,31.6416025 142.021906,31.059404 C142.130452,32.4421255 141.548253,34.2257253 140.71196,35.1717979 C139.510559,35.8637754 137.472864,36.4459739 134.961516,36.4459739 C128.591869,36.4459739 125.207223,32.7702289 125.207223,26.8730018 C125.207223,20.7944543 128.847198,16.8633807 134.561871,16.8633807 Z M109.739491,17.2210874 L109.739491,28.5048845 C109.739491,30.4698046 110.356227,31.5626604 112.469163,31.5626604 C114.179988,31.5626604 115.306148,30.8349122 115.963588,29.997385 L115.963588,17.8809947 C116.473012,17.6256661 117.346309,17.4443458 118.620485,17.4443458 C119.894662,17.4443458 120.767959,17.6268995 121.241612,17.8809947 L121.241612,35.2433393 C120.29554,35.7897671 118.803039,36.0808664 117.129218,36.0808664 L116.512483,33.5325143 L116.22015,33.5325143 C115.419627,35.1705644 113.708802,36.4447405 110.505477,36.4447405 C107.668492,36.4447405 104.461466,35.4579633 104.461466,29.413953 L104.461466,18.3127097 C105.694938,17.6207322 107.446467,17.2210874 109.739491,17.2210874 Z M175.986777,16.8596803 C181.227798,16.8596803 183.739145,18.7098875 183.739145,24.1026248 L183.739145,30.3994967 C183.739145,31.5281231 184.248569,31.7822183 184.972617,31.7822183 C185.525212,31.792086 186.069173,31.6402457 186.537892,31.3455694 C186.683442,32.8010657 186.246793,34.5846655 185.59182,35.6035129 C184.827067,36.1129366 183.80822,36.4410401 182.571048,36.4410401 C180.460578,36.4410401 179.364022,35.5307381 179.003848,33.8199132 L178.71645,33.8236136 C177.915927,35.4271265 176.205102,36.4447405 173.693754,36.4447405 C170.486728,36.4447405 167.724985,34.8412276 167.724985,30.6215216 C167.724985,26.1810243 170.932011,24.4701993 175.150484,24.4701993 C176.271709,24.4563844 177.389234,24.616119 178.462354,24.9438524 L178.462354,24.4344287 C178.462354,22.21418 177.370732,21.413657 174.96793,21.413657 C172.927768,21.4123002 170.92091,21.937389 169.143477,22.9382277 C168.706828,21.5185021 168.888149,19.2624827 169.725676,18.0610815 C171.036856,17.3333333 173.292875,16.8596803 175.986777,16.8596803 Z M57.1455003,17.3703375 C58.6380008,17.3703375 59.6568482,17.6614367 60.3118216,18.0980857 L54.5613775,35.3518847 C52.6322281,35.8983126 49.9383264,36.0796329 47.3542037,36.0796329 L41.3854352,18.0993191 C42.0404085,17.6626702 43.059256,17.3715709 44.592461,17.3715709 C45.6840833,17.3715709 46.4426682,17.5528913 46.776939,17.6996744 L49.7249359,27.0900928 C50.2033994,28.6289718 50.5804717,30.1977008 50.8535623,31.7859187 L51.1397276,31.7846852 C51.392836,30.1988109 51.7454855,28.6304519 52.1955792,27.0888593 L54.9610223,17.6984409 C55.3619005,17.5528913 55.9798697,17.3703375 57.1455003,17.3703375 Z M93.6907934,16.8621472 C96.4574699,16.8621472 99.7348036,17.8489244 99.7348036,23.8509966 L99.7348036,35.425893 C99.2611506,35.6812216 98.3878528,35.8625419 97.1136767,35.8625419 C95.8395007,35.8625419 94.9662029,35.6812216 94.4567792,35.425893 L94.4567792,24.7970693 C94.4567792,22.904924 93.8018058,21.7035228 91.654332,21.7035228 C89.7621867,21.7035228 88.7063351,22.6495954 88.0513618,23.7782218 L88.0476613,35.4246596 C87.5740083,35.6799882 86.7007105,35.8613085 85.4265344,35.8613085 C84.1523584,35.8613085 83.2790606,35.6799882 82.7696369,35.4246596 L82.7696369,18.0635485 C83.7564141,17.5171206 85.3179889,17.2260213 87.0645846,17.2260213 L87.3556838,20.2110223 L87.6467831,20.2110223 C88.5200809,18.318877 90.3764555,16.8621472 93.6907934,16.8621472 Z M7.60681863,9.43665014 C14.8843004,9.43665014 19.2544898,11.8394514 19.2544898,17.9537695 C19.2544898,21.7022893 17.6509769,24.1778666 15.1420959,25.5248174 L21.2157095,35.3518847 C20.7420564,35.6799882 19.723209,35.8613085 18.3034833,35.8613085 C16.6999704,35.8613085 15.6465858,35.6799882 14.8818334,35.3518847 L9.82460036,26.8347642 L9.25103612,26.8347642 C8.01756463,26.8347642 6.37581409,26.7249852 5.50251628,26.5794356 L5.50251628,35.3876554 C4.99309256,35.6787547 4.08279061,35.8613085 2.77284389,35.8613085 C1.49866785,35.8613085 0.552595224,35.6799882 0.00740082889,35.3876554 L0,10.1286276 C1.9291494,9.69197873 4.91415038,9.43665014 7.60681863,9.43665014 Z M176.168097,28.0003947 C174.057628,28.0003947 173.001776,28.8736925 173.001776,30.2576475 C173.001776,31.6773732 174.057628,32.1867969 175.513124,32.1867969 C176.677521,32.1867969 177.843152,31.8167555 178.5709,30.9126209 L178.5709,28.4370436 C177.804914,28.1389136 176.98959,27.9907736 176.168097,28.0003947 Z M31.8864713,20.7932208 C29.6292185,20.7932208 28.2464969,22.2487172 28.1009473,24.5417407 L34.9072429,24.5417407 C35.1983422,22.6495954 34.5063647,20.7932208 31.8864713,20.7932208 Z M70.7223209,20.7932208 C68.4650681,20.7932208 67.0823466,22.2487172 66.9367969,24.5417407 L73.7430926,24.5417407 C74.0341918,22.6495954 73.3422143,20.7932208 70.7223209,20.7932208 Z M134.346013,20.7932208 C132.088761,20.7932208 130.706039,22.2487172 130.560489,24.5417407 L137.366785,24.5417407 C137.657884,22.6495954 136.965907,20.7932208 134.346013,20.7932208 Z M8.01756463,14.1386422 C7.16021561,14.1332273 6.30408772,14.2042259 5.45934478,14.3507993 L5.45934478,21.9576179 C6.494067,22.1287004 7.54113627,22.2140566 8.5898954,22.2129572 C11.7562167,22.2129572 13.6915335,21.0880205 13.6915335,18.2510361 C13.6915335,15.3388099 11.6538386,14.1386422 8.01756463,14.1386422 Z" id="Combined-Shape" fill="#F1545B" fill-rule="nonzero"></path>
    </g>
</svg>