<?xml version="1.0" encoding="UTF-8"?>
<svg width="60px" height="60px" viewBox="0 0 60 60" version="1.1" xmlns="http://www.w3.org/2000/svg" xmlns:xlink="http://www.w3.org/1999/xlink">
    <title>SVG /review_APKs</title>
    <g id="review_APKs" stroke="none" stroke-width="1" fill="none" fill-rule="evenodd">
        <g id="Sidebar-Icons/grid" fill="#4B39EF">
            <path d="M44.99965,23.0772461 L44.99965,47.6924154 C44.99965,49.390862 43.6212006,50.7693115 41.9227539,50.7693115 L41.9227539,50.7693115 L38.8458577,50.7693115 L38.8458577,56.9231038 C38.8458577,58.6215505 37.4674083,60 35.7689616,60 C34.0705149,60 32.6920654,58.6215505 32.6920654,56.9231038 L32.6920654,56.9231038 L32.6920654,50.7693115 L26.5382731,50.7693115 L26.5382731,56.9231038 C26.5382731,58.6215505 25.1598236,60 23.4613769,60 C21.7629303,60 20.3844808,58.6215505 20.3844808,56.9231038 L20.3844808,56.9231038 L20.3844808,50.7693115 L17.3075846,50.7693115 C15.609138,50.7693115 14.2306885,49.390862 14.2306885,47.6924154 L14.2306885,47.6924154 L14.2306885,23.0772461 L44.99965,23.0772461 Z M8.07689616,23.0772461 C9.77534284,23.0772461 11.1537923,24.4556956 11.1537923,26.1541423 L11.1537923,38.4617269 C11.1537923,40.0995148 9.87204529,41.4397542 8.25759989,41.5333966 L8.07689616,41.5386231 C6.37844948,41.5386231 5,40.1601736 5,38.4617269 L5,26.1541423 C5,24.5163544 6.28174703,23.1761149 7.89619242,23.0824726 L8.07689616,23.0772461 Z M51.1534424,23.0772461 C52.851889,23.0772461 54.2303385,24.4556956 54.2303385,26.1541423 L54.2303385,38.4617269 C54.2303385,40.0995148 52.9485915,41.4397542 51.3341461,41.5333966 L51.1534424,41.5386231 C49.4549957,41.5386231 48.0765462,40.1601736 48.0765462,38.4617269 L48.0765462,26.1541423 C48.0765462,24.5163544 49.3582932,23.1761149 50.9727386,23.0824726 L51.1534424,23.0772461 Z M40.6427651,0.68667277 C41.1073764,-0.0240902427 42.0642911,-0.211780908 42.7750541,0.258984204 C43.4827402,0.729749316 43.6735078,1.68666402 43.2027427,2.39127324 L43.2027427,2.39127324 L39.3473918,8.17583802 C42.7719772,10.9973518 44.99965,15.2157764 44.99965,20.00035 L44.99965,20.00035 L14.2306885,20.00035 C14.2306885,15.2157764 16.4583613,10.9973518 19.8829467,8.17583802 L19.8829467,8.17583802 L16.0275958,2.39127324 C15.5568307,1.68666402 15.7475983,0.729749316 16.4552844,0.258984204 C17.1598936,-0.211780908 18.1168083,-0.0210133466 18.5875734,0.68667277 L18.5875734,0.68667277 L22.4429243,6.46816065 C24.5936747,5.32355528 27.0090382,4.61586916 29.6151693,4.61586916 C32.2213003,4.61586916 34.6366638,5.32355528 36.7874142,6.46816065 L36.7874142,6.46816065 Z" id="Combined-Shape"></path>
        </g>
    </g>
</svg>