<?xml version="1.0" encoding="UTF-8"?>
<svg width="60px" height="60px" viewBox="0 0 60 60" version="1.1" xmlns="http://www.w3.org/2000/svg" xmlns:xlink="http://www.w3.org/1999/xlink">
    <title>SVG /review_Users</title>
    <g id="review_Users" stroke="none" stroke-width="1" fill="none" fill-rule="evenodd">
        <g id="Sidebar-Icons/grid" fill="#4B39EF">
            <path d="M18.75,32.5 C12.5367966,32.5 7.5,27.4632034 7.5,21.25 C7.5,15.0367966 12.5367966,10 18.75,10 C24.9632034,10 30,15.0367966 30,21.25 C29.9931111,27.4603477 24.9603477,32.4931111 18.75,32.5 L18.75,32.5 Z M18.75,15 C15.2982203,15 12.5,17.7982203 12.5,21.25 C12.5,24.7017797 15.2982203,27.5 18.75,27.5 C22.2017797,27.5 25,24.7017797 25,21.25 C25,19.5923969 24.3415197,18.002685 23.1694174,16.8305826 C21.997315,15.6584803 20.4076031,15 18.75,15 Z M37.5,57.5 L37.5,56.25 C37.5,45.8946609 29.1053391,37.5 18.75,37.5 C8.39466094,37.5 0,45.8946609 0,56.25 L0,57.5 C0,58.8807119 1.11928813,60 2.5,60 C3.88071187,60 5,58.8807119 5,57.5 L5,56.25 C5,48.6560847 11.1560847,42.5 18.75,42.5 C26.3439153,42.5 32.5,48.6560847 32.5,56.25 L32.5,57.5 C32.5,58.8807119 33.6192881,60 35,60 C36.3807119,60 37.5,58.8807119 37.5,57.5 Z M60,45 C60,38.0987389 55.9437033,31.8420557 49.6436136,29.0249161 C43.343524,26.2077765 35.9761024,27.3563306 30.8325,31.9575 C30.1574182,32.5507159 29.8526819,33.4606279 30.0343259,34.3407676 C30.2159699,35.2209074 30.8560409,35.9358292 31.7108181,36.2133115 C32.5655954,36.4907937 33.5035363,36.2881342 34.1675,35.6825 C37.841767,32.3967272 43.1039194,31.5770129 47.6035248,33.589497 C52.1031303,35.601981 54.999923,40.0708478 55,45 C55,46.3807119 56.1192881,47.5 57.5,47.5 C58.8807119,47.5 60,46.3807119 60,45 Z M43.75,22.5 C37.5367966,22.5 32.5,17.4632034 32.5,11.25 C32.5,5.03679656 37.5367966,0 43.75,0 C49.9632034,0 55,5.03679656 55,11.25 C54.9931111,17.4603477 49.9603477,22.4931111 43.75,22.5 Z M43.75,5 C40.2982203,5 37.5,7.79822031 37.5,11.25 C37.5,14.7017797 40.2982203,17.5 43.75,17.5 C47.2017797,17.5 50,14.7017797 50,11.25 C50,9.59239694 49.3415197,8.00268498 48.1694174,6.83058262 C46.997315,5.65848025 45.4076031,5 43.75,5 Z" id="Shape"></path>
        </g>
    </g>
</svg>