<?xml version="1.0" encoding="UTF-8"?>
<svg width="60px" height="60px" viewBox="0 0 60 60" version="1.1" xmlns="http://www.w3.org/2000/svg" xmlns:xlink="http://www.w3.org/1999/xlink">
    <title>SVG /review_linesOfCode</title>
    <g id="review_linesOfCode" stroke="none" stroke-width="1" fill="none" fill-rule="evenodd">
        <g id="Sidebar-Icons/grid" fill="#4B39EF">
            <path d="M29.0478324,7.58291559 C30.0666256,7.87933688 30.6831662,8.89054526 30.5104578,9.91194049 L30.4564155,10.1475072 L18.9598191,49.6610471 C18.6405962,50.758209 17.4923894,51.3888532 16.3952275,51.0696303 C15.3764343,50.773209 14.7598936,49.7620006 14.9326021,48.7406054 L14.9866444,48.5050387 L26.4832408,8.99149874 C26.8024637,7.89433682 27.9506705,7.26369267 29.0478324,7.58291559 Z M46.5862069,36.1937551 C47.1384916,36.1937551 47.5862069,36.6414704 47.5862069,37.1937551 L47.5862069,39.3316862 C47.5862069,39.8839709 47.1384916,40.3316862 46.5862069,40.3316862 L29.9655172,40.3316862 C29.4132325,40.3316862 28.9655172,39.8839709 28.9655172,39.3316862 L28.9655172,37.1937551 C28.9655172,36.6414704 29.4132325,36.1937551 29.9655172,36.1937551 L46.5862069,36.1937551 Z M11.5225271,19.0042879 C11.688461,18.8541573 11.9413126,18.8699605 12.0835416,19.0358944 L12.0835416,19.0358944 L13.54534,20.6873315 C13.6954706,20.8532654 13.6717658,21.106117 13.5058319,21.248346 L13.5058319,21.248346 L3.94488026,29.3474993 L13.5058319,37.4466525 C13.6717658,37.5888816 13.6954706,37.8417332 13.54534,38.0076671 L13.54534,38.0076671 L12.0835416,39.6591042 C11.9413126,39.825038 11.688461,39.8408413 11.5225271,39.6986122 L11.5225271,39.6986122 L0.136302823,29.6477606 C-0.0454342744,29.4897283 -0.0454342744,29.2131719 0.136302823,29.0551396 L0.136302823,29.0551396 Z M59,27.9178931 C59.5522847,27.9178931 60,28.3656083 60,28.9178931 L60,31.0558241 C60,31.6081089 59.5522847,32.0558241 59,32.0558241 L42.3793103,32.0558241 C41.8270256,32.0558241 41.3793103,31.6081089 41.3793103,31.0558241 L41.3793103,28.9178931 C41.3793103,28.3656083 41.8270256,27.9178931 42.3793103,27.9178931 L59,27.9178931 Z M52.7931034,19.642031 C53.3453882,19.642031 53.7931034,20.0897462 53.7931034,20.642031 L53.7931034,22.779962 C53.7931034,23.3322468 53.3453882,23.779962 52.7931034,23.779962 L34.1034483,23.779962 C33.5511635,23.779962 33.1034483,23.3322468 33.1034483,22.779962 L33.1034483,20.642031 C33.1034483,20.0897462 33.5511635,19.642031 34.1034483,19.642031 L52.7931034,19.642031 Z" id="Combined-Shape"></path>
        </g>
    </g>
</svg>