<?xml version="1.0" encoding="UTF-8"?>
<svg width="60px" height="60px" viewBox="0 0 60 60" version="1.1" xmlns="http://www.w3.org/2000/svg" xmlns:xlink="http://www.w3.org/1999/xlink">
    <title>SVG /review_Countries</title>
    <g id="review_Countries" stroke="none" stroke-width="1" fill="none" fill-rule="evenodd">
        <g id="Sidebar-Icons/grid" fill="#4B39EF">
            <path d="M30,0 C13.4314575,0 0,13.4314575 0,30 C0,46.5685425 13.4314575,60 30,60 C46.5685425,60 60,46.5685425 60,30 C59.9820879,13.4388826 46.5611174,0.017912119 30,0 Z M55,30 C55.0029716,34.8992726 53.5573835,39.6900665 50.845,43.77 L47.865,40.7875 C47.6313276,40.5532362 47.5000703,40.2358811 47.5,39.905 L47.5,37.5 C47.5,33.3578644 44.1421356,30 40,30 L32.5,30 C31.1192881,30 30,28.8807119 30,27.5 L30,26.25 C30,25.5596441 30.5596441,25 31.25,25 C34.7017797,25 37.5,22.2017797 37.5,18.75 L37.5,16.25 C37.5,15.5596441 38.0596441,15 38.75,15 L42.1975,15 C43.8534847,14.9952888 45.4408061,14.3377227 46.615,13.17 L47.5575,12.2275 C52.3206432,16.914337 55.0021209,23.3176374 55,30 Z M5.1225,32.4075 L13.0175,40.3025 C14.4208494,41.7148996 16.3314646,42.5063373 18.3225,42.5 L25,42.5 C26.3807119,42.5 27.5,43.6192881 27.5,45 L27.5,54.8725 C15.6457489,53.6624559 6.28627326,44.2663831 5.1225,32.4075 L5.1225,32.4075 Z M32.5,54.8725 L32.5,45 C32.5,40.8578644 29.1421356,37.5 25,37.5 L18.3225,37.5 C17.6586467,37.5005219 17.0218442,37.2369864 16.5525,36.7675 L5.4075,25.6225 C6.8607834,17.3611599 12.3688917,10.3833651 20.0669872,7.05153397 C27.7650827,3.7197028 36.6223303,4.47999339 43.64,9.075 L43.08,9.635 C42.8446724,9.8670724 42.5280039,9.99804579 42.1975,10 L38.75,10 C35.2982203,10 32.5,12.7982203 32.5,16.25 L32.5,18.75 C32.5,19.4403559 31.9403559,20 31.25,20 C27.7982203,20 25,22.7982203 25,26.25 L25,27.5 C25,31.6421356 28.3578644,35 32.5,35 L40,35 C41.3807119,35 42.5,36.1192881 42.5,37.5 L42.5,39.905 C42.5047112,41.5609847 43.1622773,43.1483061 44.33,44.3225 L47.6725,47.665 C43.6011444,51.750464 38.2390345,54.297665 32.5,54.8725 L32.5,54.8725 Z" id="Shape"></path>
        </g>
    </g>
</svg>