<?xml version="1.0" encoding="UTF-8"?>
<svg width="60px" height="60px" viewBox="0 0 60 60" version="1.1" xmlns="http://www.w3.org/2000/svg" xmlns:xlink="http://www.w3.org/1999/xlink">
    <title>SVG /review_Projects</title>
    <g id="review_Projects" stroke="none" stroke-width="1" fill="none" fill-rule="evenodd">
        <g id="FFlogomark" transform="translate(0.000103, 0.000028)">
            <path d="M19.6104023,48.1451034 L8.29594876,59.3507842 C7.16677106,60.4691932 5.25147173,60.0883296 4.64618131,58.624754 L4.64618131,58.624754 L0.310011041,48.1451034 L19.6104023,48.1451034 Z M35.5230861,18.1178802 L41.1329246,31.6766821 L8.78157658,31.6766821 L3.17173805,18.1178802 L35.5230861,18.1178802 Z" id="Combined-Shape" fill="#3124A1"></path>
            <path d="M38.2976535,30.0964005 C40.8868545,30.0964005 42.4791578,32.9000517 41.1348433,35.0908091 L41.1348433,35.0908091 L32.8413181,48.6052775 C32.2392256,49.5863683 31.1635414,50.1854441 30.0041283,50.1854441 L30.0041283,50.1854441 L3.32483409,50.1854441 C0.735923842,50.1854441 -0.856379515,47.3815049 0.487935023,45.1907476 L0.487935023,45.1907476 L8.78175101,31.6765669 C9.38355272,30.6954761 10.4592369,30.0964005 11.6186501,30.0964005 L11.6186501,30.0964005 Z M56.675166,1.77635684e-15 C59.2640762,1.77635684e-15 60.8563795,2.80365127 59.512065,4.99440865 L59.512065,4.99440865 L51.2185398,18.5088772 C50.6164473,19.489968 49.5410539,20.0890437 48.38135,20.0890437 L48.38135,20.0890437 L6.21220308,20.0890437 C3.62329284,20.0890437 2.03098948,17.2851046 3.37530402,15.0946351 L3.37530402,15.0946351 L11.66912,1.58016653 C12.2709217,0.599075706 13.346606,1.77635684e-15 14.5060191,1.77635684e-15 L14.5060191,1.77635684e-15 Z" id="Combined-Shape" fill="#4B39EF"></path>
        </g>
    </g>
</svg>