<?xml version="1.0" encoding="UTF-8"?>
<svg width="1680px" height="244px" viewBox="0 0 1680 244" version="1.1" xmlns="http://www.w3.org/2000/svg" xmlns:xlink="http://www.w3.org/1999/xlink">
    <title>waveSine</title>
    <g id="webDesign" stroke="none" stroke-width="1" fill="none" fill-rule="evenodd">
        <g id="5.0_whyFlutterFlow" transform="translate(0.000000, -319.000000)" fill-rule="nonzero">
            <g id="waveSine" transform="translate(0.000000, 319.000000)">
                <path d="M482.106667,0.109284512 C562,0.374690096 642.266667,1.25937538 722.16,7.6291094 C746.064478,9.50411403 769.919055,11.8757564 793.753524,14.2875204 L800.903292,15.0117968 C854.522468,20.446049 908.054925,25.8523058 961.84,26.0305632 C1014.69251,26.2061392 1067.70841,21.3872533 1120.67152,16.59398 L1128.06136,15.9258225 C1152.69286,13.7025524 1177.31077,11.5353352 1201.89333,9.92929113 C1281.97333,4.7981165 1361.49333,5.68280178 1441.57333,8.95613732 C1521.46667,12.1410043 1601.73333,17.8029901 1641.86667,20.5455145 L1682,23.3765074 L1682,126 L1680,126 L1680,220.623493 L1639.86667,223.454485 C1599.73333,226.19701 1519.46667,231.858996 1439.57333,235.043863 C1359.49333,238.317198 1279.97333,239.201883 1199.89333,234.070709 C1175.31077,232.464665 1150.69286,230.297448 1126.06136,228.074178 L1118.67152,227.40602 C1065.70841,222.612747 1012.69251,217.793861 959.84,217.969437 C906.054925,218.147694 852.522468,223.553951 798.903292,228.988203 L791.753524,229.71248 C767.919055,232.124244 744.064478,234.495886 720.16,236.370891 C640.266667,242.740625 560,243.62531 480.106667,243.890715 C400.026667,244.24459 320.506667,243.890715 240.426667,240.528911 C160.533333,237.167107 80.2666667,230.620436 40.1333333,227.435569 L40.1333333,227.435569 L0,224.162234 L0,118 L2,118 L2,19.8377663 L42.1333333,16.5644307 C82.2666667,13.3795637 162.533333,6.83289265 242.426667,3.47108858 C322.506667,0.109284512 402.026667,-0.244589601 482.106667,0.109284512 Z" id="Combined-Shape" fill="#151A1E"></path>
                <path d="M722.16,32.2082666 C780.994286,35.0221822 839.526297,41.0573434 898.200193,47.1700185 L907.980565,48.1889764 C925.913936,50.0564052 943.862857,51.9147647 961.84,53.6743708 C1041.73333,61.6016873 1122,67.4803715 1201.89333,63.3831068 C1233.92533,61.7085725 1265.86773,58.4236351 1297.79221,55.0845425 L1304.63293,54.3687609 C1350.23619,49.5989194 1395.81333,44.9454156 1441.57333,44.9454156 C1521.46667,44.9454156 1601.73333,59.1967711 1641.86667,66.3224488 L1682,73.4481266 L1682,126 L1680,126 L1680,170.551873 L1639.86667,177.677551 C1599.73333,184.803229 1519.46667,199.054584 1439.57333,199.054584 C1393.81333,199.054584 1348.23619,194.401081 1302.63293,189.631239 L1295.79221,188.915458 C1263.86773,185.576365 1231.92533,182.291428 1199.89333,180.616893 C1120,176.519629 1039.73333,182.398313 959.84,190.325629 C941.862857,192.085235 923.913936,193.943595 905.980565,195.811024 L896.200193,196.829981 C837.526297,202.942657 778.994286,208.977818 720.16,211.791733 C640.266667,215.710856 560,213.573153 480.106667,211.791733 C400.026667,210.010314 320.506667,208.585178 240.426667,205.11141 C238.8288,205.043717 237.230784,204.975239 235.632943,204.906014 L230.840267,204.696137 C154.176213,201.303448 78.6613333,196.27557 40.1333333,193.710326 L40.1333333,193.710326 L0,191.038197 L0,118 L2,118 L2,52.9618031 L42.1333333,50.2896739 C80.6613333,47.7244299 156.176213,42.6965517 232.840267,39.3038626 L237.632943,39.0939857 C239.230784,39.0247612 240.8288,38.9562834 242.426667,38.8885895 C322.506667,35.4148216 402.026667,33.989686 482.106667,32.2082666 C562,30.4268472 642.266667,28.2891438 722.16,32.2082666 Z" id="Combined-Shape" fill="#191F23"></path>
                <path d="M2,59 L42.1333333,60.7631579 C81.464,62.4910526 159.33872,65.9122842 237.632943,71.1927996 L242.426667,71.5184211 L242.426667,71.5184211 C257.135238,72.5061493 271.824917,73.5622816 286.502645,74.6371082 L296.286101,75.3558833 C358.237745,79.9187559 420.00381,84.6179646 482.106667,85.7118421 C545.695238,86.9046724 609.520311,84.3557673 673.205414,81.9322326 L683.001967,81.5608918 C696.06243,81.0684802 709.11619,80.5896885 722.16,80.1578947 C802.24,77.5131579 881.76,76.6315789 961.84,75.0447368 C1041.73333,73.3697368 1122,71.0776316 1201.89333,69.7552632 C1281.97333,68.4328947 1361.49333,68.0802632 1441.57333,70.6368421 C1521.46667,73.1052632 1601.73333,78.3947368 1641.86667,81.0394737 L1682,83.6842105 L1682,126 L1680,126 L1680,157.736842 L1639.86667,160.657895 C1599.73333,163.578947 1519.46667,169.421053 1439.57333,172.147368 C1359.49333,174.971053 1279.97333,174.581579 1199.89333,173.121053 C1120,171.660526 1039.73333,169.128947 959.84,167.278947 C879.76,165.526316 800.24,164.552632 720.16,161.631579 C703.259487,161.013664 686.342268,160.308607 669.415411,159.596596 L655.564157,159.014116 C597.073215,156.561939 538.490256,154.287753 480.106667,155.497368 C423.126667,156.60587 366.430187,161.066525 309.613757,165.687393 L300.399167,166.437623 C280.431667,168.06398 260.446667,169.688816 240.426667,171.173684 C238.029867,171.354789 235.632731,171.533967 233.236352,171.711222 L228.44493,172.063169 C152.607,177.595132 78.26,181.202632 40.1333333,183.052632 L40.1333333,183.052632 L0,185 L0,111 L2,111 L2,59 Z" id="Combined-Shape" fill="#1D2429"></path>
            </g>
        </g>
    </g>
</svg>